<svg width="438" height="110" viewBox="0 0 438 110" fill="none" xmlns="http://www.w3.org/2000/svg">
<path d="M36.7676 42.4609H38.7676V40.4609H36.7676V42.4609ZM36.7676 51.6162V53.6162H38.7676V51.6162H36.7676ZM17.5049 51.6162V49.6162H15.5049V51.6162H17.5049ZM17.5049 70V72H19.5049V70H17.5049ZM7.32422 70H5.32422V72H7.32422V70ZM7.32422 20.9277V18.9277H5.32422V20.9277H7.32422ZM40.7959 20.9277H42.7959V18.9277H40.7959V20.9277ZM40.7959 30.083V32.083H42.7959V30.083H40.7959ZM17.5049 30.083V28.083H15.5049V30.083H17.5049ZM17.5049 42.4609H15.5049V44.4609H17.5049V42.4609ZM34.7676 42.4609V51.6162H38.7676V42.4609H34.7676ZM36.7676 49.6162H17.5049V53.6162H36.7676V49.6162ZM15.5049 51.6162V70H19.5049V51.6162H15.5049ZM17.5049 68H7.32422V72H17.5049V68ZM9.32422 70V20.9277H5.32422V70H9.32422ZM7.32422 22.9277H40.7959V18.9277H7.32422V22.9277ZM38.7959 20.9277V30.083H42.7959V20.9277H38.7959ZM40.7959 28.083H17.5049V32.083H40.7959V28.083ZM15.5049 30.083V42.4609H19.5049V30.083H15.5049ZM17.5049 44.4609H36.7676V40.4609H17.5049V44.4609ZM91.4502 60.8447H93.4502V58.8447H91.4502V60.8447ZM91.4502 70V72H93.4502V70H91.4502ZM64.7168 70H62.7168V72H64.7168V70ZM64.7168 60.8447V58.8447H62.7168V60.8447H64.7168ZM72.9932 60.8447V62.8447H74.9932V60.8447H72.9932ZM72.9932 30.083H74.9932V28.083H72.9932V30.083ZM64.7168 30.083H62.7168V32.083H64.7168V30.083ZM64.7168 20.9277V18.9277H62.7168V20.9277H64.7168ZM91.4502 20.9277H93.4502V18.9277H91.4502V20.9277ZM91.4502 30.083V32.083H93.4502V30.083H91.4502ZM83.1738 30.083V28.083H81.1738V30.083H83.1738ZM83.1738 60.8447H81.1738V62.8447H83.1738V60.8447ZM89.4502 60.8447V70H93.4502V60.8447H89.4502ZM91.4502 68H64.7168V72H91.4502V68ZM66.7168 70V60.8447H62.7168V70H66.7168ZM64.7168 62.8447H72.9932V58.8447H64.7168V62.8447ZM74.9932 60.8447V30.083H70.9932V60.8447H74.9932ZM72.9932 28.083H64.7168V32.083H72.9932V28.083ZM66.7168 30.083V20.9277H62.7168V30.083H66.7168ZM64.7168 22.9277H91.4502V18.9277H64.7168V22.9277ZM89.4502 20.9277V30.083H93.4502V20.9277H89.4502ZM91.4502 28.083H83.1738V32.083H91.4502V28.083ZM81.1738 30.083V60.8447H85.1738V30.083H81.1738ZM83.1738 62.8447H91.4502V58.8447H83.1738V62.8447ZM159.902 20.9277H161.902V18.9277H159.902V20.9277ZM159.902 70.3662V72.3662H161.902V70.3662H159.902ZM156.24 70.3662L154.805 71.7592L155.394 72.3662H156.24V70.3662ZM127.163 40.4102L128.598 39.0172L125.163 35.4782V40.4102H127.163ZM127.163 70V72H129.163V70H127.163ZM116.982 70H114.982V72H116.982V70ZM116.982 20.5615V18.5615H114.982V20.5615H116.982ZM120.645 20.5615L122.09 19.179L121.499 18.5615H120.645V20.5615ZM149.722 50.957L148.276 52.3396L151.722 55.941V50.957H149.722ZM149.722 20.9277V18.9277H147.722V20.9277H149.722ZM157.902 20.9277V70.3662H161.902V20.9277H157.902ZM159.902 68.3662H156.24V72.3662H159.902V68.3662ZM157.675 68.9732L128.598 39.0172L125.728 41.8032L154.805 71.7592L157.675 68.9732ZM125.163 40.4102V70H129.163V40.4102H125.163ZM127.163 68H116.982V72H127.163V68ZM118.982 70V20.5615H114.982V70H118.982ZM116.982 22.5615H120.645V18.5615H116.982V22.5615ZM119.199 21.944L148.276 52.3396L151.167 49.5745L122.09 19.179L119.199 21.944ZM151.722 50.957V20.9277H147.722V50.957H151.722ZM149.722 22.9277H159.902V18.9277H149.722V22.9277ZM207.114 20.5615L208.93 19.7224L208.393 18.5615H207.114V20.5615ZM229.966 70V72H233.094L231.781 69.1609L229.966 70ZM218.027 70L216.176 70.7555L216.683 72H218.027V70ZM214.292 60.8447L216.144 60.0892L215.636 58.8447H214.292V60.8447ZM194.883 60.8447V58.8447H193.539L193.031 60.0892L194.883 60.8447ZM191.147 70V72H192.492L192.999 70.7555L191.147 70ZM179.209 70L177.394 69.1609L176.081 72H179.209V70ZM202.061 20.5615V18.5615H200.782L200.245 19.7224L202.061 20.5615ZM204.624 37.1875L206.475 36.4292L204.624 31.9127L202.773 36.4292L204.624 37.1875ZM198.472 52.2021L196.621 51.4438L195.491 54.2021H198.472V52.2021ZM210.776 52.2021V54.2021H213.757L212.627 51.4438L210.776 52.2021ZM205.299 21.4007L228.15 70.8391L231.781 69.1609L208.93 19.7224L205.299 21.4007ZM229.966 68H218.027V72H229.966V68ZM219.879 69.2445L216.144 60.0892L212.44 61.6003L216.176 70.7555L219.879 69.2445ZM214.292 58.8447H194.883V62.8447H214.292V58.8447ZM193.031 60.0892L189.296 69.2445L192.999 70.7555L196.735 61.6003L193.031 60.0892ZM191.147 68H179.209V72H191.147V68ZM181.024 70.8391L203.876 21.4007L200.245 19.7224L177.394 69.1609L181.024 70.8391ZM202.061 22.5615H207.114V18.5615H202.061V22.5615ZM202.773 36.4292L196.621 51.4438L200.322 52.9605L206.475 37.9458L202.773 36.4292ZM198.472 54.2021H210.776V50.2021H198.472V54.2021ZM212.627 51.4438L206.475 36.4292L202.773 37.9458L208.926 52.9605L212.627 51.4438ZM292.192 20.9277H294.192V18.9277H292.192V20.9277ZM292.192 70.3662V72.3662H294.192V70.3662H292.192ZM288.53 70.3662L287.095 71.7592L287.684 72.3662H288.53V70.3662ZM259.453 40.4102L260.888 39.0172L257.453 35.4782V40.4102H259.453ZM259.453 70V72H261.453V70H259.453ZM249.272 70H247.272V72H249.272V70ZM249.272 20.5615V18.5615H247.272V20.5615H249.272ZM252.935 20.5615L254.38 19.179L253.789 18.5615H252.935V20.5615ZM282.012 50.957L280.567 52.3396L284.012 55.941V50.957H282.012ZM282.012 20.9277V18.9277H280.012V20.9277H282.012ZM290.192 20.9277V70.3662H294.192V20.9277H290.192ZM292.192 68.3662H288.53V72.3662H292.192V68.3662ZM289.965 68.9732L260.888 39.0172L258.018 41.8032L287.095 71.7592L289.965 68.9732ZM257.453 40.4102V70H261.453V40.4102H257.453ZM259.453 68H249.272V72H259.453V68ZM251.272 70V20.5615H247.272V70H251.272ZM249.272 22.5615H252.935V18.5615H249.272V22.5615ZM251.489 21.944L280.567 52.3396L283.457 49.5745L254.38 19.179L251.489 21.944ZM284.012 50.957V20.9277H280.012V50.957H284.012ZM282.012 22.9277H292.192V18.9277H282.012V22.9277ZM347.974 21.1475L347.245 23.0099L347.263 23.0169L347.28 23.0234L347.974 21.1475ZM353.833 24.5898H355.833V23.6873L355.156 23.0902L353.833 24.5898ZM353.833 34.8438L352.633 36.4438L355.833 38.8438V34.8438H353.833ZM345.85 30.2295L345.199 32.1209L345.208 32.1239L345.217 32.1269L345.85 30.2295ZM326.587 53.667L324.857 54.6704L324.861 54.6781L324.866 54.6856L326.587 53.667ZM332.3 59.3799L331.281 61.101L331.294 61.1088L331.308 61.1164L332.3 59.3799ZM348.486 59.9658L349.299 61.7934L349.308 61.7894L349.317 61.7852L348.486 59.9658ZM354.565 56.2305H356.565V52.034L353.306 54.677L354.565 56.2305ZM354.565 66.1182L355.913 67.5961L356.565 67.0012V66.1182H354.565ZM348.34 69.7803L349.005 71.6663L349.022 71.6605L349.038 71.6544L348.34 69.7803ZM330.029 69.2676L329.277 71.1205L329.289 71.1256L329.302 71.1305L330.029 69.2676ZM321.753 63.9941L320.368 65.4375L320.376 65.4449L320.384 65.4523L321.753 63.9941ZM321.753 27.0068L323.122 28.465L323.13 28.4576L323.137 28.4502L321.753 27.0068ZM330.029 21.7334L330.757 23.5963L330.77 23.5914L330.782 23.5863L330.029 21.7334ZM339.99 21.8291C342.883 21.8291 345.285 22.2431 347.245 23.0099L348.702 19.285C346.17 18.294 343.25 17.8291 339.99 17.8291V21.8291ZM347.28 23.0234C349.314 23.775 351.049 24.8008 352.51 26.0895L355.156 23.0902C353.297 21.4492 351.125 20.1801 348.667 19.2715L347.28 23.0234ZM351.833 24.5898V34.8438H355.833V24.5898H351.833ZM355.033 33.2437C353.826 32.3382 352.57 31.4591 351.265 30.6063L349.076 33.9542C350.311 34.7616 351.497 35.5915 352.633 36.4438L355.033 33.2437ZM351.265 30.6063C349.836 29.6718 348.237 28.9172 346.482 28.3321L345.217 32.1269C346.685 32.616 347.967 33.2286 349.076 33.9542L351.265 30.6063ZM346.5 28.3381C344.676 27.7112 342.59 27.4238 340.283 27.4238V31.4238C342.273 31.4238 343.898 31.6736 345.199 32.1209L346.5 28.3381ZM340.283 27.4238C337.015 27.4238 333.999 28.2182 331.281 29.8267L333.318 33.269C335.386 32.0455 337.692 31.4238 340.283 31.4238V27.4238ZM331.281 29.8267C328.599 31.4141 326.453 33.56 324.866 36.2421L328.308 38.2794C329.553 36.1763 331.215 34.5137 333.318 33.269L331.281 29.8267ZM324.866 36.2421C323.248 38.9752 322.463 42.0685 322.463 45.4639H326.463C326.463 42.7069 327.094 40.3315 328.308 38.2794L324.866 36.2421ZM322.463 45.4639C322.463 48.8171 323.251 51.902 324.857 54.6704L328.317 52.6636C327.091 50.5491 326.463 48.1653 326.463 45.4639H322.463ZM324.866 54.6856C326.453 57.3677 328.599 59.5137 331.281 61.101L333.318 57.6587C331.215 56.4141 329.553 54.7514 328.308 52.6484L324.866 54.6856ZM331.308 61.1164C334.021 62.6672 337.028 63.4307 340.283 63.4307V59.4307C337.679 59.4307 335.363 58.8269 333.292 57.6434L331.308 61.1164ZM340.283 63.4307C343.739 63.4307 346.771 62.9168 349.299 61.7934L347.674 58.1382C345.807 58.968 343.37 59.4307 340.283 59.4307V63.4307ZM349.317 61.7852C351.707 60.694 353.879 59.3615 355.825 57.784L353.306 54.677C351.638 56.0291 349.758 57.1869 347.656 58.1464L349.317 61.7852ZM352.565 56.2305V66.1182H356.565V56.2305H352.565ZM353.218 64.6403C351.778 65.9531 349.935 67.0517 347.642 67.9061L349.038 71.6544C351.725 70.6534 354.032 69.3106 355.913 67.5961L353.218 64.6403ZM347.674 67.8943C345.43 68.6864 342.876 69.0986 339.99 69.0986V73.0986C343.257 73.0986 346.269 72.6319 349.005 71.6663L347.674 67.8943ZM339.99 69.0986C336.712 69.0986 333.639 68.5305 330.757 67.4047L329.302 71.1305C332.67 72.4461 336.238 73.0986 339.99 73.0986V69.0986ZM330.782 67.4146C327.878 66.2351 325.33 64.609 323.122 62.536L320.384 65.4523C322.961 67.8715 325.93 69.761 329.277 71.1205L330.782 67.4146ZM323.137 62.5508C320.94 60.4435 319.21 57.9534 317.946 55.0626L314.281 56.6659C315.751 60.0251 317.78 62.9549 320.368 65.4375L323.137 62.5508ZM317.946 55.0626C316.701 52.2184 316.062 49.0288 316.062 45.4639H312.062C312.062 49.5161 312.791 53.2602 314.281 56.6659L317.946 55.0626ZM316.062 45.4639C316.062 41.8989 316.701 38.7094 317.946 35.8651L314.281 34.2618C312.791 37.6676 312.062 41.4116 312.062 45.4639H316.062ZM317.946 35.8651C319.209 32.9781 320.934 30.5185 323.122 28.465L320.384 25.5487C317.786 27.9873 315.752 30.8989 314.281 34.2618L317.946 35.8651ZM323.137 28.4502C325.338 26.3391 327.873 24.7228 330.757 23.5963L329.302 19.8705C325.935 21.1854 322.953 23.0848 320.368 25.5635L323.137 28.4502ZM330.782 23.5863C333.658 22.418 336.722 21.8291 339.99 21.8291V17.8291C336.228 17.8291 332.651 18.5097 329.277 19.8805L330.782 23.5863ZM408.296 40.8496H410.296V38.8496H408.296V40.8496ZM408.296 49.126V51.126H410.296V49.126H408.296ZM386.616 49.126V47.126H384.616V49.126H386.616ZM386.616 60.9912H384.616V62.9912H386.616V60.9912ZM411.152 60.9912H413.152V58.9912H411.152V60.9912ZM411.152 70V72H413.152V70H411.152ZM376.436 70H374.436V72H376.436V70ZM376.436 20.9277V18.9277H374.436V20.9277H376.436ZM411.152 20.9277H413.152V18.9277H411.152V20.9277ZM411.152 29.7168V31.7168H413.152V29.7168H411.152ZM386.616 29.7168V27.7168H384.616V29.7168H386.616ZM386.616 40.8496H384.616V42.8496H386.616V40.8496ZM406.296 40.8496V49.126H410.296V40.8496H406.296ZM408.296 47.126H386.616V51.126H408.296V47.126ZM384.616 49.126V60.9912H388.616V49.126H384.616ZM386.616 62.9912H411.152V58.9912H386.616V62.9912ZM409.152 60.9912V70H413.152V60.9912H409.152ZM411.152 68H376.436V72H411.152V68ZM378.436 70V20.9277H374.436V70H378.436ZM376.436 22.9277H411.152V18.9277H376.436V22.9277ZM409.152 20.9277V29.7168H413.152V20.9277H409.152ZM411.152 27.7168H386.616V31.7168H411.152V27.7168ZM384.616 29.7168V40.8496H388.616V29.7168H384.616ZM386.616 42.8496H408.296V38.8496H386.616V42.8496Z" fill="white" fill-opacity="0.9"/>
<path d="M56.7676 62.4609V71.6162H37.5049V90H27.3242V40.9277H60.7959V50.083H37.5049V62.4609H56.7676ZM111.45 80.8447V90H84.7168V80.8447H92.9932V50.083H84.7168V40.9277H111.45V50.083H103.174V80.8447H111.45ZM179.902 40.9277V90.3662H176.24L147.163 60.4102V90H136.982V40.5615H140.645L169.722 70.957V40.9277H179.902ZM227.114 40.5615L249.966 90H238.027L234.292 80.8447H214.883L211.147 90H199.209L222.061 40.5615H227.114ZM224.624 57.1875L218.472 72.2021H230.776L224.624 57.1875ZM312.192 40.9277V90.3662H308.53L279.453 60.4102V90H269.272V40.5615H272.935L302.012 70.957V40.9277H312.192ZM359.99 39.8291C363.066 39.8291 365.728 40.2686 367.974 41.1475C370.22 41.9775 372.173 43.125 373.833 44.5898V54.8438C372.661 53.9648 371.44 53.1104 370.171 52.2803C368.901 51.4502 367.461 50.7666 365.85 50.2295C364.287 49.6924 362.432 49.4238 360.283 49.4238C357.354 49.4238 354.692 50.1318 352.3 51.5479C349.907 52.9639 348.003 54.8682 346.587 57.2607C345.171 59.6533 344.463 62.3877 344.463 65.4639C344.463 68.4912 345.171 71.2256 346.587 73.667C348.003 76.0596 349.907 77.9639 352.3 79.3799C354.692 80.7471 357.354 81.4307 360.283 81.4307C363.555 81.4307 366.289 80.9424 368.486 79.9658C370.732 78.9404 372.759 77.6953 374.565 76.2305V86.1182C372.905 87.6318 370.83 88.8525 368.34 89.7803C365.85 90.6592 363.066 91.0986 359.99 91.0986C356.475 91.0986 353.154 90.4883 350.029 89.2676C346.904 87.998 344.146 86.2402 341.753 83.9941C339.36 81.6992 337.48 78.9893 336.113 75.8643C334.746 72.7393 334.062 69.2725 334.062 65.4639C334.062 61.6553 334.746 58.1885 336.113 55.0635C337.48 51.9385 339.36 49.2529 341.753 47.0068C344.146 44.7119 346.904 42.9541 350.029 41.7334C353.154 40.4639 356.475 39.8291 359.99 39.8291ZM428.296 60.8496V69.126H406.616V80.9912H431.152V90H396.436V40.9277H431.152V49.7168H406.616V60.8496H428.296Z" fill="white"/>
<path d="M56.7676 62.4609H58.7676V60.4609H56.7676V62.4609ZM56.7676 71.6162V73.6162H58.7676V71.6162H56.7676ZM37.5049 71.6162V69.6162H35.5049V71.6162H37.5049ZM37.5049 90V92H39.5049V90H37.5049ZM27.3242 90H25.3242V92H27.3242V90ZM27.3242 40.9277V38.9277H25.3242V40.9277H27.3242ZM60.7959 40.9277H62.7959V38.9277H60.7959V40.9277ZM60.7959 50.083V52.083H62.7959V50.083H60.7959ZM37.5049 50.083V48.083H35.5049V50.083H37.5049ZM37.5049 62.4609H35.5049V64.4609H37.5049V62.4609ZM54.7676 62.4609V71.6162H58.7676V62.4609H54.7676ZM56.7676 69.6162H37.5049V73.6162H56.7676V69.6162ZM35.5049 71.6162V90H39.5049V71.6162H35.5049ZM37.5049 88H27.3242V92H37.5049V88ZM29.3242 90V40.9277H25.3242V90H29.3242ZM27.3242 42.9277H60.7959V38.9277H27.3242V42.9277ZM58.7959 40.9277V50.083H62.7959V40.9277H58.7959ZM60.7959 48.083H37.5049V52.083H60.7959V48.083ZM35.5049 50.083V62.4609H39.5049V50.083H35.5049ZM37.5049 64.4609H56.7676V60.4609H37.5049V64.4609ZM111.45 80.8447H113.45V78.8447H111.45V80.8447ZM111.45 90V92H113.45V90H111.45ZM84.7168 90H82.7168V92H84.7168V90ZM84.7168 80.8447V78.8447H82.7168V80.8447H84.7168ZM92.9932 80.8447V82.8447H94.9932V80.8447H92.9932ZM92.9932 50.083H94.9932V48.083H92.9932V50.083ZM84.7168 50.083H82.7168V52.083H84.7168V50.083ZM84.7168 40.9277V38.9277H82.7168V40.9277H84.7168ZM111.45 40.9277H113.45V38.9277H111.45V40.9277ZM111.45 50.083V52.083H113.45V50.083H111.45ZM103.174 50.083V48.083H101.174V50.083H103.174ZM103.174 80.8447H101.174V82.8447H103.174V80.8447ZM109.45 80.8447V90H113.45V80.8447H109.45ZM111.45 88H84.7168V92H111.45V88ZM86.7168 90V80.8447H82.7168V90H86.7168ZM84.7168 82.8447H92.9932V78.8447H84.7168V82.8447ZM94.9932 80.8447V50.083H90.9932V80.8447H94.9932ZM92.9932 48.083H84.7168V52.083H92.9932V48.083ZM86.7168 50.083V40.9277H82.7168V50.083H86.7168ZM84.7168 42.9277H111.45V38.9277H84.7168V42.9277ZM109.45 40.9277V50.083H113.45V40.9277H109.45ZM111.45 48.083H103.174V52.083H111.45V48.083ZM101.174 50.083V80.8447H105.174V50.083H101.174ZM103.174 82.8447H111.45V78.8447H103.174V82.8447ZM179.902 40.9277H181.902V38.9277H179.902V40.9277ZM179.902 90.3662V92.3662H181.902V90.3662H179.902ZM176.24 90.3662L174.805 91.7592L175.394 92.3662H176.24V90.3662ZM147.163 60.4102L148.598 59.0172L145.163 55.4782V60.4102H147.163ZM147.163 90V92H149.163V90H147.163ZM136.982 90H134.982V92H136.982V90ZM136.982 40.5615V38.5615H134.982V40.5615H136.982ZM140.645 40.5615L142.09 39.179L141.499 38.5615H140.645V40.5615ZM169.722 70.957L168.276 72.3396L171.722 75.941V70.957H169.722ZM169.722 40.9277V38.9277H167.722V40.9277H169.722ZM177.902 40.9277V90.3662H181.902V40.9277H177.902ZM179.902 88.3662H176.24V92.3662H179.902V88.3662ZM177.675 88.9732L148.598 59.0172L145.728 61.8032L174.805 91.7592L177.675 88.9732ZM145.163 60.4102V90H149.163V60.4102H145.163ZM147.163 88H136.982V92H147.163V88ZM138.982 90V40.5615H134.982V90H138.982ZM136.982 42.5615H140.645V38.5615H136.982V42.5615ZM139.199 41.944L168.276 72.3396L171.167 69.5745L142.09 39.179L139.199 41.944ZM171.722 70.957V40.9277H167.722V70.957H171.722ZM169.722 42.9277H179.902V38.9277H169.722V42.9277ZM227.114 40.5615L228.93 39.7224L228.393 38.5615H227.114V40.5615ZM249.966 90V92H253.094L251.781 89.1609L249.966 90ZM238.027 90L236.176 90.7555L236.683 92H238.027V90ZM234.292 80.8447L236.144 80.0892L235.636 78.8447H234.292V80.8447ZM214.883 80.8447V78.8447H213.539L213.031 80.0892L214.883 80.8447ZM211.147 90V92H212.492L212.999 90.7555L211.147 90ZM199.209 90L197.394 89.1609L196.081 92H199.209V90ZM222.061 40.5615V38.5615H220.782L220.245 39.7224L222.061 40.5615ZM224.624 57.1875L226.475 56.4292L224.624 51.9127L222.773 56.4292L224.624 57.1875ZM218.472 72.2021L216.621 71.4438L215.491 74.2021H218.472V72.2021ZM230.776 72.2021V74.2021H233.757L232.627 71.4438L230.776 72.2021ZM225.299 41.4007L248.15 90.8391L251.781 89.1609L228.93 39.7224L225.299 41.4007ZM249.966 88H238.027V92H249.966V88ZM239.879 89.2445L236.144 80.0892L232.44 81.6003L236.176 90.7555L239.879 89.2445ZM234.292 78.8447H214.883V82.8447H234.292V78.8447ZM213.031 80.0892L209.296 89.2445L212.999 90.7555L216.735 81.6003L213.031 80.0892ZM211.147 88H199.209V92H211.147V88ZM201.024 90.8391L223.876 41.4007L220.245 39.7224L197.394 89.1609L201.024 90.8391ZM222.061 42.5615H227.114V38.5615H222.061V42.5615ZM222.773 56.4292L216.621 71.4438L220.322 72.9605L226.475 57.9458L222.773 56.4292ZM218.472 74.2021H230.776V70.2021H218.472V74.2021ZM232.627 71.4438L226.475 56.4292L222.773 57.9458L228.926 72.9605L232.627 71.4438ZM312.192 40.9277H314.192V38.9277H312.192V40.9277ZM312.192 90.3662V92.3662H314.192V90.3662H312.192ZM308.53 90.3662L307.095 91.7592L307.684 92.3662H308.53V90.3662ZM279.453 60.4102L280.888 59.0172L277.453 55.4782V60.4102H279.453ZM279.453 90V92H281.453V90H279.453ZM269.272 90H267.272V92H269.272V90ZM269.272 40.5615V38.5615H267.272V40.5615H269.272ZM272.935 40.5615L274.38 39.179L273.789 38.5615H272.935V40.5615ZM302.012 70.957L300.567 72.3396L304.012 75.941V70.957H302.012ZM302.012 40.9277V38.9277H300.012V40.9277H302.012ZM310.192 40.9277V90.3662H314.192V40.9277H310.192ZM312.192 88.3662H308.53V92.3662H312.192V88.3662ZM309.965 88.9732L280.888 59.0172L278.018 61.8032L307.095 91.7592L309.965 88.9732ZM277.453 60.4102V90H281.453V60.4102H277.453ZM279.453 88H269.272V92H279.453V88ZM271.272 90V40.5615H267.272V90H271.272ZM269.272 42.5615H272.935V38.5615H269.272V42.5615ZM271.489 41.944L300.567 72.3396L303.457 69.5745L274.38 39.179L271.489 41.944ZM304.012 70.957V40.9277H300.012V70.957H304.012ZM302.012 42.9277H312.192V38.9277H302.012V42.9277ZM367.974 41.1475L367.245 43.0099L367.263 43.0169L367.28 43.0234L367.974 41.1475ZM373.833 44.5898H375.833V43.6873L375.156 43.0902L373.833 44.5898ZM373.833 54.8438L372.633 56.4438L375.833 58.8438V54.8438H373.833ZM365.85 50.2295L365.199 52.1209L365.208 52.1239L365.217 52.1269L365.85 50.2295ZM346.587 73.667L344.857 74.6704L344.861 74.6781L344.866 74.6856L346.587 73.667ZM352.3 79.3799L351.281 81.101L351.294 81.1088L351.308 81.1164L352.3 79.3799ZM368.486 79.9658L369.299 81.7934L369.308 81.7894L369.317 81.7852L368.486 79.9658ZM374.565 76.2305H376.565V72.034L373.306 74.677L374.565 76.2305ZM374.565 86.1182L375.913 87.5961L376.565 87.0012V86.1182H374.565ZM368.34 89.7803L369.005 91.6663L369.022 91.6605L369.038 91.6544L368.34 89.7803ZM350.029 89.2676L349.277 91.1205L349.289 91.1256L349.302 91.1305L350.029 89.2676ZM341.753 83.9941L340.368 85.4375L340.376 85.4449L340.384 85.4523L341.753 83.9941ZM341.753 47.0068L343.122 48.465L343.13 48.4576L343.137 48.4502L341.753 47.0068ZM350.029 41.7334L350.757 43.5963L350.77 43.5914L350.782 43.5863L350.029 41.7334ZM359.99 41.8291C362.883 41.8291 365.285 42.2431 367.245 43.0099L368.702 39.285C366.17 38.294 363.25 37.8291 359.99 37.8291V41.8291ZM367.28 43.0234C369.314 43.775 371.049 44.8008 372.51 46.0895L375.156 43.0902C373.297 41.4492 371.125 40.1801 368.667 39.2715L367.28 43.0234ZM371.833 44.5898V54.8438H375.833V44.5898H371.833ZM375.033 53.2437C373.826 52.3382 372.57 51.4591 371.265 50.6063L369.076 53.9542C370.311 54.7616 371.497 55.5915 372.633 56.4438L375.033 53.2437ZM371.265 50.6063C369.836 49.6718 368.237 48.9172 366.482 48.3321L365.217 52.1269C366.685 52.616 367.967 53.2286 369.076 53.9542L371.265 50.6063ZM366.5 48.3381C364.676 47.7112 362.59 47.4238 360.283 47.4238V51.4238C362.273 51.4238 363.898 51.6736 365.199 52.1209L366.5 48.3381ZM360.283 47.4238C357.015 47.4238 353.999 48.2182 351.281 49.8267L353.318 53.269C355.386 52.0455 357.692 51.4238 360.283 51.4238V47.4238ZM351.281 49.8267C348.599 51.4141 346.453 53.56 344.866 56.2421L348.308 58.2794C349.553 56.1763 351.215 54.5137 353.318 53.269L351.281 49.8267ZM344.866 56.2421C343.248 58.9752 342.463 62.0685 342.463 65.4639H346.463C346.463 62.7069 347.094 60.3315 348.308 58.2794L344.866 56.2421ZM342.463 65.4639C342.463 68.8171 343.251 71.902 344.857 74.6704L348.317 72.6636C347.091 70.5491 346.463 68.1653 346.463 65.4639H342.463ZM344.866 74.6856C346.453 77.3677 348.599 79.5137 351.281 81.101L353.318 77.6587C351.215 76.4141 349.553 74.7514 348.308 72.6484L344.866 74.6856ZM351.308 81.1164C354.021 82.6672 357.028 83.4307 360.283 83.4307V79.4307C357.679 79.4307 355.363 78.8269 353.292 77.6434L351.308 81.1164ZM360.283 83.4307C363.739 83.4307 366.771 82.9168 369.299 81.7934L367.674 78.1382C365.807 78.968 363.37 79.4307 360.283 79.4307V83.4307ZM369.317 81.7852C371.707 80.694 373.879 79.3615 375.825 77.784L373.306 74.677C371.638 76.0291 369.758 77.1869 367.656 78.1464L369.317 81.7852ZM372.565 76.2305V86.1182H376.565V76.2305H372.565ZM373.218 84.6403C371.778 85.9531 369.935 87.0517 367.642 87.9061L369.038 91.6544C371.725 90.6534 374.032 89.3106 375.913 87.5961L373.218 84.6403ZM367.674 87.8943C365.43 88.6864 362.876 89.0986 359.99 89.0986V93.0986C363.257 93.0986 366.269 92.6319 369.005 91.6663L367.674 87.8943ZM359.99 89.0986C356.712 89.0986 353.639 88.5305 350.757 87.4047L349.302 91.1305C352.67 92.4461 356.238 93.0986 359.99 93.0986V89.0986ZM350.782 87.4146C347.878 86.2351 345.33 84.609 343.122 82.536L340.384 85.4523C342.961 87.8715 345.93 89.761 349.277 91.1205L350.782 87.4146ZM343.137 82.5508C340.94 80.4435 339.21 77.9534 337.946 75.0626L334.281 76.6659C335.751 80.0251 337.78 82.9549 340.368 85.4375L343.137 82.5508ZM337.946 75.0626C336.701 72.2184 336.062 69.0288 336.062 65.4639H332.062C332.062 69.5161 332.791 73.2602 334.281 76.6659L337.946 75.0626ZM336.062 65.4639C336.062 61.8989 336.701 58.7094 337.946 55.8651L334.281 54.2618C332.791 57.6676 332.062 61.4116 332.062 65.4639H336.062ZM337.946 55.8651C339.209 52.9781 340.934 50.5185 343.122 48.465L340.384 45.5487C337.786 47.9873 335.752 50.8989 334.281 54.2618L337.946 55.8651ZM343.137 48.4502C345.338 46.3391 347.873 44.7228 350.757 43.5963L349.302 39.8705C345.935 41.1854 342.953 43.0848 340.368 45.5635L343.137 48.4502ZM350.782 43.5863C353.658 42.418 356.722 41.8291 359.99 41.8291V37.8291C356.228 37.8291 352.651 38.5097 349.277 39.8805L350.782 43.5863ZM428.296 60.8496H430.296V58.8496H428.296V60.8496ZM428.296 69.126V71.126H430.296V69.126H428.296ZM406.616 69.126V67.126H404.616V69.126H406.616ZM406.616 80.9912H404.616V82.9912H406.616V80.9912ZM431.152 80.9912H433.152V78.9912H431.152V80.9912ZM431.152 90V92H433.152V90H431.152ZM396.436 90H394.436V92H396.436V90ZM396.436 40.9277V38.9277H394.436V40.9277H396.436ZM431.152 40.9277H433.152V38.9277H431.152V40.9277ZM431.152 49.7168V51.7168H433.152V49.7168H431.152ZM406.616 49.7168V47.7168H404.616V49.7168H406.616ZM406.616 60.8496H404.616V62.8496H406.616V60.8496ZM426.296 60.8496V69.126H430.296V60.8496H426.296ZM428.296 67.126H406.616V71.126H428.296V67.126ZM404.616 69.126V80.9912H408.616V69.126H404.616ZM406.616 82.9912H431.152V78.9912H406.616V82.9912ZM429.152 80.9912V90H433.152V80.9912H429.152ZM431.152 88H396.436V92H431.152V88ZM398.436 90V40.9277H394.436V90H398.436ZM396.436 42.9277H431.152V38.9277H396.436V42.9277ZM429.152 40.9277V49.7168H433.152V40.9277H429.152ZM431.152 47.7168H406.616V51.7168H431.152V47.7168ZM404.616 49.7168V60.8496H408.616V49.7168H404.616ZM406.616 62.8496H428.296V58.8496H406.616V62.8496Z" fill="black"/>
</svg>
