<?xml version="1.0" encoding="UTF-8"?>
<svg xmlns="http://www.w3.org/2000/svg" xmlns:xlink="http://www.w3.org/1999/xlink" width="375pt" height="374.999991pt" viewBox="0 0 375 374.999991" version="1.2">
<defs>
<clipPath id="clip1">
  <path d="M 156 248 L 361 248 L 361 325.484375 L 156 325.484375 Z M 156 248 "/>
</clipPath>
<clipPath id="clip2">
  <path d="M 225 248 L 286 248 L 286 325.484375 L 225 325.484375 Z M 225 248 "/>
</clipPath>
</defs>
<g id="surface1">
<path style=" stroke:none;fill-rule:nonzero;fill:rgb(32.939148%,68.629456%,89.7995%);fill-opacity:1;" d="M 275.101562 180.898438 C 275.101562 251.675781 217.570312 309.046875 146.585938 309.046875 C 75.625 309.046875 18.089844 251.675781 18.089844 180.898438 C 18.089844 110.121094 75.625 52.734375 146.585938 52.734375 C 217.570312 52.734375 275.101562 110.121094 275.101562 180.898438 "/>
<path style=" stroke:none;fill-rule:nonzero;fill:rgb(1.568604%,1.959229%,1.959229%);fill-opacity:1;" d="M 150.996094 305.246094 C 148.933594 305.320312 147.316406 307.035156 147.390625 309.109375 C 147.464844 311.164062 149.203125 312.761719 151.265625 312.703125 C 153.328125 312.628906 154.945312 310.898438 154.867188 308.839844 C 154.792969 306.78125 153.058594 305.171875 150.996094 305.246094 Z M 132.152344 304.5 C 76.300781 298.085938 31.632812 254.839844 23.242188 199.75 C 22.941406 197.707031 21.027344 196.320312 18.996094 196.617188 C 16.949219 196.929688 15.550781 198.839844 15.859375 200.867188 C 24.769531 259.28125 72.054688 305.097656 131.300781 311.910156 C 133.351562 312.148438 135.203125 310.675781 135.445312 308.628906 C 135.683594 306.585938 134.203125 304.738281 132.152344 304.5 Z M 22.226562 170.875 C 22.390625 168.820312 20.851562 167.027344 18.796875 166.863281 C 16.738281 166.699219 14.933594 168.238281 14.773438 170.28125 C 14.609375 172.339844 16.144531 174.128906 18.203125 174.292969 C 20.265625 174.457031 22.0625 172.917969 22.226562 170.875 Z M 25.140625 152.308594 C 31.453125 125.539062 46.421875 102.113281 66.953125 85.109375 C 87.5 68.109375 113.566406 57.566406 142.082031 56.550781 C 144.148438 56.476562 145.761719 54.746094 145.6875 52.6875 C 145.613281 50.628906 143.894531 49.019531 141.8125 49.09375 C 111.605469 50.167969 83.941406 61.367188 62.183594 79.367188 C 40.425781 97.382812 24.558594 122.214844 17.863281 150.59375 C 17.390625 152.59375 18.632812 154.605469 20.640625 155.082031 C 22.660156 155.546875 24.664062 154.308594 25.140625 152.308594 Z M 170.976562 58.847656 C 172.992188 59.234375 174.953125 57.921875 175.355469 55.910156 C 175.761719 53.882812 174.445312 51.929688 172.410156 51.527344 C 170.390625 51.121094 168.433594 52.433594 168.027344 54.464844 C 167.625 56.476562 168.941406 58.445312 170.976562 58.847656 Z M 189.128906 63.890625 C 213.101562 72.554688 233.675781 88.363281 248.242188 108.71875 C 262.808594 129.089844 271.363281 153.980469 271.363281 180.898438 C 271.363281 209.5625 261.65625 235.945312 245.328125 256.972656 C 228.996094 278.015625 206.058594 293.6875 179.632812 300.90625 C 177.644531 301.457031 176.476562 303.515625 177.015625 305.484375 C 177.570312 307.484375 179.617188 308.644531 181.605469 308.109375 C 209.644531 300.441406 233.945312 283.828125 251.234375 261.550781 C 268.535156 239.253906 278.839844 211.261719 278.839844 180.898438 C 278.839844 152.382812 269.761719 125.957031 254.328125 104.394531 C 238.898438 82.8125 217.109375 66.082031 191.6875 56.878906 C 189.742188 56.179688 187.605469 57.179688 186.902344 59.117188 C 186.183594 61.039062 187.199219 63.1875 189.128906 63.890625 "/>
<path style=" stroke:none;fill-rule:nonzero;fill:rgb(17.649841%,26.669312%,59.21936%);fill-opacity:1;" d="M 146.585938 52.734375 C 75.625 52.734375 18.089844 110.121094 18.089844 180.898438 C 18.089844 251.675781 75.625 309.046875 146.585938 309.046875 L 146.585938 52.734375 "/>
<path style=" stroke:none;fill-rule:nonzero;fill:rgb(1.568604%,1.959229%,1.959229%);fill-opacity:1;" d="M 146.585938 52.734375 L 146.585938 49.003906 C 73.546875 49.019531 14.351562 108.0625 14.351562 180.898438 C 14.351562 253.734375 73.546875 312.777344 146.585938 312.777344 C 147.570312 312.777344 148.542969 312.390625 149.230469 311.6875 C 149.933594 310.988281 150.324219 310.03125 150.324219 309.046875 L 150.324219 52.734375 C 150.324219 51.765625 149.933594 50.792969 149.230469 50.109375 C 148.542969 49.40625 147.570312 49.003906 146.585938 49.003906 L 146.585938 52.734375 L 142.847656 52.734375 L 142.847656 309.046875 L 146.585938 309.046875 L 146.585938 305.320312 C 112.128906 305.320312 80.964844 291.40625 58.371094 268.871094 C 35.789062 246.351562 21.820312 215.273438 21.820312 180.898438 C 21.820312 146.523438 35.789062 115.445312 58.371094 92.910156 C 80.964844 70.390625 112.128906 56.476562 146.585938 56.460938 L 146.585938 52.734375 L 142.847656 52.734375 L 146.585938 52.734375 "/>
<path style=" stroke:none;fill-rule:nonzero;fill:rgb(94.509888%,28.239441%,47.839355%);fill-opacity:1;" d="M 146.585938 52.734375 C 75.625 52.734375 18.089844 110.121094 18.089844 180.898438 L 146.585938 180.898438 L 146.585938 52.734375 "/>
<path style=" stroke:none;fill-rule:nonzero;fill:rgb(1.568604%,1.959229%,1.959229%);fill-opacity:1;" d="M 146.585938 52.734375 L 146.585938 49.003906 C 73.546875 49.019531 14.351562 108.0625 14.351562 180.898438 C 14.351562 181.882812 14.75 182.835938 15.445312 183.539062 C 16.144531 184.222656 17.105469 184.625 18.089844 184.625 L 146.585938 184.625 C 147.570312 184.625 148.542969 184.222656 149.230469 183.539062 C 149.933594 182.835938 150.324219 181.882812 150.324219 180.898438 L 150.324219 52.734375 C 150.324219 51.765625 149.933594 50.792969 149.230469 50.109375 C 148.542969 49.40625 147.570312 49.003906 146.585938 49.003906 L 146.585938 52.734375 L 142.847656 52.734375 L 142.847656 177.171875 L 18.089844 177.171875 L 18.089844 180.898438 L 21.820312 180.898438 C 21.820312 146.523438 35.789062 115.445312 58.371094 92.910156 C 80.964844 70.390625 112.128906 56.476562 146.585938 56.460938 L 146.585938 52.734375 L 142.847656 52.734375 L 146.585938 52.734375 "/>
<path style=" stroke:none;fill-rule:nonzero;fill:rgb(98.429871%,79.60968%,25.489807%);fill-opacity:1;" d="M 146.585938 180.898438 L 146.585938 52.734375 C 113.328125 52.734375 83.015625 65.351562 60.195312 86.035156 L 146.585938 180.898438 "/>
<path style=" stroke:none;fill-rule:nonzero;fill:rgb(1.568604%,1.959229%,1.959229%);fill-opacity:1;" d="M 146.585938 180.898438 L 150.324219 180.898438 L 150.324219 52.734375 C 150.324219 51.765625 149.933594 50.792969 149.230469 50.109375 C 148.542969 49.40625 147.570312 49.003906 146.585938 49.003906 C 112.371094 49.003906 81.144531 61.996094 57.683594 83.277344 C 56.140625 84.664062 56.035156 87.019531 57.425781 88.539062 L 143.832031 183.402344 C 144.863281 184.550781 146.496094 184.925781 147.945312 184.375 C 149.378906 183.820312 150.324219 182.433594 150.324219 180.898438 L 146.585938 180.898438 L 149.367188 178.394531 L 62.960938 83.53125 L 60.195312 86.035156 L 62.707031 88.792969 C 84.867188 68.707031 114.285156 56.476562 146.585938 56.460938 L 146.585938 52.734375 L 142.847656 52.734375 L 142.847656 180.898438 L 146.585938 180.898438 L 149.367188 178.394531 L 146.585938 180.898438 "/>
<path style=" stroke:none;fill-rule:nonzero;fill:rgb(49.409485%,80.389404%,31.369019%);fill-opacity:1;" d="M 357.199219 251.914062 L 357.199219 321.722656 L 160.386719 321.722656 L 160.386719 251.914062 L 357.199219 251.914062 "/>
<g clip-path="url(#clip1)" clip-rule="nonzero">
<path style=" stroke:none;fill-rule:nonzero;fill:rgb(1.568604%,1.959229%,1.959229%);fill-opacity:1;" d="M 357.199219 251.914062 L 353.460938 251.914062 L 353.460938 317.996094 L 164.125 317.996094 L 164.125 255.644531 L 357.199219 255.644531 L 357.199219 251.914062 L 353.460938 251.914062 L 357.199219 251.914062 L 357.199219 248.1875 L 160.386719 248.1875 C 159.398438 248.1875 158.441406 248.589844 157.738281 249.277344 C 157.050781 249.976562 156.648438 250.929688 156.648438 251.914062 L 156.648438 321.722656 C 156.648438 322.707031 157.050781 323.679688 157.738281 324.363281 C 158.441406 325.066406 159.398438 325.453125 160.386719 325.453125 L 357.199219 325.453125 C 358.1875 325.453125 359.15625 325.066406 359.847656 324.363281 C 360.546875 323.679688 360.9375 322.707031 360.9375 321.722656 L 360.9375 251.914062 C 360.9375 250.929688 360.546875 249.976562 359.847656 249.277344 C 359.15625 248.589844 358.1875 248.1875 357.199219 248.1875 L 357.199219 251.914062 "/>
</g>
<path style=" stroke:none;fill-rule:nonzero;fill:rgb(1.568604%,1.959229%,1.959229%);fill-opacity:1;" d="M 357.199219 264.101562 L 165.710938 264.101562 C 163.632812 264.101562 161.972656 265.785156 161.972656 267.828125 C 161.972656 269.886719 163.632812 271.554688 165.710938 271.554688 L 357.199219 271.554688 C 359.277344 271.554688 360.9375 269.886719 360.9375 267.828125 C 360.9375 265.785156 359.277344 264.101562 357.199219 264.101562 "/>
<path style=" stroke:none;fill-rule:nonzero;fill:rgb(1.568604%,1.959229%,1.959229%);fill-opacity:1;" d="M 357.199219 283.785156 L 160.386719 283.785156 C 158.324219 283.785156 156.648438 285.457031 156.648438 287.511719 C 156.648438 289.570312 158.324219 291.242188 160.386719 291.242188 L 357.199219 291.242188 C 359.277344 291.242188 360.9375 289.570312 360.9375 287.511719 C 360.9375 285.457031 359.277344 283.785156 357.199219 283.785156 "/>
<path style=" stroke:none;fill-rule:nonzero;fill:rgb(1.568604%,1.959229%,1.959229%);fill-opacity:1;" d="M 357.199219 298.535156 L 165.710938 298.535156 C 163.632812 298.535156 161.972656 300.203125 161.972656 302.261719 C 161.972656 304.320312 163.632812 305.992188 165.710938 305.992188 L 357.199219 305.992188 C 359.277344 305.992188 360.9375 304.320312 360.9375 302.261719 C 360.9375 300.203125 359.277344 298.535156 357.199219 298.535156 "/>
<path style=" stroke:none;fill-rule:nonzero;fill:rgb(94.898987%,94.509888%,97.648621%);fill-opacity:1;" d="M 281.410156 321.722656 L 229.535156 321.722656 L 229.535156 251.914062 L 281.410156 251.914062 L 281.410156 321.722656 "/>
<g clip-path="url(#clip2)" clip-rule="nonzero">
<path style=" stroke:none;fill-rule:nonzero;fill:rgb(1.568604%,1.959229%,1.959229%);fill-opacity:1;" d="M 281.410156 321.722656 L 281.410156 317.996094 L 233.273438 317.996094 L 233.273438 255.644531 L 277.65625 255.644531 L 277.671875 321.722656 L 281.410156 321.722656 L 281.410156 317.996094 L 281.410156 321.722656 L 285.148438 321.722656 L 285.148438 251.914062 C 285.148438 250.929688 284.746094 249.976562 284.042969 249.277344 C 283.355469 248.589844 282.382812 248.1875 281.410156 248.1875 L 229.535156 248.1875 C 228.546875 248.1875 227.589844 248.589844 226.886719 249.277344 C 226.199219 249.976562 225.796875 250.929688 225.796875 251.914062 L 225.796875 321.722656 C 225.796875 322.707031 226.199219 323.679688 226.886719 324.363281 C 227.589844 325.066406 228.546875 325.453125 229.535156 325.453125 L 281.410156 325.453125 C 282.382812 325.453125 283.355469 325.066406 284.042969 324.363281 C 284.746094 323.679688 285.148438 322.707031 285.148438 321.722656 L 281.410156 321.722656 "/>
</g>
<path style=" stroke:none;fill-rule:nonzero;fill:rgb(98.429871%,79.60968%,25.489807%);fill-opacity:1;" d="M 310.824219 211.007812 C 310.824219 233.183594 292.792969 251.183594 270.539062 251.183594 C 248.300781 251.183594 230.269531 233.183594 230.269531 211.007812 C 230.269531 188.816406 248.300781 170.847656 270.539062 170.847656 C 292.792969 170.847656 310.824219 188.816406 310.824219 211.007812 "/>
<path style=" stroke:none;fill-rule:nonzero;fill:rgb(1.568604%,1.959229%,1.959229%);fill-opacity:1;" d="M 310.824219 211.007812 L 307.085938 211.007812 C 307.085938 221.089844 303.003906 230.171875 296.378906 236.777344 C 289.753906 243.371094 280.648438 247.441406 270.539062 247.457031 C 260.445312 247.441406 251.324219 243.371094 244.699219 236.777344 C 238.089844 230.171875 234.007812 221.089844 234.007812 211.007812 C 234.007812 200.941406 238.089844 191.84375 244.699219 185.238281 C 251.324219 178.648438 260.445312 174.574219 270.539062 174.574219 C 280.648438 174.574219 289.753906 178.648438 296.378906 185.238281 C 303.003906 191.84375 307.085938 200.941406 307.085938 211.007812 L 314.566406 211.007812 C 314.566406 186.757812 294.855469 167.117188 270.539062 167.117188 C 246.222656 167.117188 226.53125 186.757812 226.53125 211.007812 C 226.53125 235.257812 246.222656 254.898438 270.539062 254.914062 C 294.855469 254.898438 314.566406 235.257812 314.566406 211.007812 L 310.824219 211.007812 "/>
<path style=" stroke:none;fill-rule:nonzero;fill:rgb(91.369629%,51.368713%,13.729858%);fill-opacity:1;" d="M 299.386719 211.007812 C 299.386719 226.890625 286.480469 239.777344 270.539062 239.777344 C 254.613281 239.777344 241.707031 226.890625 241.707031 211.007812 C 241.707031 195.125 254.613281 182.242188 270.539062 182.242188 C 286.480469 182.242188 299.386719 195.125 299.386719 211.007812 "/>
<path style=" stroke:none;fill-rule:nonzero;fill:rgb(1.568604%,1.959229%,1.959229%);fill-opacity:1;" d="M 299.386719 211.007812 L 295.648438 211.007812 C 295.648438 217.929688 292.851562 224.175781 288.289062 228.710938 C 283.742188 233.242188 277.492188 236.046875 270.539062 236.046875 C 263.601562 236.046875 257.351562 233.242188 252.789062 228.710938 C 248.242188 224.175781 245.445312 217.929688 245.445312 211.007812 C 245.445312 204.074219 248.242188 197.839844 252.789062 193.304688 C 257.351562 188.757812 263.601562 185.96875 270.539062 185.96875 C 277.492188 185.96875 283.742188 188.757812 288.289062 193.304688 C 292.851562 197.839844 295.648438 204.074219 295.648438 211.007812 L 303.125 211.007812 C 303.125 193.050781 288.542969 178.511719 270.539062 178.511719 C 252.550781 178.511719 237.96875 193.050781 237.96875 211.007812 C 237.96875 228.949219 252.550781 243.503906 270.539062 243.503906 C 288.542969 243.503906 303.125 228.949219 303.125 211.007812 L 299.386719 211.007812 "/>
<path style=" stroke:none;fill-rule:nonzero;fill:rgb(1.568604%,1.959229%,1.959229%);fill-opacity:1;" d="M 280.8125 203.65625 C 280.859375 203.476562 281.097656 202.550781 281.097656 201.210938 C 281.097656 200.449219 281.023438 199.523438 280.617188 198.453125 C 280.425781 197.914062 280.125 197.332031 279.660156 196.78125 C 279.214844 196.214844 278.601562 195.707031 277.898438 195.347656 C 277.34375 195.082031 276.910156 194.933594 276.417969 194.78125 C 275.683594 194.589844 274.90625 194.425781 274.023438 194.304688 C 273.15625 194.199219 272.199219 194.113281 271.210938 194.113281 C 269.492188 194.125 267.636719 194.304688 265.753906 195.125 C 264.8125 195.558594 263.839844 196.199219 263.03125 197.167969 C 262.226562 198.136719 261.6875 199.449219 261.582031 200.777344 L 261.582031 200.761719 C 261.550781 201.152344 261.523438 201.523438 261.523438 201.894531 C 261.523438 204.773438 262.507812 207.265625 263.808594 209.160156 C 265.125 211.054688 266.679688 212.410156 268.355469 213.289062 C 269.222656 213.722656 270.675781 214.601562 271.675781 215.496094 C 272.167969 215.929688 272.574219 216.378906 272.738281 216.644531 C 272.828125 216.78125 272.871094 216.871094 272.871094 216.882812 L 273.082031 216.808594 L 272.859375 216.839844 L 272.871094 216.882812 L 273.082031 216.808594 L 272.859375 216.839844 L 273.621094 216.707031 L 272.84375 216.707031 L 272.859375 216.839844 L 273.621094 216.707031 L 272.84375 216.707031 C 272.84375 217.539062 272.886719 218.332031 272.886719 219.03125 C 272.886719 219.554688 272.871094 220.03125 272.8125 220.375 C 272.796875 220.628906 272.738281 220.820312 272.707031 220.910156 L 272.691406 220.96875 L 272.679688 220.96875 L 273.425781 221.359375 L 272.960938 220.6875 C 272.796875 220.804688 272.679688 220.96875 272.679688 220.96875 L 273.425781 221.359375 L 272.960938 220.6875 L 273.484375 221.433594 L 273.171875 220.566406 L 272.960938 220.6875 L 273.484375 221.433594 L 273.171875 220.566406 L 273.304688 220.925781 L 273.214844 220.566406 L 273.171875 220.566406 L 273.304688 220.925781 L 273.214844 220.566406 L 273.1875 220.566406 C 272.09375 220.703125 270.898438 220.835938 269.851562 220.820312 C 269.269531 220.835938 268.730469 220.792969 268.339844 220.703125 C 268.058594 220.640625 267.847656 220.566406 267.742188 220.523438 C 267.5625 220.417969 267.625 220.449219 267.609375 220.433594 C 267.59375 220.402344 267.472656 220.226562 267.472656 219.570312 L 264.003906 219.570312 L 267.445312 219.898438 C 267.472656 219.65625 267.472656 219.570312 267.472656 219.570312 L 264.003906 219.570312 L 267.445312 219.898438 C 267.636719 217.839844 266.128906 216.019531 264.0625 215.839844 C 262.015625 215.644531 260.191406 217.152344 260.011719 219.210938 C 259.980469 219.449219 259.996094 219.570312 259.996094 219.570312 C 259.996094 221.058594 260.265625 222.507812 260.925781 223.773438 C 261.402344 224.726562 262.074219 225.5625 262.851562 226.191406 C 264.003906 227.144531 265.289062 227.652344 266.472656 227.933594 C 267.667969 228.203125 268.789062 228.277344 269.851562 228.277344 C 271.496094 228.277344 272.976562 228.097656 274.054688 227.964844 C 275.28125 227.832031 276.535156 227.382812 277.523438 226.609375 C 278.257812 226.027344 278.824219 225.324219 279.214844 224.625 C 279.796875 223.566406 280.050781 222.535156 280.199219 221.597656 C 280.335938 220.671875 280.363281 219.820312 280.363281 219.03125 C 280.363281 218.105469 280.320312 217.285156 280.320312 216.707031 C 280.320312 215.871094 280.171875 215.09375 279.914062 214.410156 C 279.496094 213.214844 278.855469 212.261719 278.152344 211.457031 C 277.121094 210.234375 275.9375 209.292969 274.816406 208.503906 C 273.695312 207.710938 272.617188 207.085938 271.75 206.652344 L 271.765625 206.652344 C 271.40625 206.488281 270.570312 205.832031 269.988281 204.96875 C 269.402344 204.089844 269 203.058594 269 201.894531 C 269 201.761719 269.015625 201.597656 269.03125 201.433594 L 268.160156 201.359375 L 268.820312 201.894531 L 269.03125 201.433594 L 268.160156 201.359375 L 268.820312 201.894531 L 268.339844 201.492188 L 268.730469 201.972656 L 268.820312 201.894531 L 268.339844 201.492188 L 268.730469 201.972656 L 268.65625 201.882812 L 268.730469 201.984375 L 268.730469 201.972656 L 268.65625 201.882812 L 268.730469 201.984375 C 268.730469 201.972656 269 201.820312 269.476562 201.730469 C 269.925781 201.628906 270.570312 201.566406 271.210938 201.566406 C 272.035156 201.566406 272.902344 201.65625 273.558594 201.777344 C 273.890625 201.835938 274.171875 201.910156 274.367188 201.957031 L 274.546875 202.015625 L 274.578125 202.03125 L 274.890625 201.195312 L 274.503906 201.984375 L 274.578125 202.03125 L 274.890625 201.195312 L 274.503906 201.984375 L 275.371094 200.269531 L 273.875 201.492188 C 274.023438 201.671875 274.261719 201.867188 274.503906 201.984375 L 275.371094 200.269531 L 273.875 201.492188 L 274.847656 200.703125 L 273.605469 201 C 273.621094 201.03125 273.648438 201.210938 273.875 201.492188 L 274.847656 200.703125 L 273.605469 201 L 273.621094 201.210938 C 273.621094 201.375 273.589844 201.597656 273.574219 201.730469 L 273.546875 201.882812 L 273.546875 201.894531 L 275.445312 202.328125 L 273.558594 201.867188 L 273.546875 201.894531 L 275.445312 202.328125 L 273.558594 201.867188 C 273.050781 203.863281 274.292969 205.894531 276.296875 206.386719 C 278.285156 206.878906 280.320312 205.65625 280.8125 203.65625 "/>
<path style=" stroke:none;fill-rule:nonzero;fill:rgb(1.568604%,1.959229%,1.959229%);fill-opacity:1;" d="M 267.054688 194.261719 L 267.054688 197.839844 C 267.054688 199.914062 268.714844 201.566406 270.792969 201.566406 C 272.84375 201.566406 274.53125 199.914062 274.53125 197.839844 L 274.53125 194.261719 C 274.53125 192.203125 272.84375 190.53125 270.792969 190.53125 C 268.714844 190.53125 267.054688 192.203125 267.054688 194.261719 "/>
<path style=" stroke:none;fill-rule:nonzero;fill:rgb(1.568604%,1.959229%,1.959229%);fill-opacity:1;" d="M 266.621094 224.566406 L 266.621094 227.757812 C 266.621094 229.8125 268.296875 231.484375 270.359375 231.484375 C 272.4375 231.484375 274.097656 229.8125 274.097656 227.757812 L 274.097656 224.566406 C 274.097656 222.507812 272.4375 220.835938 270.359375 220.835938 C 268.296875 220.835938 266.621094 222.507812 266.621094 224.566406 "/>
</g>
</svg>
