<?xml version="1.0" encoding="UTF-8"?>
<svg xmlns="http://www.w3.org/2000/svg" xmlns:xlink="http://www.w3.org/1999/xlink" width="375pt" height="374.999991pt" viewBox="0 0 375 374.999991" version="1.2">
<defs>
<clipPath id="clip1">
  <path d="M 43.402344 23 L 323 23 L 323 356 L 43.402344 356 Z M 43.402344 23 "/>
</clipPath>
<clipPath id="clip2">
  <path d="M 43.402344 16 L 302 16 L 302 354 L 43.402344 354 Z M 43.402344 16 "/>
</clipPath>
</defs>
<g id="surface1">
<path style=" stroke:none;fill-rule:nonzero;fill:rgb(87.059021%,86.268616%,88.238525%);fill-opacity:1;" d="M 296.035156 35.484375 L 300.613281 92.722656 L 297.675781 185.867188 C 297.675781 185.867188 66.507812 334.679688 65.347656 335.09375 C 64.183594 335.503906 65.347656 245.570312 64.9375 195.648438 C 64.527344 145.726562 92.601562 152.699219 99.773438 146.339844 Z M 296.035156 35.484375 "/>
<g clip-path="url(#clip1)" clip-rule="nonzero">
<path style=" stroke:none;fill-rule:nonzero;fill:rgb(9.408569%,17.649841%,53.329468%);fill-opacity:1;" d="M 318.714844 173.285156 L 311.679688 182.382812 L 303.414062 170.890625 L 303.003906 170.6875 L 303.003906 31.585938 C 303.003906 28.644531 301.160156 26.320312 298.769531 25.363281 C 296.992188 24.679688 289.75 22.285156 287.835938 23.378906 L 71.21875 146.203125 C 61.179688 152.015625 59.609375 167.746094 51.75 175.816406 L 43.757812 334.957031 C 51.683594 341.519531 61.109375 352.394531 63.363281 353.898438 C 65.890625 355.609375 69.375 356.019531 72.449219 354.242188 L 132.222656 319.703125 C 132.359375 319.839844 132.566406 319.976562 132.769531 320.113281 L 167.265625 339.878906 C 170 341.453125 173.414062 341.453125 176.148438 339.878906 L 252.65625 295.699219 C 253.683594 295.152344 254.160156 293.992188 254.160156 293.101562 L 254.160156 285.578125 L 256.347656 281.886719 L 218.160156 285.167969 L 218.089844 270.054688 L 245.6875 254.121094 L 259.554688 256.445312 L 260.238281 245.777344 L 289.613281 228.816406 C 296.101562 225.054688 300.613281 218.902344 302.320312 211.789062 L 314.890625 203.101562 L 322.402344 175.40625 Z M 171.777344 194.210938 L 171.433594 194.007812 L 171.433594 187.101562 L 174.78125 185.183594 Z M 198.828125 186.621094 L 182.160156 180.875 L 198.828125 171.164062 Z M 198.828125 170.34375 L 181.269531 180.535156 L 180.589844 180.328125 L 177.035156 178.277344 L 175.125 184.160156 L 171.433594 186.277344 L 171.433594 154.820312 L 198.828125 138.886719 Z M 198.828125 138.066406 L 171.367188 154 L 171.367188 121.925781 L 198.757812 106.058594 L 198.757812 138.066406 Z M 199.511719 185.867188 L 199.511719 170.753906 L 204.222656 168.019531 Z M 226.902344 161.179688 L 221.371094 158.101562 L 226.902344 154.890625 Z M 226.902344 154 L 220.617188 157.625 L 212.285156 152.972656 L 208.734375 150.921875 L 204.496094 166.992188 L 199.511719 169.867188 L 199.511719 138.40625 L 226.902344 122.472656 Z M 226.902344 121.722656 L 199.511719 137.65625 L 199.511719 105.71875 L 226.902344 89.851562 Z M 227.65625 160.839844 L 227.65625 154.410156 L 234.964844 150.171875 Z M 255.046875 155.710938 L 235.714844 149.691406 L 255.046875 138.476562 Z M 255.046875 137.65625 L 227.65625 153.589844 L 227.65625 122.132812 L 255.046875 106.195312 Z M 255.046875 105.375 L 227.65625 121.308594 L 227.65625 89.441406 L 255.046875 73.574219 Z M 259.421875 157.078125 L 255.800781 155.914062 L 255.800781 138.066406 L 268.914062 130.40625 Z M 283.191406 162.617188 L 276.496094 182.65625 L 276.292969 182.519531 L 274.859375 159.265625 L 283.261719 154.410156 L 283.261719 162.617188 Z M 283.191406 153.589844 L 274.789062 158.511719 L 273.082031 130.886719 L 270.625 129.515625 L 283.191406 122.199219 Z M 283.191406 121.308594 L 269.871094 129.039062 L 269.460938 128.832031 L 269.257812 129.378906 L 255.730469 137.246094 L 255.730469 105.785156 L 283.125 89.851562 L 283.125 121.308594 Z M 283.191406 88.964844 L 255.800781 104.898438 L 255.800781 73.164062 L 283.191406 57.300781 Z M 294.464844 174.515625 L 291.320312 150.921875 L 287.769531 148.871094 L 283.875 160.429688 L 283.875 56.066406 L 142.742188 137.65625 L 142.539062 137.792969 L 142.539062 268.6875 L 173.894531 250.5625 L 172.253906 258.429688 L 69.71875 317.722656 L 69.71875 183.679688 C 69.71875 174.996094 74.363281 166.925781 81.878906 162.617188 L 289.136719 42.734375 C 291.527344 41.363281 294.464844 43.074219 294.464844 45.808594 Z M 154.835938 229.023438 L 148.207031 260.410156 L 151.761719 262.464844 L 151.761719 262.53125 L 143.222656 267.457031 L 143.222656 235.792969 Z M 143.289062 234.902344 L 143.289062 203.445312 L 162.691406 192.160156 L 155.109375 228.0625 Z M 165.148438 190.722656 L 170.683594 187.511719 L 170.683594 193.664062 Z M 164.398438 190.3125 L 163.167969 189.628906 L 162.828125 191.203125 L 143.222656 202.625 L 143.222656 171.164062 L 170.613281 155.230469 L 170.613281 186.691406 Z M 143.289062 170.34375 L 143.289062 138.203125 L 170.683594 122.335938 L 170.683594 154.410156 Z M 136.046875 268.070312 C 135.980469 268.824219 135.777344 269.574219 135.296875 270.328125 C 134.75 271.285156 134 272.039062 133.109375 272.515625 C 132.359375 272.925781 131.8125 273.0625 131.335938 272.925781 C 130.925781 272.789062 130.652344 272.378906 130.652344 271.765625 L 131.675781 271.082031 C 131.746094 271.558594 131.882812 271.832031 132.15625 271.902344 C 132.429688 271.96875 132.769531 271.902344 133.179688 271.695312 C 133.65625 271.421875 134.066406 271.011719 134.410156 270.464844 C 134.75 269.917969 134.957031 269.371094 135.023438 268.753906 C 135.09375 268.207031 134.957031 267.867188 134.613281 267.730469 C 134.339844 267.59375 133.929688 267.660156 133.382812 267.933594 C 133.042969 268.140625 132.769531 268.34375 132.496094 268.617188 C 132.222656 268.890625 132.019531 269.234375 131.882812 269.507812 L 130.925781 269.917969 L 131.949219 265.335938 L 135.980469 263.011719 L 135.910156 263.96875 L 132.703125 265.816406 L 132.15625 268.207031 C 132.632812 267.59375 133.179688 267.113281 133.726562 266.839844 C 134.410156 266.429688 135.023438 266.292969 135.433594 266.5 C 135.84375 266.839844 136.046875 267.320312 136.046875 268.070312 Z M 127.78125 232.167969 L 128.398438 231.824219 L 127.917969 239.894531 L 126.894531 240.441406 L 127.304688 234.152344 C 127.03125 234.492188 126.691406 234.902344 126.347656 235.382812 C 125.9375 235.859375 125.597656 236.203125 125.253906 236.476562 L 125.324219 235.519531 C 125.871094 234.972656 126.417969 234.355469 126.828125 233.742188 C 127.304688 233.125 127.644531 232.578125 127.78125 232.167969 Z M 135.503906 228.613281 C 135.296875 228.40625 135.023438 228.339844 134.75 228.339844 C 134.410156 228.339844 134.066406 228.476562 133.65625 228.75 C 133.042969 229.089844 132.566406 229.5 132.15625 230.046875 C 131.746094 230.59375 131.402344 231.210938 131.199219 231.894531 C 130.992188 232.578125 130.789062 233.398438 130.789062 234.355469 C 130.71875 235.859375 130.925781 236.816406 131.402344 237.160156 C 131.8125 237.433594 132.429688 237.363281 133.179688 236.953125 C 133.792969 236.613281 134.273438 236.203125 134.683594 235.65625 C 135.09375 235.109375 135.433594 234.492188 135.640625 233.808594 C 135.84375 233.125 136.046875 232.304688 136.046875 231.347656 C 136.117188 230.527344 136.046875 229.980469 135.980469 229.570312 C 135.84375 229.160156 135.707031 228.816406 135.503906 228.613281 Z M 134.957031 231.894531 C 134.886719 233.195312 134.683594 234.152344 134.339844 234.765625 C 134 235.382812 133.589844 235.792969 133.179688 236.066406 C 132.703125 236.339844 132.359375 236.339844 132.085938 236.066406 C 131.8125 235.792969 131.675781 235.039062 131.8125 233.742188 C 131.882812 232.441406 132.15625 231.414062 132.496094 230.730469 C 132.769531 230.183594 133.179688 229.773438 133.65625 229.5 C 134.136719 229.226562 134.476562 229.226562 134.75 229.5 C 134.957031 229.84375 135.09375 230.59375 134.957031 231.894531 Z M 126.964844 208.4375 L 127.371094 202.144531 C 127.101562 202.488281 126.757812 202.898438 126.417969 203.375 C 126.007812 203.855469 125.664062 204.195312 125.324219 204.46875 L 125.390625 203.511719 C 125.9375 202.964844 126.484375 202.351562 126.894531 201.734375 C 127.304688 201.121094 127.644531 200.574219 127.851562 200.160156 L 128.464844 199.820312 L 127.988281 207.890625 Z M 134.410156 202.964844 C 134.75 202.417969 134.957031 201.871094 135.023438 201.257812 C 135.09375 200.710938 134.957031 200.367188 134.613281 200.230469 C 134.339844 200.09375 133.929688 200.160156 133.382812 200.4375 C 133.042969 200.640625 132.769531 200.847656 132.496094 201.1875 C 132.222656 201.460938 132.019531 201.804688 131.882812 202.078125 L 130.925781 202.488281 L 131.949219 197.90625 L 135.980469 195.578125 L 135.910156 196.539062 L 132.703125 198.382812 L 132.15625 200.777344 C 132.632812 200.160156 133.179688 199.683594 133.726562 199.410156 C 134.410156 199 135.023438 198.863281 135.503906 199.066406 C 135.980469 199.273438 136.183594 199.75 136.117188 200.503906 C 136.046875 201.257812 135.84375 202.007812 135.367188 202.761719 C 134.820312 203.71875 134.066406 204.46875 133.179688 204.949219 C 132.429688 205.359375 131.882812 205.496094 131.402344 205.359375 C 130.992188 205.222656 130.71875 204.8125 130.71875 204.195312 L 131.746094 203.511719 C 131.8125 203.992188 131.949219 204.265625 132.222656 204.332031 C 132.496094 204.402344 132.839844 204.332031 133.246094 204.128906 C 133.589844 203.921875 134 203.511719 134.410156 202.964844 Z M 129.765625 169.320312 C 129.765625 169.660156 129.628906 170.003906 129.492188 170.34375 C 129.355469 170.753906 129.082031 171.164062 128.738281 171.710938 C 128.398438 172.257812 127.851562 173.011719 127.101562 174.039062 C 126.484375 174.859375 126.074219 175.40625 125.871094 175.679688 C 125.664062 175.953125 125.527344 176.226562 125.390625 176.429688 L 129.355469 174.105469 L 129.285156 175.0625 L 123.957031 178.140625 C 123.957031 177.9375 124.027344 177.664062 124.09375 177.390625 C 124.230469 176.976562 124.503906 176.5 124.84375 175.953125 C 125.1875 175.40625 125.597656 174.789062 126.210938 173.96875 C 127.167969 172.738281 127.78125 171.847656 128.125 171.234375 C 128.464844 170.617188 128.671875 170.140625 128.671875 169.796875 C 128.671875 169.386719 128.601562 169.183594 128.328125 169.046875 C 128.054688 168.910156 127.714844 169.046875 127.238281 169.25 C 126.757812 169.523438 126.347656 169.867188 126.074219 170.34375 C 125.800781 170.824219 125.597656 171.300781 125.597656 171.78125 L 124.570312 172.257812 C 124.707031 171.4375 124.980469 170.753906 125.460938 170.070312 C 125.9375 169.386719 126.554688 168.839844 127.304688 168.429688 C 128.054688 167.953125 128.671875 167.8125 129.082031 168.019531 C 129.628906 168.292969 129.832031 168.636719 129.765625 169.320312 Z M 135.503906 164.804688 C 135.296875 164.601562 135.023438 164.53125 134.75 164.53125 C 134.410156 164.53125 134.066406 164.667969 133.65625 164.941406 C 133.042969 165.285156 132.566406 165.695312 132.15625 166.242188 C 131.746094 166.789062 131.402344 167.402344 131.199219 168.089844 C 130.992188 168.773438 130.789062 169.59375 130.789062 170.550781 C 130.71875 172.054688 130.925781 173.011719 131.402344 173.355469 C 131.8125 173.628906 132.429688 173.558594 133.179688 173.148438 C 133.792969 172.808594 134.273438 172.394531 134.683594 171.847656 C 135.09375 171.300781 135.433594 170.6875 135.640625 170.003906 C 135.84375 169.320312 136.046875 168.5 136.046875 167.539062 C 136.117188 166.71875 136.046875 166.171875 135.980469 165.761719 C 135.84375 165.285156 135.707031 165.011719 135.503906 164.804688 Z M 134.957031 168.089844 C 134.886719 169.386719 134.683594 170.34375 134.339844 170.960938 C 134 171.574219 133.589844 171.984375 133.179688 172.257812 C 132.703125 172.535156 132.359375 172.535156 132.085938 172.257812 C 131.8125 171.984375 131.675781 171.234375 131.8125 169.933594 C 131.882812 168.636719 132.15625 167.609375 132.496094 166.925781 C 132.769531 166.378906 133.179688 165.96875 133.65625 165.695312 C 134.136719 165.421875 134.476562 165.421875 134.75 165.695312 C 134.957031 165.96875 135.09375 166.71875 134.957031 168.089844 Z M 134.957031 168.089844 "/>
</g>
<path style=" stroke:none;fill-rule:nonzero;fill:rgb(88.62915%,58.039856%,9.01947%);fill-opacity:1;" d="M 198.484375 302.8125 L 200.601562 305.890625 L 200.601562 313.480469 C 200.671875 316.902344 198.417969 320.386719 193.910156 322.988281 C 190.355469 325.039062 185.917969 326.269531 181.269531 326.679688 C 174.304688 329.347656 165.082031 327.433594 159.683594 324.355469 C 155.175781 321.824219 151.554688 317.722656 151.554688 314.300781 L 154.628906 306.710938 L 154.628906 305.890625 L 157.292969 302.058594 C 158.046875 301.445312 162.074219 297.683594 162.964844 297.136719 C 171.914062 291.9375 186.121094 293.511719 195.070312 298.710938 C 196.027344 299.257812 197.734375 302.195312 198.484375 302.8125 Z M 153.125 328.800781 C 144.179688 323.601562 130.992188 323.601562 122.042969 328.800781 C 121.089844 329.347656 118.765625 332.765625 118.015625 333.382812 L 114.667969 337.074219 L 114.667969 344.734375 C 114.667969 348.152344 116.921875 351.574219 121.363281 354.171875 C 130.308594 359.371094 144.996094 359.371094 153.945312 354.171875 C 158.453125 351.574219 160.710938 348.085938 160.640625 344.667969 L 160.640625 337.074219 L 157.292969 333.039062 C 156.542969 332.425781 154.082031 329.347656 153.125 328.800781 Z M 331.695312 258.292969 C 330.941406 257.675781 326.570312 254.257812 325.613281 253.710938 C 316.664062 248.511719 304.027344 250.222656 295.078125 255.351562 C 294.121094 255.898438 292.621094 258.496094 291.9375 259.042969 L 288.863281 262.394531 L 288.863281 267.457031 L 288.382812 267.457031 C 288.65625 266.566406 288.863281 265.679688 288.863281 264.789062 L 288.863281 257.128906 L 285.855469 252.546875 C 285.105469 251.933594 280.597656 248.648438 279.707031 248.101562 C 274.039062 244.820312 267.003906 244.339844 260.238281 245.707031 L 245.6875 254.121094 L 242.820312 257.128906 L 242.820312 264.71875 C 242.820312 266.910156 243.640625 269.097656 245.484375 271.082031 L 245.484375 275.046875 C 245.414062 278.464844 247.464844 283.183594 254.160156 282.910156 C 254.160156 284.210938 254.089844 284.828125 254.160156 285.648438 C 263.175781 289.820312 276.429688 289.476562 284.761719 284.621094 C 288.792969 282.296875 290.980469 279.355469 291.390625 276.277344 C 292.414062 277.441406 293.847656 278.535156 295.558594 279.5625 C 304.503906 284.757812 319.191406 284.757812 328.140625 279.5625 C 332.648438 276.960938 334.835938 273.542969 334.835938 270.125 L 334.835938 262.464844 Z M 276.496094 182.65625 L 280.050781 171.984375 L 280.050781 142.785156 L 273.015625 130.816406 L 262.972656 159.0625 L 238.925781 151.605469 L 230.867188 163.371094 L 212.351562 152.972656 L 202.859375 188.808594 L 180.589844 180.328125 L 175.328125 196.332031 L 166.789062 191.75 L 151.828125 262.464844 L 174.167969 249.539062 L 182.023438 211.71875 L 195.617188 197.632812 L 198.347656 190.175781 L 218.5 191.886719 L 224.648438 178.6875 L 239.542969 184.023438 L 250.335938 167.609375 Z M 276.496094 182.65625 "/>
<g clip-path="url(#clip2)" clip-rule="nonzero">
<path style=" stroke:none;fill-rule:nonzero;fill:rgb(46.669006%,55.288696%,98.81897%);fill-opacity:1;" d="M 63.363281 353.898438 L 47.859375 344.941406 C 45.398438 343.503906 43.621094 340.835938 43.621094 337.554688 L 44.03125 170.070312 C 44.03125 158.511719 50.25 147.777344 60.289062 142.03125 L 277.796875 17.019531 C 279.980469 15.789062 282.371094 15.925781 284.355469 16.949219 L 284.421875 17.019531 C 284.492188 17.019531 284.492188 17.085938 284.558594 17.085938 L 298.769531 25.363281 C 296.992188 24.679688 294.875 24.679688 292.960938 25.773438 L 75.796875 151.332031 C 65.753906 157.144531 59.609375 167.8125 59.609375 179.441406 L 59.609375 346.921875 C 59.609375 349.933594 61.109375 352.394531 63.363281 353.898438 Z M 252.589844 285.511719 L 200.332031 315.738281 C 200.535156 314.984375 200.601562 314.234375 200.601562 313.550781 L 200.601562 305.957031 L 198.484375 302.882812 C 197.734375 302.265625 196.027344 299.324219 195.136719 298.777344 C 190.015625 295.835938 183.253906 294.058594 176.695312 294.058594 L 191.65625 285.441406 L 194.046875 286.808594 L 218.089844 270.125 L 226.5625 265.265625 L 252.589844 280.3125 C 254.636719 281.40625 254.636719 284.347656 252.589844 285.511719 Z M 161.324219 323.054688 C 156.816406 320.457031 154.628906 317.039062 154.628906 313.617188 L 154.628906 306.710938 L 140.898438 314.644531 L 167.199219 329.757812 C 169.929688 331.332031 173.347656 331.332031 176.078125 329.757812 L 181.269531 326.75 C 174.234375 327.363281 166.71875 326.132812 161.324219 323.054688 Z M 211.601562 229.980469 L 215.152344 232.03125 L 221.644531 236.75 L 228.816406 213.839844 L 257.164062 225.875 L 263.585938 222.183594 L 269.460938 211.171875 L 282.644531 211.171875 L 283.808594 210.488281 L 299.859375 168.910156 L 301.226562 169.660156 L 301.226562 158.855469 L 291.390625 150.921875 L 280.117188 184.707031 L 253.953125 169.59375 L 243.160156 186.003906 L 228.269531 180.671875 L 222.121094 193.871094 L 201.96875 192.230469 L 199.238281 199.683594 L 185.507812 213.769531 L 172.867188 274.566406 L 200.535156 258.566406 Z M 211.601562 229.980469 "/>
</g>
<path style=" stroke:none;fill-rule:nonzero;fill:rgb(99.609375%,81.17981%,27.839661%);fill-opacity:1;" d="M 328.074219 253.230469 C 319.125 248.035156 304.4375 248.035156 295.488281 253.230469 C 291.457031 255.554688 289.273438 258.566406 288.863281 261.574219 C 288.863281 261.574219 288.792969 261.507812 288.792969 261.507812 L 288.792969 264.855469 C 288.792969 268.277344 286.539062 271.695312 282.097656 274.292969 C 273.152344 279.492188 258.464844 279.492188 249.515625 274.292969 C 248.558594 273.746094 247.738281 273.132812 246.988281 272.515625 C 248.082031 274.226562 249.855469 275.800781 252.179688 277.167969 C 261.128906 282.363281 275.816406 282.363281 284.761719 277.167969 C 288.792969 274.84375 290.980469 271.832031 291.390625 268.824219 C 292.414062 269.988281 293.847656 271.082031 295.558594 272.105469 C 304.503906 277.304688 319.191406 277.304688 328.140625 272.105469 C 337.089844 266.910156 337.023438 258.429688 328.074219 253.230469 Z M 307.988281 268.890625 L 307.988281 270.261719 C 307.988281 270.398438 307.921875 270.535156 307.714844 270.601562 C 307.578125 270.738281 307.375 270.738281 307.171875 270.808594 C 306.964844 270.808594 306.761719 270.738281 306.488281 270.601562 L 301.433594 267.660156 C 301.226562 267.523438 301.089844 267.386719 301.089844 267.25 L 301.089844 265.882812 C 301.089844 266.019531 301.160156 266.15625 301.433594 266.292969 L 306.488281 269.234375 C 306.691406 269.371094 306.964844 269.4375 307.171875 269.4375 C 307.375 269.4375 307.578125 269.371094 307.714844 269.234375 C 307.921875 269.097656 307.988281 269.027344 307.988281 268.890625 Z M 313.660156 256.378906 C 313.453125 256.242188 313.316406 256.105469 313.316406 255.964844 C 313.316406 255.964844 313.316406 255.898438 313.316406 255.898438 C 313.316406 255.898438 313.316406 254.941406 313.316406 254.734375 C 313.386719 254.804688 313.453125 254.941406 313.660156 255.007812 L 314.207031 255.351562 L 313.726562 256.378906 Z M 321.515625 259.589844 L 322.472656 260.136719 L 321.175781 260.410156 L 321.175781 259.179688 C 321.175781 259.316406 321.3125 259.453125 321.515625 259.589844 Z M 317.757812 257.539062 C 317.757812 257.675781 317.691406 257.8125 317.484375 257.882812 C 317.28125 258.019531 317.144531 258.085938 316.9375 258.085938 C 316.734375 258.085938 316.527344 258.019531 316.253906 257.882812 L 315.300781 257.335938 L 313.042969 262.121094 L 312.363281 262.257812 L 315.300781 255.964844 L 316.253906 256.515625 C 316.460938 256.652344 316.734375 256.71875 316.9375 256.71875 C 317.144531 256.71875 317.347656 256.652344 317.484375 256.515625 C 317.691406 256.378906 317.757812 256.308594 317.757812 256.171875 Z M 307.171875 260.890625 C 307.171875 260.960938 307.238281 261.097656 307.375 261.164062 L 310.449219 262.941406 L 309.355469 263.625 L 307.375 262.464844 C 307.238281 262.394531 307.171875 262.257812 307.171875 262.191406 Z M 304.4375 263.078125 L 307.511719 264.855469 L 306.417969 265.542969 L 304.4375 264.378906 C 304.300781 264.308594 304.234375 264.171875 304.234375 264.105469 L 304.234375 262.738281 C 304.164062 262.875 304.300781 263.011719 304.4375 263.078125 Z M 312.703125 268.277344 C 312.703125 268.34375 312.636719 268.480469 312.5 268.550781 C 312.363281 268.617188 312.226562 268.6875 312.089844 268.6875 C 311.953125 268.6875 311.746094 268.617188 311.609375 268.550781 L 308.535156 266.773438 L 306.761719 267.933594 L 305.667969 267.320312 L 308.535156 265.472656 L 311.609375 267.25 C 311.746094 267.320312 311.953125 267.386719 312.089844 267.386719 C 312.226562 267.386719 312.363281 267.320312 312.5 267.25 C 312.636719 267.183594 312.703125 267.113281 312.703125 266.976562 Z M 315.640625 266.363281 C 315.640625 266.429688 315.574219 266.566406 315.4375 266.636719 C 315.300781 266.703125 315.164062 266.773438 315.027344 266.773438 C 314.890625 266.773438 314.753906 266.703125 314.546875 266.636719 L 311.472656 264.855469 L 310.378906 265.542969 L 309.289062 264.925781 L 311.472656 263.488281 L 314.546875 265.265625 C 314.683594 265.335938 314.890625 265.40625 315.027344 265.40625 C 315.164062 265.40625 315.300781 265.335938 315.4375 265.265625 C 315.574219 265.199219 315.640625 265.128906 315.640625 264.992188 Z M 325.613281 262.054688 C 325.613281 262.191406 325.546875 262.328125 325.339844 262.394531 C 325.136719 262.53125 325 262.601562 324.792969 262.601562 C 324.589844 262.601562 324.382812 262.53125 324.113281 262.394531 L 323.566406 262.054688 L 314.273438 264.035156 L 312.566406 263.078125 L 323.496094 260.753906 L 324.042969 261.097656 C 324.246094 261.234375 324.519531 261.300781 324.726562 261.300781 C 324.929688 261.300781 325.136719 261.234375 325.273438 261.097656 C 325.476562 260.960938 325.546875 260.890625 325.546875 260.753906 L 325.546875 262.054688 Z M 331.351562 263.558594 C 331.011719 260.960938 329.097656 258.429688 325.683594 256.445312 C 318.03125 252 305.53125 252 297.878906 256.445312 C 294.464844 258.429688 292.550781 260.960938 292.210938 263.558594 C 291.800781 260.34375 293.644531 257.0625 297.878906 254.597656 C 305.53125 250.152344 318.03125 250.152344 325.683594 254.597656 C 329.917969 257.0625 331.832031 260.34375 331.351562 263.558594 Z M 249.515625 266.773438 C 258.464844 271.96875 273.152344 271.96875 282.097656 266.773438 C 291.046875 261.574219 291.046875 253.09375 282.097656 247.964844 C 278.136719 245.640625 272.945312 244.410156 267.753906 244.136719 L 322.335938 212.539062 L 322.335938 175.269531 L 315.300781 184.363281 L 303.480469 170.890625 L 287.222656 213.15625 L 273.152344 213.15625 L 264.40625 229.433594 L 232.367188 215.824219 L 225.195312 238.734375 L 215.152344 231.960938 L 194.660156 285.03125 L 194.046875 286.671875 L 242.886719 258.429688 C 243.296875 261.507812 245.484375 264.515625 249.515625 266.773438 Z M 267.617188 251.109375 C 267.414062 250.972656 267.277344 250.835938 267.277344 250.699219 C 267.277344 250.699219 267.277344 250.632812 267.277344 250.632812 C 267.277344 250.632812 267.277344 249.675781 267.277344 249.46875 C 267.34375 249.539062 267.414062 249.675781 267.617188 249.742188 L 268.164062 250.085938 L 267.6875 251.109375 Z M 275.542969 254.324219 L 276.496094 254.871094 L 275.199219 255.144531 L 275.199219 253.914062 C 275.199219 254.050781 275.269531 254.1875 275.542969 254.324219 Z M 271.714844 252.273438 C 271.714844 252.410156 271.648438 252.546875 271.441406 252.617188 C 271.238281 252.753906 271.101562 252.820312 270.894531 252.820312 C 270.691406 252.820312 270.488281 252.753906 270.214844 252.617188 L 269.257812 252.070312 L 267.003906 256.855469 L 266.320312 256.992188 L 269.257812 250.699219 L 270.214844 251.246094 C 270.417969 251.386719 270.691406 251.453125 270.894531 251.453125 C 271.101562 251.453125 271.304688 251.382812 271.441406 251.246094 C 271.648438 251.109375 271.714844 251.042969 271.714844 250.90625 Z M 261.195312 255.625 C 261.195312 255.691406 261.265625 255.828125 261.402344 255.898438 L 264.476562 257.675781 L 263.382812 258.359375 L 261.402344 257.199219 C 261.265625 257.128906 261.195312 256.992188 261.195312 256.925781 Z M 258.394531 257.8125 L 261.46875 259.589844 L 260.375 260.273438 L 258.394531 259.113281 C 258.257812 259.042969 258.191406 258.90625 258.191406 258.839844 L 258.191406 257.472656 C 258.191406 257.675781 258.257812 257.746094 258.394531 257.8125 Z M 262.015625 264.925781 C 262.015625 265.0625 261.949219 265.199219 261.742188 265.265625 C 261.605469 265.40625 261.402344 265.40625 261.195312 265.472656 C 260.992188 265.472656 260.785156 265.40625 260.511719 265.265625 L 255.457031 262.328125 C 255.253906 262.191406 255.117188 262.054688 255.117188 261.917969 L 255.117188 260.546875 C 255.117188 260.6875 255.183594 260.824219 255.457031 260.960938 L 260.511719 263.898438 C 260.71875 264.035156 260.992188 264.105469 261.195312 264.105469 C 261.402344 264.105469 261.605469 264.035156 261.742188 263.898438 C 261.949219 263.761719 262.015625 263.695312 262.015625 263.558594 Z M 266.660156 263.011719 C 266.660156 263.078125 266.59375 263.214844 266.457031 263.285156 C 266.320312 263.351562 266.183594 263.421875 266.046875 263.421875 C 265.910156 263.421875 265.703125 263.351562 265.566406 263.285156 L 262.492188 261.507812 L 260.71875 262.667969 L 259.625 262.054688 L 262.492188 260.207031 L 265.566406 261.984375 C 265.703125 262.054688 265.910156 262.121094 266.046875 262.121094 C 266.183594 262.121094 266.320312 262.054688 266.457031 261.984375 C 266.59375 261.917969 266.660156 261.847656 266.660156 261.710938 Z M 269.667969 261.097656 C 269.667969 261.164062 269.597656 261.300781 269.460938 261.371094 C 269.324219 261.4375 269.1875 261.507812 269.050781 261.507812 C 268.914062 261.507812 268.777344 261.4375 268.574219 261.371094 L 265.5 259.589844 L 264.40625 260.273438 L 263.3125 259.660156 L 265.5 258.222656 L 268.574219 260 C 268.710938 260.070312 268.914062 260.136719 269.050781 260.136719 C 269.1875 260.136719 269.324219 260.070312 269.460938 260 C 269.597656 259.933594 269.667969 259.863281 269.667969 259.726562 Z M 279.640625 256.789062 C 279.640625 256.925781 279.570312 257.0625 279.367188 257.128906 C 279.164062 257.265625 279.027344 257.335938 278.820312 257.335938 C 278.617188 257.335938 278.410156 257.265625 278.136719 257.128906 L 277.589844 256.789062 L 268.300781 258.769531 L 266.59375 257.8125 L 277.523438 255.488281 L 278.070312 255.828125 C 278.273438 255.964844 278.546875 256.035156 278.753906 256.035156 C 278.957031 256.035156 279.164062 255.964844 279.296875 255.828125 C 279.503906 255.691406 279.570312 255.625 279.570312 255.488281 L 279.570312 256.789062 Z M 279.707031 249.332031 C 283.945312 251.796875 285.789062 255.078125 285.378906 258.292969 C 285.035156 255.691406 283.125 253.164062 279.707031 251.179688 C 274.515625 248.171875 267.207031 247.214844 260.582031 248.308594 L 264.40625 246.117188 C 269.871094 245.84375 275.542969 246.941406 279.707031 249.332031 Z M 246.851562 256.171875 C 246.507812 256.855469 246.304688 257.539062 246.234375 258.292969 C 246.167969 257.746094 246.167969 257.128906 246.234375 256.582031 Z M 153.945312 327.910156 C 144.996094 322.714844 130.308594 322.714844 121.363281 327.910156 C 112.414062 333.109375 112.414062 341.589844 121.363281 346.71875 C 130.308594 351.847656 144.996094 351.914062 153.945312 346.71875 C 162.894531 341.519531 162.894531 333.109375 153.945312 327.910156 Z M 125.324219 337.144531 C 125.117188 337.28125 124.84375 337.347656 124.640625 337.347656 C 124.4375 337.347656 124.230469 337.28125 124.09375 337.144531 C 123.890625 337.007812 123.820312 336.9375 123.820312 336.800781 L 123.820312 335.433594 C 123.820312 335.570312 123.890625 335.707031 124.09375 335.777344 C 124.300781 335.914062 124.4375 335.980469 124.640625 335.980469 C 124.84375 335.980469 125.050781 335.914062 125.324219 335.777344 L 125.871094 335.433594 L 136.800781 337.757812 L 135.09375 338.714844 L 125.800781 336.734375 Z M 134.136719 332.082031 L 133.179688 332.628906 C 132.976562 332.765625 132.703125 332.835938 132.496094 332.835938 C 132.292969 332.835938 132.085938 332.765625 131.949219 332.628906 C 131.746094 332.492188 131.675781 332.425781 131.675781 332.289062 L 131.675781 330.921875 C 131.675781 331.058594 131.746094 331.195312 131.949219 331.261719 C 132.15625 331.398438 132.292969 331.46875 132.496094 331.46875 C 132.703125 331.46875 132.90625 331.398438 133.179688 331.261719 L 134.136719 330.714844 L 137.074219 337.007812 L 136.390625 336.871094 Z M 142.058594 335.84375 C 142.195312 335.777344 142.265625 335.640625 142.265625 335.570312 L 142.265625 336.9375 C 142.265625 337.007812 142.195312 337.144531 142.058594 337.210938 L 140.078125 338.375 L 138.984375 337.691406 Z M 144.996094 337.757812 C 145.132812 337.691406 145.203125 337.554688 145.203125 337.484375 L 145.203125 338.851562 C 145.203125 338.921875 145.132812 339.058594 144.996094 339.125 L 143.015625 340.289062 L 141.921875 339.605469 Z M 135.230469 330.03125 L 135.777344 329.6875 C 135.980469 329.550781 136.046875 329.484375 136.117188 329.414062 C 136.117188 329.6875 136.117188 330.578125 136.117188 330.578125 C 136.117188 330.578125 136.117188 330.648438 136.117188 330.648438 C 136.117188 330.785156 135.980469 330.921875 135.777344 331.058594 L 135.707031 331.125 Z M 126.964844 334.816406 L 127.917969 334.269531 C 128.125 334.132812 128.261719 333.996094 128.261719 333.859375 L 128.261719 335.09375 Z M 134.410156 341.453125 C 134.273438 341.453125 134.136719 341.382812 134 341.316406 C 133.863281 341.246094 133.792969 341.179688 133.792969 341.042969 L 133.792969 339.675781 C 133.792969 339.742188 133.863281 339.878906 134 339.949219 C 134.136719 340.015625 134.273438 340.085938 134.410156 340.085938 C 134.546875 340.085938 134.683594 340.015625 134.886719 339.949219 L 137.960938 338.167969 L 140.148438 339.605469 L 139.054688 340.222656 L 137.960938 339.535156 L 134.886719 341.316406 C 134.683594 341.382812 134.546875 341.453125 134.410156 341.453125 Z M 137.824219 343.230469 C 137.6875 343.296875 137.484375 343.367188 137.347656 343.367188 C 137.210938 343.367188 137.074219 343.296875 136.9375 343.230469 C 136.800781 343.160156 136.730469 343.09375 136.730469 342.957031 L 136.730469 341.589844 C 136.730469 341.65625 136.800781 341.792969 136.9375 341.863281 C 137.074219 341.929688 137.210938 342 137.347656 342 C 137.484375 342 137.6875 341.929688 137.824219 341.863281 L 140.898438 340.085938 L 143.769531 341.929688 L 142.675781 342.546875 L 140.898438 341.382812 Z M 148.34375 341.929688 C 148.34375 342.066406 148.277344 342.203125 148.003906 342.339844 L 142.949219 345.28125 C 142.742188 345.417969 142.46875 345.488281 142.265625 345.488281 C 142.058594 345.488281 141.855469 345.417969 141.71875 345.28125 C 141.511719 345.144531 141.445312 345.078125 141.445312 344.941406 L 141.445312 343.570312 C 141.445312 343.707031 141.511719 343.84375 141.71875 343.914062 C 141.855469 344.050781 142.058594 344.050781 142.265625 344.117188 C 142.46875 344.117188 142.675781 344.050781 142.949219 343.914062 L 148.003906 340.972656 C 148.207031 340.835938 148.34375 340.699219 148.34375 340.5625 Z M 157.226562 338.238281 C 156.882812 335.640625 154.972656 333.109375 151.554688 331.125 C 143.90625 326.679688 131.402344 326.679688 123.753906 331.125 C 120.335938 333.109375 118.425781 335.640625 118.082031 338.238281 C 117.671875 335.023438 119.515625 331.742188 123.753906 329.277344 C 131.402344 324.832031 143.90625 324.832031 151.554688 329.277344 C 155.789062 331.742188 157.703125 335.023438 157.226562 338.238281 Z M 193.910156 296.792969 C 184.960938 291.597656 170.273438 291.597656 161.324219 296.792969 C 152.375 301.992188 152.375 310.472656 161.324219 315.601562 C 170.273438 320.796875 184.960938 320.796875 193.910156 315.601562 C 202.859375 310.402344 202.859375 301.921875 193.910156 296.792969 Z M 165.285156 305.957031 C 165.082031 306.09375 164.808594 306.164062 164.601562 306.164062 C 164.398438 306.164062 164.191406 306.09375 164.054688 305.957031 C 163.851562 305.820312 163.785156 305.753906 163.785156 305.617188 L 163.785156 304.25 C 163.785156 304.386719 163.851562 304.523438 164.054688 304.589844 C 164.261719 304.726562 164.398438 304.796875 164.601562 304.796875 C 164.808594 304.796875 165.011719 304.726562 165.285156 304.589844 L 165.832031 304.25 L 176.761719 306.574219 L 175.054688 307.53125 L 165.765625 305.546875 Z M 174.097656 300.898438 L 173.140625 301.445312 C 172.9375 301.582031 172.664062 301.648438 172.457031 301.648438 C 172.253906 301.648438 172.050781 301.582031 171.914062 301.445312 C 171.707031 301.308594 171.640625 301.238281 171.640625 301.101562 L 171.640625 299.734375 C 171.640625 299.871094 171.707031 300.007812 171.914062 300.078125 C 172.117188 300.214844 172.253906 300.28125 172.457031 300.28125 C 172.664062 300.28125 172.867188 300.214844 173.140625 300.078125 L 174.097656 299.53125 L 177.035156 305.820312 L 176.351562 305.683594 Z M 185.234375 307.667969 C 185.234375 307.738281 185.164062 307.875 185.027344 307.941406 L 183.046875 309.105469 L 181.953125 308.421875 L 185.027344 306.640625 C 185.164062 306.574219 185.234375 306.4375 185.234375 306.367188 Z M 182.226562 305.753906 C 182.226562 305.820312 182.160156 305.957031 182.023438 306.027344 L 180.042969 307.191406 L 178.949219 306.503906 L 182.023438 304.726562 C 182.160156 304.660156 182.226562 304.523438 182.226562 304.453125 Z M 175.191406 298.914062 L 175.738281 298.574219 C 175.941406 298.4375 176.011719 298.367188 176.078125 298.300781 C 176.078125 298.574219 176.078125 299.460938 176.078125 299.460938 C 176.078125 299.460938 176.078125 299.53125 176.078125 299.53125 C 176.078125 299.667969 175.941406 299.804688 175.738281 299.941406 L 175.667969 300.007812 Z M 168.222656 303.90625 L 166.925781 303.632812 L 167.882812 303.085938 C 168.085938 302.949219 168.222656 302.8125 168.222656 302.675781 Z M 174.371094 310.265625 C 174.234375 310.265625 174.097656 310.199219 173.960938 310.128906 C 173.824219 310.0625 173.757812 309.992188 173.757812 309.855469 L 173.757812 308.488281 C 173.757812 308.558594 173.824219 308.695312 173.960938 308.761719 C 174.097656 308.832031 174.234375 308.898438 174.371094 308.898438 C 174.507812 308.898438 174.644531 308.832031 174.851562 308.761719 L 177.925781 306.984375 L 180.109375 308.421875 L 179.015625 309.035156 L 177.925781 308.351562 L 174.851562 310.128906 C 174.644531 310.265625 174.507812 310.265625 174.371094 310.265625 Z M 177.789062 312.113281 C 177.652344 312.183594 177.445312 312.25 177.308594 312.25 C 177.171875 312.25 177.035156 312.183594 176.898438 312.113281 C 176.761719 312.046875 176.695312 311.976562 176.695312 311.839844 L 176.695312 310.472656 C 176.695312 310.539062 176.761719 310.675781 176.898438 310.746094 C 177.035156 310.8125 177.171875 310.882812 177.308594 310.882812 C 177.445312 310.882812 177.652344 310.8125 177.789062 310.746094 L 180.859375 308.96875 L 183.730469 310.8125 L 182.636719 311.429688 L 180.859375 310.265625 Z M 188.308594 310.8125 C 188.308594 310.949219 188.238281 311.085938 187.964844 311.222656 L 182.910156 314.164062 C 182.707031 314.300781 182.433594 314.371094 182.226562 314.371094 C 182.023438 314.371094 181.816406 314.300781 181.679688 314.164062 C 181.476562 314.027344 181.40625 313.960938 181.40625 313.824219 L 181.40625 312.457031 C 181.40625 312.59375 181.476562 312.730469 181.679688 312.796875 C 181.816406 312.933594 182.023438 312.933594 182.226562 313.003906 C 182.433594 313.003906 182.636719 312.933594 182.910156 312.796875 L 187.964844 309.855469 C 188.171875 309.71875 188.308594 309.582031 188.308594 309.445312 Z M 197.1875 307.121094 C 196.847656 304.523438 194.933594 301.992188 191.519531 300.007812 C 183.867188 295.5625 171.367188 295.5625 163.714844 300.007812 C 160.300781 301.992188 158.386719 304.523438 158.046875 307.121094 C 157.636719 303.90625 159.480469 300.625 163.714844 298.164062 C 171.367188 293.71875 183.867188 293.71875 191.519531 298.164062 C 195.753906 300.554688 197.664062 303.90625 197.1875 307.121094 Z M 197.1875 307.121094 "/>
</g>
</svg>
