<svg width="238" height="84" viewBox="0 0 238 84" fill="none" xmlns="http://www.w3.org/2000/svg">
<path d="M151 41.2882C151 62.6428 133.565 80 112 80C90.4355 80 73 62.6428 73 41.2882C73 20.1085 90.2551 4 112 4C133.745 4 151 20.1085 151 41.2882Z" stroke="white" stroke-opacity="0.4" stroke-width="8"/>
<path d="M3.312 29.8H21.456C21.72 29.8 21.948 29.896 22.14 30.088C22.332 30.28 22.428 30.508 22.428 30.772V36.244C22.428 36.508 22.332 36.736 22.14 36.928C21.948 37.12 21.72 37.216 21.456 37.216H11.16V39.88H20.736C21 39.88 21.228 39.976 21.42 40.168C21.612 40.36 21.708 40.588 21.708 40.852V46.288C21.708 46.552 21.612 46.78 21.42 46.972C21.228 47.164 21 47.26 20.736 47.26H11.16V54.028C11.16 54.292 11.064 54.52 10.872 54.712C10.68 54.904 10.452 55 10.188 55H3.312C3.048 55 2.82 54.904 2.628 54.712C2.436 54.52 2.34 54.292 2.34 54.028V30.772C2.34 30.508 2.436 30.28 2.628 30.088C2.82 29.896 3.048 29.8 3.312 29.8ZM45.3271 55H37.9831C37.7191 55 37.4911 54.904 37.2991 54.712C37.1071 54.52 37.0111 54.292 37.0111 54.028V30.772C37.0111 30.508 37.1071 30.28 37.2991 30.088C37.4911 29.896 37.7191 29.8 37.9831 29.8H45.3271C45.5911 29.8 45.8191 29.896 46.0111 30.088C46.2031 30.28 46.2991 30.508 46.2991 30.772V54.028C46.2991 54.292 46.2031 54.52 46.0111 54.712C45.8191 54.904 45.5911 55 45.3271 55ZM76.9601 29.8H83.4761C83.7401 29.8 83.9681 29.896 84.1601 30.088C84.3521 30.28 84.4481 30.508 84.4481 30.772V54.028C84.4481 54.292 84.3521 54.52 84.1601 54.712C83.9681 54.904 83.7401 55 83.4761 55H77.7881C77.1641 55 76.6721 54.724 76.3121 54.172L70.2281 44.992V54.028C70.2281 54.292 70.1321 54.52 69.9401 54.712C69.7481 54.904 69.5201 55 69.2561 55H62.7401C62.4761 55 62.2481 54.904 62.0561 54.712C61.8641 54.52 61.7681 54.292 61.7681 54.028V30.772C61.7681 30.508 61.8641 30.28 62.0561 30.088C62.2481 29.896 62.4761 29.8 62.7401 29.8H68.4281C69.1001 29.8 69.5921 30.076 69.9041 30.628L75.9881 40.6V30.772C75.9881 30.508 76.0841 30.28 76.2761 30.088C76.4681 29.896 76.6961 29.8 76.9601 29.8ZM107.804 29.8H115.616C116.48 29.8 117.02 30.196 117.236 30.988L125.264 53.956C125.288 54.028 125.3 54.148 125.3 54.316C125.3 54.46 125.216 54.616 125.048 54.784C124.904 54.928 124.724 55 124.508 55H117.848C117.128 55 116.66 54.7 116.444 54.1L115.58 51.724H107.84L106.976 54.1C106.76 54.7 106.292 55 105.572 55H98.9117C98.6957 55 98.5037 54.928 98.3357 54.784C98.1917 54.616 98.1197 54.46 98.1197 54.316C98.1197 54.148 98.1317 54.028 98.1557 53.956L106.184 30.988C106.4 30.196 106.94 29.8 107.804 29.8ZM109.676 44.704H113.744L111.692 38.008L109.676 44.704ZM154.177 29.8H160.693C160.957 29.8 161.185 29.896 161.377 30.088C161.569 30.28 161.665 30.508 161.665 30.772V54.028C161.665 54.292 161.569 54.52 161.377 54.712C161.185 54.904 160.957 55 160.693 55H155.005C154.381 55 153.889 54.724 153.529 54.172L147.445 44.992V54.028C147.445 54.292 147.349 54.52 147.157 54.712C146.965 54.904 146.737 55 146.473 55H139.957C139.693 55 139.465 54.904 139.273 54.712C139.081 54.52 138.985 54.292 138.985 54.028V30.772C138.985 30.508 139.081 30.28 139.273 30.088C139.465 29.896 139.693 29.8 139.957 29.8H145.645C146.317 29.8 146.809 30.076 147.121 30.628L153.205 40.6V30.772C153.205 30.508 153.301 30.28 153.493 30.088C153.685 29.896 153.913 29.8 154.177 29.8ZM185.777 39.376V45.424C185.777 47.368 186.665 48.34 188.441 48.34C189.809 48.34 190.709 47.692 191.141 46.396C191.261 45.988 191.405 45.712 191.573 45.568C191.765 45.424 192.065 45.352 192.473 45.352H199.817C200.033 45.352 200.213 45.436 200.357 45.604C200.525 45.748 200.609 45.928 200.609 46.144C200.609 48.232 200.009 49.984 198.809 51.4C196.601 54.04 193.157 55.36 188.477 55.36C184.805 55.36 181.877 54.556 179.693 52.948C177.509 51.316 176.417 48.82 176.417 45.46V39.34C176.417 36.052 177.533 33.58 179.765 31.924C181.997 30.268 184.901 29.44 188.477 29.44C193.157 29.44 196.601 30.76 198.809 33.4C200.009 34.816 200.609 36.568 200.609 38.656C200.609 38.872 200.525 39.064 200.357 39.232C200.213 39.376 200.033 39.448 199.817 39.448H192.473C192.089 39.448 191.801 39.376 191.609 39.232C191.441 39.088 191.285 38.812 191.141 38.404C190.685 37.108 189.785 36.46 188.441 36.46C186.665 36.46 185.777 37.432 185.777 39.376ZM223.471 47.98H234.559C234.823 47.98 235.051 48.076 235.243 48.268C235.435 48.46 235.531 48.688 235.531 48.952V54.028C235.531 54.292 235.435 54.52 235.243 54.712C235.051 54.904 234.823 55 234.559 55H215.803C215.539 55 215.311 54.904 215.119 54.712C214.927 54.52 214.831 54.292 214.831 54.028V30.772C214.831 30.508 214.927 30.28 215.119 30.088C215.311 29.896 215.539 29.8 215.803 29.8H234.271C234.535 29.8 234.763 29.896 234.955 30.088C235.147 30.28 235.243 30.508 235.243 30.772V35.848C235.243 36.112 235.147 36.34 234.955 36.532C234.763 36.724 234.535 36.82 234.271 36.82H223.471V39.088H233.479C233.743 39.088 233.971 39.184 234.163 39.376C234.355 39.568 234.451 39.796 234.451 40.06V44.74C234.451 45.004 234.355 45.232 234.163 45.424C233.971 45.616 233.743 45.712 233.479 45.712H223.471V47.98Z" fill="white"/>
</svg>
