<svg width="219" height="78" viewBox="0 0 219 78" fill="none" xmlns="http://www.w3.org/2000/svg">
<rect width="219" height="78" fill="#E5E5E5"/>
<g clip-path="url(#clip0)">
<rect width="1440" height="1754" transform="translate(-610 -41)" fill="#0B0A0A"/>
<path d="M-477.566 493.692C-575.545 341.118 -449.384 143.894 -269.789 168.88L-191.392 179.787C-110.358 191.061 -44.5138 250.846 -25.4934 330.419L-19.7159 354.59C-11.9979 386.879 7.42236 415.158 34.7872 433.955C118.223 491.266 110.516 616.819 20.697 663.496L-179.671 767.622C-256.086 807.332 -348.397 757.024 -356.442 671.283C-358.806 646.085 -368.991 622.256 -385.57 603.133L-459.35 518.028C-465.996 510.362 -472.083 502.229 -477.566 493.692Z" fill="#C4C4C4" fill-opacity="0.02"/>
<mask id="path-2-inside-1" fill="white">
<path d="M146 38.339C146 60.2432 128.091 78 106 78C83.9086 78 66 60.2432 66 38.339C66 16.4348 83.9086 0 106 0C128.091 0 146 16.4348 146 38.339Z"/>
</mask>
<path d="M146 38.339C146 60.2432 128.091 78 106 78C83.9086 78 66 60.2432 66 38.339C66 16.4348 83.9086 0 106 0C128.091 0 146 16.4348 146 38.339Z" stroke="white" stroke-opacity="0.4" stroke-width="16" mask="url(#path-2-inside-1)"/>
<text fill="white" xml:space="preserve" style="white-space: pre" font-family="Rubik" font-size="35" font-weight="bold" letter-spacing="0.3em"><tspan x="0" y="51.4875">FINANCE</tspan></text>
</g>
<defs>
<clipPath id="clip0">
<rect width="1440" height="1754" fill="white" transform="translate(-610 -41)"/>
</clipPath>
</defs>
</svg>
