<svg width="517" height="517" viewBox="0 0 517 517" fill="none" xmlns="http://www.w3.org/2000/svg">
<path fill-rule="evenodd" clip-rule="evenodd" d="M155.154 321.434V337.321L160.48 340.321L123.999 361.561C123.843 361.254 123.741 360.99 123.628 360.758C124.123 359.87 124.387 358.97 124.387 358.049C124.387 357.473 124.322 356.956 124.166 356.493C124.322 356.035 124.403 355.534 124.403 355.001C124.403 353.962 124.155 353.041 123.655 352.233C124.155 351.388 124.403 350.488 124.403 349.53C124.403 347.036 122.868 344.866 119.804 343.024C116.664 341.22 112.884 340.321 108.478 340.321C107.229 340.321 106.033 340.396 104.886 340.547L105.258 338.414L105.026 336.4L104.563 331.973C106.023 327.783 104.622 324.601 100.368 322.414C96.302 320.465 92.2091 319.398 88.0893 319.463L104.224 293.478H104.278L119.917 268.506C132.627 276.45 150.355 287.247 173.109 300.754C171.649 304.987 170.265 307.976 169.188 309.656C166.237 314.261 162.053 318.208 155.154 321.434ZM489.901 84.341L486.729 86.5275L419.389 134.027L423.612 136.326L438.745 144.706L410.88 189.211C410.681 189.152 410.466 189.125 410.245 189.125L116.643 17.6049C115.264 16.9533 114.209 16.6302 113.482 16.6302C113.094 16.6302 112.442 16.8025 111.521 17.1472L110.261 17.6049L98.1277 24.0567C97.9769 24.2505 97.3037 24.886 96.6521 25.9577C96.0812 26.954 96.5013 27.5679 95.3488 27.7995V226.435L66.8976 272.179C60.5321 269.335 54.1396 269.115 47.4509 271.517C44.3489 272.588 42.114 274.586 40.6168 277.505C39.8521 279.342 39.9383 280.898 40.8268 282.169L40.3799 286.655L40.8484 291.146L40.396 295.584L40.8538 300.07L40.7999 305.31L40.8538 310.609L40.396 314.988L40.7299 319.414L40.1483 320.626V323.911L40.7353 328.457C39.739 331.219 40.1429 333.503 41.8285 335.307L41.4569 339.454C41.5323 339.642 41.667 339.857 41.8178 340.084C41.8555 340.202 41.9201 340.321 41.9955 340.434C41.8824 340.585 41.7908 340.735 41.7154 340.897C40.9507 342.733 41.0261 344.29 41.947 345.555L41.4893 350.047C41.5646 350.235 41.6616 350.429 41.7747 350.623C41.3169 351.732 41.22 353.003 41.4893 354.425C41.64 354.845 41.7747 355.287 41.8932 355.75C40.8969 358.125 41.2038 360.279 42.8087 362.196C45.7599 365.799 49.7343 367.781 54.7158 368.126C59.9666 368.739 64.9697 367.953 69.725 365.767C73.3601 363.844 74.8196 360.871 74.0872 356.838C78.3847 360.371 83.2155 361.986 88.5793 361.674C90.0657 361.491 91.5467 361.329 93.0385 361.189C92.7153 361.873 92.5484 362.632 92.5484 363.462C92.5484 364.038 92.6238 364.555 92.78 365.018C92.6238 365.551 92.5484 366.149 92.5484 366.801C92.5484 367.646 92.78 368.508 93.2377 369.396C92.78 370.161 92.5484 371.023 92.5484 371.987C92.5484 372.827 92.7423 373.613 93.1246 374.34C92.7423 375.11 92.5484 375.934 92.5484 376.823C92.5484 377.701 92.78 378.568 93.2377 379.413C92.78 380.216 92.5484 381.083 92.5484 382.004C92.5484 382.499 92.6238 383.054 92.78 383.673C92.6238 384.206 92.5484 384.799 92.5484 385.456C92.5484 386.221 92.78 387.05 93.2377 387.933C93.0115 388.315 92.8607 388.66 92.78 388.967C92.6238 389.463 92.5484 389.98 92.5484 390.523C92.5484 391.057 92.6238 391.617 92.78 392.193C92.6238 392.732 92.5484 393.308 92.5484 393.916C92.5484 394.8 92.78 395.683 93.2377 396.566C92.78 397.411 92.5484 398.354 92.5484 399.388C92.6238 401.881 94.1963 404.009 97.266 405.78C100.411 407.584 104.149 408.489 108.478 408.489C112.884 408.489 116.664 407.584 119.804 405.78C121.22 404.973 122.314 404.052 123.084 403.018C123.159 403.438 123.278 403.799 123.428 404.111C123.197 404.644 123.084 405.242 123.084 405.893C123.084 406.432 123.159 406.965 123.31 407.504C123.385 407.811 123.466 408.101 123.541 408.371C123.234 409.06 123.084 409.846 123.084 410.73C123.084 411.344 123.197 411.957 123.428 412.577C123.046 412.765 122.658 413.013 122.276 413.32C121.549 412.938 120.8 412.609 120.036 412.34C119.152 412.264 118.328 412.146 117.564 412.001C116.449 411.537 115.259 411.23 113.999 411.08C112.577 410.848 111.047 410.73 109.399 410.73C107.52 410.73 105.716 410.918 103.992 411.306C101.881 411.688 99.948 412.399 98.1869 413.438C97.1906 414.052 96.2859 414.763 95.4834 415.566C94.2125 416.837 93.5878 418.253 93.5878 419.826C93.5878 420.827 93.7978 421.764 94.2125 422.653C93.7978 423.568 93.5878 424.511 93.5878 425.469C93.5878 428.006 95.1603 430.171 98.3 431.975C101.364 433.779 105.064 434.684 109.399 434.684C113.88 434.684 117.661 433.779 120.725 431.975C123.87 430.171 125.443 428.006 125.443 425.469C125.443 424.856 125.324 424.263 125.092 423.687C125.9 424.339 126.8 425.006 127.801 425.701C130.941 427.43 134.679 428.291 139.014 428.291C143.419 428.291 147.194 427.43 150.334 425.701C153.404 423.897 154.938 421.727 154.938 419.195C154.938 418.425 154.782 417.639 154.481 416.837C154.782 415.991 154.938 415.167 154.938 414.359C154.938 413.745 154.858 413.153 154.707 412.577C154.858 411.957 154.938 411.344 154.938 410.73C154.938 409.927 154.782 409.141 154.481 408.371C154.782 407.488 154.938 406.798 154.938 406.114L205.077 435.115H205.195L225.837 423.094C226.715 424.974 228.137 426.46 230.092 427.651C231.508 428.415 232.973 428.992 234.492 429.439L212.724 442.062C212.266 442.293 211.922 442.557 211.69 442.864C210.042 443.974 209.95 445.105 211.405 446.257C211.248 447.103 211.884 447.905 213.3 448.67L301.853 499.567C304.497 501.108 307.125 501.14 309.731 499.686L360.678 470.034C362.859 468.73 363.187 467.443 361.652 466.172C361.765 465.327 361.098 464.487 359.638 463.641L308.638 434.28L308.811 433.93L271.549 412.518C268.905 410.945 266.373 410.902 263.805 412.399L257.504 416.115C257.504 416.007 257.504 415.9 257.504 415.797C257.504 415.259 257.348 414.704 257.191 414.128C257.348 413.589 257.385 413.035 257.385 412.458C257.385 411.537 257.154 410.633 256.734 409.749C257.154 408.979 257.353 408.118 257.353 407.159C257.353 406.701 257.272 406.244 257.121 405.78C257.272 405.204 257.353 404.644 257.353 404.111C257.353 403.147 257.1 402.248 256.599 401.402C257.1 400.519 257.348 399.56 257.348 398.526C257.348 397.358 256.992 396.264 256.281 395.246L303.118 422.13L332.383 405.953C332.442 401.014 331.903 396.528 330.778 392.478C336.239 395.575 341.586 398.607 346.815 401.58C378.25 419.346 394.541 428.232 395.694 428.232C396.151 428.232 396.765 428.141 397.535 427.947C398.144 427.715 398.629 427.505 398.973 427.311C407.364 422.244 411.931 419.249 412.658 418.334C413.078 417.871 413.228 417.219 413.115 416.373C413.002 415.108 413.018 414.015 413.175 413.094C413.67 409.943 413.939 381.056 413.977 326.442C413.961 301.691 413.955 279.999 413.95 261.381L417.714 259.249L476.135 165.429L486.847 171.219L503.606 161.546V76.4514L489.901 84.341Z" fill="#2B54E6"/>
<path fill-rule="evenodd" clip-rule="evenodd" d="M321.806 387.357C324.827 389.08 327.816 390.793 330.778 392.478C331.903 396.528 332.442 401.014 332.383 405.953L303.118 422.13V406.297C309.441 403.077 314.121 399.156 317.147 394.552C318.17 392.952 319.721 390.55 321.806 387.357Z" fill="#5858C5"/>
<path fill-rule="evenodd" clip-rule="evenodd" d="M213.763 151.126C218.745 160.103 224.055 168.149 229.688 175.252V205.249L205.825 191.543V137.42C207.36 139.8 210.004 144.372 213.763 151.126ZM139.068 124.468C144.281 130.3 149.074 134.221 153.441 136.213V161.492L129.578 147.787V120.267C132.837 119.729 136.003 121.145 139.068 124.527V124.468ZM317.147 394.552L169.312 309.688C170.384 308.008 171.649 305.057 173.109 300.824C192.938 312.597 216.585 326.491 244.062 342.507C272.023 358.755 297.932 373.71 321.806 387.357C319.721 390.55 318.17 392.952 317.147 394.552ZM257.347 301.971V301.745L302.542 327.88C304.421 328.995 306.026 330.718 307.373 333.061C308.751 335.404 309.441 337.687 309.441 339.917C309.441 342.098 308.751 343.579 307.373 344.349C306.764 344.71 306.107 344.882 305.385 344.866C304.518 344.823 303.571 344.5 302.542 343.886L257.347 317.804V301.971ZM404.116 200.009L398.973 208.238V202.826L404.116 200.009ZM155.402 321.434L303.118 406.297V422.13L256.281 395.246C255.576 394.229 254.509 393.286 253.093 392.425V383.673L169.081 335.366L160.598 340.321L155.402 337.321V321.434ZM398.973 427.311V269.815L413.95 261.381C413.955 279.999 413.961 301.691 413.977 326.442C413.939 381.056 413.67 409.943 413.175 413.094C413.018 414.015 413.002 415.108 413.115 416.373C413.228 417.219 413.078 417.871 412.658 418.334C411.93 419.249 407.364 422.244 398.973 427.311Z" fill="#ABB1EB"/>
<path fill-rule="evenodd" clip-rule="evenodd" d="M303.118 406.297L155.402 321.434C161.724 318.208 166.361 314.293 169.312 309.688L317.147 394.552C314.121 399.156 309.441 403.077 303.118 406.297ZM395.866 196.724L98.1277 24.0567L110.261 17.6049L111.521 17.1472C112.442 16.8025 113.094 16.6302 113.476 16.6302C114.209 16.6302 115.259 16.9533 116.643 17.6049L410.24 189.125L395.866 196.724Z" fill="#DBDFFF"/>
<path fill-rule="evenodd" clip-rule="evenodd" d="M410.875 189.211L404.116 200.009L398.973 202.826C398.898 201.754 398.763 200.946 398.569 200.408C398.3 199.6 397.401 198.372 395.866 196.724L410.24 189.125C410.46 189.125 410.67 189.152 410.875 189.211Z" fill="#CACFF5"/>
<path fill-rule="evenodd" clip-rule="evenodd" d="M292.482 484.37C292.439 486.562 293.78 488.436 296.505 490.014C299.225 491.624 302.558 492.41 306.511 492.372C310.383 492.372 313.657 491.586 316.345 490.014C319.064 488.323 320.405 486.384 320.368 484.197C320.405 482.006 319.064 480.126 316.345 478.554C313.62 476.943 310.302 476.173 306.393 476.249C302.483 476.249 299.171 477.035 296.446 478.613C293.801 480.261 292.482 482.183 292.482 484.37ZM285.546 235.989L287.129 233.458V236.915L285.546 235.989ZM213.763 151.126C210.004 144.372 207.36 139.8 205.825 137.42V191.543L229.688 205.249V175.252C224.055 168.149 218.745 160.103 213.763 151.126ZM139.068 124.468V124.527C136.003 121.145 132.837 119.729 129.578 120.267V147.787L153.441 161.492V136.213C149.074 134.221 144.281 130.3 139.068 124.468ZM200.418 131.84C192.599 125.965 185.932 123.644 180.411 124.872V176.976L204.274 190.676V135.346C203.084 134.043 201.797 132.874 200.418 131.84ZM171.38 131.205C166.899 137.387 161.439 139.267 154.992 136.843V162.354L178.855 176.055V125.329C176.06 126.288 173.572 128.248 171.38 131.205ZM128.259 76.2198C128.41 76.1444 128.588 76.1606 128.776 76.279C129.002 76.3921 129.196 76.5699 129.347 76.796C129.503 77.103 129.578 77.3723 129.578 77.6039V118.253C133.025 117.903 136.402 119.572 139.698 123.256C144.722 128.787 149.305 132.492 153.441 134.372V91.3044C153.441 91.0728 153.522 90.9004 153.673 90.7874C153.829 90.7066 153.996 90.7281 154.19 90.8466C154.421 90.9974 154.615 91.1913 154.766 91.4174C154.917 91.6921 154.992 91.9398 154.992 92.166V135.007C160.862 137.037 165.882 135.212 170.061 129.535C172.592 126.116 175.527 123.951 178.855 123.03V105.931C178.855 105.694 178.936 105.527 179.087 105.409C179.237 105.333 179.415 105.355 179.609 105.468C179.798 105.586 179.97 105.78 180.126 106.044C180.315 106.314 180.411 106.561 180.411 106.793V122.68C186.045 121.802 192.793 124.295 200.65 130.166C201.915 131.167 203.127 132.239 204.274 133.391V120.493C204.274 120.267 204.35 120.089 204.506 119.976C204.657 119.939 204.829 119.976 205.023 120.089C205.211 120.208 205.384 120.38 205.534 120.612C205.728 120.876 205.825 121.145 205.825 121.42V135.179C207.209 137.097 210.214 142.223 214.851 150.549C219.531 158.918 224.475 166.479 229.688 173.233V135.12C229.688 134.851 229.763 134.678 229.92 134.603C230.076 134.522 230.243 134.544 230.437 134.657C230.625 134.77 230.803 134.964 230.954 135.233C231.147 135.502 231.239 135.75 231.239 135.982V207.026C231.239 207.301 231.147 207.468 230.954 207.549C230.803 207.629 230.625 207.602 230.437 207.489L128.776 149.111C128.588 148.993 128.41 148.799 128.259 148.535C128.103 148.266 128.027 148.013 128.027 147.787V76.6776C128.027 76.4514 128.103 76.2952 128.259 76.2198ZM310.017 250.158V238.407L320.19 244.282V256.028L310.017 250.158ZM303.635 234.492V246.415L293.457 240.54V228.622L303.635 234.492ZM343.25 269.384V257.692L353.203 263.455V275.141L343.25 269.384ZM336.755 265.641L326.577 259.712V247.966L336.755 253.895V265.641ZM98.1277 24.0567L395.866 196.724C397.401 198.372 398.3 199.6 398.569 200.408C398.763 200.946 398.898 201.754 398.973 202.826V208.238L391.321 220.447L387.761 218.373V204.899L109.572 44.0904V204.64L95.8873 226.435V27.7995C96.0004 27.5679 96.3451 26.954 96.9213 25.9577C97.573 24.886 97.9769 24.2505 98.1277 24.0567ZM325.425 464.503L342.561 474.353L349.234 470.492L332.038 460.652L325.425 464.503ZM304.842 443.144L308.638 434.28L359.638 463.641C361.098 464.487 361.765 465.327 361.652 466.172C361.577 466.867 360.925 467.562 359.697 468.246L308.751 497.839C306.145 499.336 303.538 499.32 300.932 497.785L212.325 446.887C211.938 446.693 211.631 446.489 211.405 446.257C209.95 445.105 210.042 443.974 211.69 442.854C210.236 444.125 210.575 445.395 212.724 446.656L285.233 488.339L302.197 449.305L320.427 459.726L327.094 455.87L304.842 443.144ZM398.973 269.815V427.311C398.629 427.505 398.144 427.715 397.535 427.947C396.765 428.141 396.151 428.232 395.693 428.232C394.541 428.232 378.25 419.346 346.815 401.58C341.586 398.607 336.238 395.575 330.778 392.478C327.816 390.793 324.827 389.08 321.806 387.357C297.932 373.71 272.023 358.755 244.062 342.507C216.585 326.491 192.938 312.597 173.109 300.824C150.355 287.312 132.627 276.584 119.917 268.641L130.101 252.285L387.761 401.23V270.741L392.473 273.471L398.973 269.815Z" fill="#5C5CC6"/>
<path fill-rule="evenodd" clip-rule="evenodd" d="M128.259 76.2198C128.103 76.2952 128.028 76.4514 128.028 76.6776V147.787C128.028 148.013 128.103 148.266 128.259 148.535C128.41 148.799 128.588 148.993 128.776 149.111L230.437 207.489C230.625 207.602 230.803 207.629 230.954 207.549C231.147 207.468 231.239 207.301 231.239 207.026V135.982C231.239 135.75 231.147 135.502 230.954 135.233C230.803 134.964 230.625 134.77 230.437 134.657C230.243 134.544 230.076 134.522 229.92 134.603C229.763 134.679 229.688 134.851 229.688 135.12V173.233C224.475 166.479 219.531 158.918 214.851 150.549C210.214 142.223 207.209 137.097 205.825 135.179V121.42C205.825 121.145 205.728 120.876 205.534 120.612C205.384 120.38 205.211 120.208 205.023 120.089C204.829 119.976 204.657 119.939 204.506 119.976C204.35 120.089 204.274 120.267 204.274 120.493V133.391C203.127 132.239 201.915 131.167 200.65 130.166C192.793 124.295 186.045 121.802 180.411 122.68V106.793C180.411 106.561 180.315 106.314 180.126 106.044C179.97 105.78 179.798 105.586 179.609 105.468C179.415 105.355 179.237 105.333 179.087 105.409C178.936 105.527 178.855 105.694 178.855 105.931V123.03C175.527 123.951 172.592 126.116 170.061 129.535C165.882 135.212 160.862 137.037 154.992 135.007V92.166C154.992 91.9398 154.917 91.6921 154.766 91.4174C154.615 91.1913 154.421 90.9974 154.19 90.8466C153.996 90.7281 153.829 90.7066 153.673 90.7874C153.522 90.9005 153.441 91.0728 153.441 91.3044V134.372C149.305 132.492 144.722 128.787 139.698 123.256C136.402 119.572 133.025 117.903 129.579 118.253V77.6039C129.579 77.3723 129.503 77.103 129.347 76.796C129.196 76.5699 129.002 76.3921 128.776 76.279C128.588 76.1606 128.41 76.1444 128.259 76.2198ZM130.101 252.285L145.449 227.701L240.211 282.508L265.571 267.946L285.546 235.989L287.129 236.915V233.458L296.731 218.082L387.761 270.741V401.23L130.101 252.285ZM305.385 344.866C306.107 344.882 306.764 344.71 307.373 344.349C308.751 343.579 309.441 342.098 309.441 339.917C309.441 337.687 308.751 335.404 307.373 333.061C306.026 330.718 304.421 328.995 302.542 327.88L257.348 301.745V301.971L149.763 239.791C147.846 238.676 146.219 238.504 144.873 239.269C143.494 240.082 142.805 241.574 142.805 243.765C142.805 245.99 143.494 248.252 144.873 250.557C146.219 252.937 147.846 254.682 149.763 255.797L302.197 343.886C303.371 344.564 304.432 344.893 305.385 344.866ZM336.755 265.641V253.895L326.577 247.966V259.712L336.755 265.641ZM343.25 269.384L353.203 275.141V263.455L343.25 257.692V269.384ZM303.635 234.492L293.457 228.622V240.54L303.635 246.415V234.492ZM310.017 250.158L320.19 256.028V244.282L310.017 238.407V250.158ZM387.761 218.373L291.728 162.753L277.99 170.702L274.942 172.484L238.946 229.483L140.446 172.484L126.703 180.374L123.714 182.102L109.572 204.64V44.0904L387.761 204.899V218.373Z" fill="#140977"/>
<path fill-rule="evenodd" clip-rule="evenodd" d="M68.831 272.981C68.7233 272.938 68.6156 272.895 68.5133 272.841C68.0609 272.61 67.6085 272.384 67.1615 272.179L95.8873 226.435L109.572 204.64L123.714 182.102L126.703 180.374L126.88 180.492L231.702 240.944L238.946 229.483L274.942 172.484L277.99 170.702L278.103 170.874L378.961 229.026L384.077 231.961L385.978 229.026L387.761 226.171L391.321 220.447L398.973 208.238L404.116 200.009L410.875 189.211L438.734 144.706L440.231 145.541L412.394 190.073L407.278 198.28L398.973 211.55L388.046 229.026L387.761 229.483L386.037 232.251L384.023 234.492H382.467L373.037 229.026L276.493 173.179L241.531 229.026L237.739 235.127H237.626L233.372 241.918H233.485L231.702 244.396L230.318 243.706L230.033 243.534L125.211 182.964L109.572 207.926L95.8873 229.769L68.831 272.981Z" fill="#5572D8"/>
<path fill-rule="evenodd" clip-rule="evenodd" d="M240.211 282.508L145.449 227.701L133.434 220.791L118.135 245.376L108.274 261.209L99.9103 274.683L88.0623 293.737L72.9132 318.063L73.1124 314.988L72.827 310.609V300.07L73.1124 295.638L73.344 295.293L72.9993 292.008L72.7085 291.146L73.1124 286.655L72.7085 282.223C74.168 278.216 72.8755 275.136 68.831 272.981L95.8874 229.769L109.572 207.926L125.211 182.964L230.033 243.534L230.318 243.706L231.702 244.396L233.485 241.918H233.372L237.626 235.127H237.739L241.531 229.026L276.493 173.179L373.037 229.026L382.467 234.492H384.023L386.037 232.251L387.761 229.483L388.046 229.026L398.973 211.55L407.278 198.28L412.394 190.073L440.231 145.541L438.734 144.706L423.579 136.326L486.605 91.1913V171.219L476.135 165.429L464.002 158.697L413.95 239.016L398.973 263.051L392.473 273.471L387.761 270.741L296.731 218.082H296.677L284.716 211.06L284.598 211.291L278.911 220.414L277.069 223.349L269.707 235.127L240.211 282.508Z" fill="#9CE264"/>
<path fill-rule="evenodd" clip-rule="evenodd" d="M296.731 218.082L287.129 233.458L285.546 235.989L265.571 267.946L240.211 282.508L269.707 235.127L277.069 223.349L278.911 220.414L284.598 211.291L284.716 211.06L296.677 218.082H296.731ZM145.449 227.701L130.101 252.285L119.917 268.641L104.278 293.737H104.224L88.0893 319.592C84.4972 319.646 80.889 320.47 77.2538 322.064L73.344 325.171L73.1124 323.911L72.827 319.414L72.9132 318.063L88.0623 293.737L99.9103 274.683L108.274 261.209L118.135 245.376L133.434 220.791L145.449 227.701ZM257.348 301.971V317.804L302.542 343.886C303.571 344.5 304.518 344.823 305.385 344.866C304.432 344.893 303.371 344.564 302.197 343.886L149.763 255.797C147.846 254.682 146.219 252.937 144.873 250.556C143.494 248.252 142.805 245.99 142.805 243.765C142.805 241.574 143.494 240.082 144.873 239.269C146.219 238.504 147.846 238.676 149.763 239.791L257.348 301.971ZM413.95 261.381L398.973 269.815L392.473 273.471L398.973 263.051L413.95 239.016L464.002 158.697L476.135 165.429L417.714 259.249L413.95 261.381ZM486.605 171.219V86.5275L489.647 84.341L503.1 76.4514V161.546L486.605 171.219Z" fill="#2B54E6"/>
<path fill-rule="evenodd" clip-rule="evenodd" d="M238.946 229.483L231.702 240.944L126.88 180.492L126.703 180.374L140.446 172.484L238.946 229.483ZM391.321 220.447L387.761 226.171L385.978 229.026L384.077 231.961L378.961 229.026L278.103 170.874L277.99 170.702L291.728 162.753L387.761 218.373L391.321 220.447Z" fill="#2B54E6"/>
<path fill-rule="evenodd" clip-rule="evenodd" d="M486.605 91.1913L423.579 136.326L419.325 134.027L486.605 86.5275V91.1913Z" fill="#6985EA"/>
<path fill-rule="evenodd" clip-rule="evenodd" d="M325.425 464.503L332.038 460.652L349.233 470.492L342.561 474.353L325.425 464.503ZM256.314 446.887C255.619 447.307 255.026 447.367 254.531 447.06L238.143 437.56C237.642 437.253 237.739 436.903 238.429 436.52L252.172 428.523C252.861 428.141 253.454 428.098 253.955 428.41L270.343 437.85C270.838 438.157 270.746 438.502 270.052 438.884L256.314 446.887ZM252.258 419.077L242.08 425.006C241.859 425.006 241.644 425.006 241.423 425.006C237.012 425.006 233.269 424.107 230.21 422.303C229.973 422.147 229.747 422.034 229.516 421.958C229.246 421.689 228.999 421.517 228.772 421.441C227.502 420.445 226.602 419.427 226.069 418.388C225.687 417.58 225.493 416.718 225.493 415.797C225.493 415.566 225.493 415.372 225.493 415.221C225.493 414.796 225.568 414.435 225.719 414.128C226.338 415.932 227.83 417.504 230.21 418.851C230.668 419.158 231.185 419.443 231.756 419.712C234.481 420.94 237.702 421.554 241.423 421.554C242.683 421.554 243.889 421.479 245.042 421.323C247.788 420.962 250.19 420.213 252.258 419.077ZM67.1615 272.179C67.6085 272.384 68.0609 272.61 68.5133 272.841C68.6156 272.895 68.7233 272.938 68.831 272.981C72.8755 275.136 74.168 278.216 72.7085 282.223C71.1037 284.797 68.8795 286.542 66.0414 287.463C63.591 288.201 61.1891 288.648 58.8249 288.815C58.0602 288.874 57.3062 288.906 56.5523 288.901C54.5058 288.906 52.497 288.696 50.5206 288.265C46.53 287.425 43.3095 285.389 40.8538 282.169C39.976 280.898 39.9167 279.342 40.6868 277.505C42.184 274.586 44.4835 272.588 47.5855 271.517C54.2742 269.115 60.796 269.335 67.1615 272.179ZM40.396 295.584C41.3977 297.921 42.9649 299.628 45.1083 300.706C46.7239 301.535 48.3557 302.181 49.9982 302.633C50.0575 302.65 50.1167 302.666 50.1705 302.693C52.3409 303.274 54.5489 303.533 56.7838 303.474C64.0272 304.007 69.4719 301.395 73.1124 295.638L72.827 300.07C70.452 303.641 67.2477 305.752 63.2248 306.403C58.4802 307.545 54.0696 307.443 49.9982 306.091C47.9194 305.385 45.9215 304.357 44.0204 303.005C42.8679 302.127 41.8124 301.147 40.8538 300.07L40.396 295.584ZM40.8538 291.146L40.396 286.655C42.0063 289.881 44.4243 292.035 47.6448 293.107C49.4866 293.661 51.323 294.055 53.1595 294.286C53.8757 294.378 54.5866 294.442 55.2921 294.491C57.9363 294.652 60.5806 294.48 63.2248 293.974C68.0501 293.236 71.3514 290.807 73.1124 286.655L72.7085 291.146C71.8307 292.837 70.452 294.141 68.5725 295.062C63.7149 297.35 58.631 298.201 53.3372 297.625C52.6425 297.55 51.9531 297.458 51.2638 297.334C51.0107 297.291 50.7629 297.243 50.5206 297.194C46.53 296.462 43.3095 294.448 40.8538 291.146ZM72.827 310.609C68.6479 315.639 63.3002 317.917 56.7838 317.46C54.452 317.524 52.1955 317.244 49.9982 316.625C48.3287 316.167 46.7023 315.499 45.1083 314.638C43.4603 313.754 42.044 312.413 40.8538 310.609L40.7999 305.31C42.8948 308.627 45.9645 310.76 49.9982 311.703C50.1705 311.74 50.3429 311.778 50.5206 311.821C55.5021 312.855 60.6344 312.451 65.9283 310.609C68.8364 309.688 71.136 307.922 72.827 305.31V310.609ZM124.172 356.493C124.328 356.956 124.403 357.473 124.403 358.049C124.403 358.97 124.155 359.87 123.655 360.758C123.428 361.372 123.003 361.965 122.389 362.541C122.163 362.772 121.894 363.004 121.587 363.23C121.511 363.311 121.414 363.386 121.301 363.462C120.838 363.844 120.343 364.21 119.804 364.555C116.664 366.284 112.884 367.145 108.478 367.145C104.149 367.145 100.411 366.284 97.266 364.555C95.5696 363.478 94.3094 362.336 93.4962 361.13C93.3993 361.006 93.3185 360.882 93.2377 360.758C92.78 359.87 92.5484 358.97 92.5484 358.049C92.5484 357.473 92.6238 356.956 92.78 356.493C93.2377 358.022 94.374 359.444 96.1997 360.758C96.5336 360.99 96.889 361.216 97.266 361.448C100.411 363.171 104.149 364.038 108.478 364.038C112.884 364.038 116.664 363.171 119.804 361.448C122.222 359.95 123.676 358.297 124.172 356.493ZM40.8538 319.414L40.396 314.988C42.7656 318.704 45.9699 321.079 49.9982 322.091C51.1184 322.382 52.3139 322.565 53.5634 322.64C54.0642 322.716 54.5381 322.775 55.0013 322.813C56.6115 322.619 58.184 322.581 59.7135 322.7C62.8209 322.355 65.7721 321.434 68.5725 319.931C70.7967 318.784 72.31 317.131 73.1124 314.988L72.9132 318.063L72.827 319.414C72.0515 320.626 71.1467 321.671 70.1235 322.554C69.2188 323.319 68.2225 323.965 67.1346 324.488C67.5924 324.681 68.0609 324.891 68.5402 325.118C68.8903 325.285 69.2403 325.451 69.6065 325.64C70.2958 325.979 70.9098 326.362 71.4483 326.787C72.1754 325.942 72.7354 324.983 73.1124 323.911L73.344 325.171L77.2538 322.064C80.889 320.47 84.4972 319.646 88.0893 319.592C92.2091 319.522 96.302 320.465 100.368 322.414C104.622 324.601 106.023 327.783 104.563 331.973C103.572 333.427 102.172 334.596 100.368 335.479C93.9271 339.087 86.9906 339.626 79.5534 337.095C77.2915 336.325 75.5089 335.156 74.2057 333.583C74.0872 334.041 73.9364 334.521 73.7479 335.021C73.4032 335.598 73.0209 336.131 72.6008 336.632C72.52 336.707 72.4608 336.766 72.4231 336.804C72.1915 337.073 71.9653 337.321 71.7338 337.553C70.4305 338.78 68.8795 339.664 67.0754 340.202C64.4311 341.005 61.8246 341.473 59.2557 341.613C58.9003 341.64 58.5449 341.662 58.1894 341.667C57.4732 341.689 56.7515 341.678 56.0353 341.64C54.5273 341.559 53.0302 341.371 51.5546 341.064C48.7542 340.45 46.3361 339.26 44.3058 337.493C43.8858 337.111 43.4603 336.707 43.0456 336.287C42.6579 335.861 42.2917 335.425 41.947 334.962C41.0315 333.659 40.9561 332.102 41.7208 330.298C41.7962 330.142 41.8932 329.975 42.0063 329.781C41.5862 329.356 41.2038 328.914 40.8538 328.457L40.396 323.911C41.3169 325.365 42.3509 326.615 43.5034 327.654C44.6128 326.383 45.9968 325.403 47.6448 324.714C46.3792 324.175 45.1675 323.54 44.0204 322.813C42.4856 321.973 41.43 320.836 40.8538 319.414ZM41.7747 350.623C43.3472 353.536 45.6683 355.497 48.738 356.493C53.908 358.066 59.0834 358.356 64.2588 357.36C69.0895 356.628 72.4069 354.193 74.2057 350.047L73.9795 347.569C76.0098 349.987 78.8263 351.506 82.4292 352.12C86.0859 352.939 89.6295 353.068 93.0654 352.497C92.7261 353.267 92.5484 354.102 92.5484 355.001C92.5484 355.421 92.613 355.884 92.753 356.38C90.4265 356.773 88.0031 356.795 85.4773 356.439C82.2946 356.132 79.4995 355.227 77.0815 353.73C76.1606 353.386 75.3204 353.1 74.5503 352.869C73.3278 357.899 69.8919 360.834 64.2588 361.674C60.1605 362.632 55.9383 362.632 51.6085 361.674C47.6609 360.834 44.4243 358.857 41.8932 355.75C41.7747 355.287 41.64 354.845 41.4893 354.425C41.22 353.003 41.3169 351.732 41.7747 350.623ZM41.947 345.555C41.0315 344.29 40.9561 342.733 41.7208 340.897C41.7962 340.735 41.8932 340.585 42.0063 340.434C43.5788 343.116 45.8191 344.941 48.738 345.9C53.908 347.435 59.0834 347.72 64.2588 346.767C68.7825 346.078 71.9815 343.886 73.861 340.202C73.9795 339.933 74.0872 339.685 74.2057 339.454L74.1464 339.05C75.762 340.972 77.8839 342.351 80.5335 343.196C85.3265 344.424 90.1519 344.597 95.0257 343.713C95.5804 343.611 96.1297 343.487 96.6575 343.342C96.8136 343.234 96.9752 343.126 97.1475 343.024C98.2246 342.399 99.3771 341.899 100.6 341.5C102.393 340.251 103.874 338.549 105.026 336.4L105.258 338.414L104.886 340.547C106.033 340.396 107.229 340.321 108.478 340.321C112.884 340.321 116.664 341.22 119.804 343.024C122.868 344.866 124.403 347.036 124.403 349.53C124.403 350.488 124.155 351.388 123.655 352.233C122.965 353.58 121.683 354.807 119.804 355.917C116.664 357.721 112.884 358.626 108.478 358.626C106.141 358.626 103.971 358.367 101.978 357.85C100.282 357.392 98.7093 356.752 97.266 355.917C96.9752 355.75 96.7005 355.578 96.4313 355.4C95.1065 354.5 94.1048 353.515 93.4101 352.438C93.3562 352.33 93.297 352.222 93.2377 352.12C92.78 351.35 92.5484 350.488 92.5484 349.53C92.5484 348.857 92.6669 348.199 92.8931 347.569C86.4036 348.566 80.442 347.128 75.0081 343.25C74.7819 343.056 74.5503 342.889 74.3241 342.733C74.3241 343.616 74.1303 344.58 73.7479 345.614C73.554 345.921 73.3602 346.223 73.1717 346.535C72.827 346.993 72.4608 347.419 72.0784 347.806C72.0407 347.839 72.003 347.898 71.9653 347.973C70.5867 349.277 68.9549 350.235 67.0754 350.854C61.7492 352.465 56.5738 352.734 51.5546 351.657C48.6034 351.005 46.0722 349.718 43.9612 347.806C43.2341 347.112 42.561 346.363 41.947 345.555ZM93.2377 396.566C92.78 395.683 92.5484 394.799 92.5484 393.916C92.5484 393.308 92.6238 392.731 92.78 392.193C93.3939 393.916 94.891 395.494 97.266 396.916C100.411 398.715 104.149 399.619 108.478 399.619C112.884 399.619 116.664 398.715 119.804 396.916C122.222 395.494 123.676 393.916 124.172 392.193C124.252 392.495 124.29 392.882 124.29 393.34C125.136 392.306 126.261 391.369 127.683 390.523C127.834 390.523 127.952 390.48 128.028 390.41C131.016 388.752 134.679 387.933 139.014 387.933C143.419 387.933 147.194 388.795 150.334 390.523C153.404 392.328 154.938 394.493 154.938 397.029C154.938 397.95 154.707 398.887 154.249 399.851C153.522 401.117 152.257 402.285 150.452 403.362L150.334 403.535C147.501 405.107 144.13 406.007 140.215 406.243C139.8 406.243 139.391 406.243 139.014 406.243C134.679 406.243 130.941 405.339 127.801 403.535C127.721 403.416 127.645 403.325 127.564 403.244C126.148 402.398 125.06 401.499 124.29 400.54C124.139 400.233 123.983 399.964 123.827 399.733C123.488 399.005 123.234 398.295 123.084 397.605C122.389 398.564 121.301 399.463 119.804 400.309C116.664 402.113 112.884 403.018 108.478 403.018C104.149 403.018 100.411 402.113 97.266 400.309C95.3865 399.119 94.0455 397.869 93.2377 396.566ZM123.428 412.577C124.005 414.338 125.459 415.873 127.801 417.181C130.941 418.942 134.679 419.826 139.014 419.826C143.419 419.826 147.194 418.942 150.334 417.181C152.639 415.873 154.098 414.338 154.707 412.577C154.858 413.153 154.938 413.745 154.938 414.359C154.938 415.167 154.782 415.991 154.481 416.837C153.748 418.253 152.37 419.556 150.334 420.746C147.194 422.551 143.419 423.455 139.014 423.455C134.679 423.455 130.941 422.551 127.801 420.746C126.88 420.208 126.051 419.615 125.324 418.964C125.399 419.271 125.443 419.556 125.443 419.826C125.443 420.903 125.173 421.883 124.635 422.766C124.635 422.841 124.597 422.917 124.522 422.992C123.789 424.182 122.524 425.276 120.725 426.277C117.661 428.119 113.88 429.04 109.399 429.04C105.064 429.04 101.364 428.119 98.3 426.277C96.3451 425.2 94.9826 423.994 94.2125 422.653C93.7978 421.764 93.5878 420.827 93.5878 419.826C93.5878 418.253 94.2125 416.837 95.4834 415.566C96.2859 414.763 97.1906 414.052 98.1869 413.438C99.9479 412.399 101.881 411.688 103.992 411.306C105.716 410.918 107.52 410.73 109.399 410.73C111.047 410.73 112.577 410.848 113.999 411.08C115.259 411.23 116.449 411.537 117.564 412C118.673 412.383 119.729 412.862 120.725 413.438C121.683 413.977 122.47 414.569 123.084 415.221C123.084 414.876 123.084 414.591 123.084 414.359C123.084 413.67 123.197 413.072 123.428 412.577ZM93.1246 374.34C93.7763 375.918 95.1603 377.297 97.266 378.487C100.411 380.291 104.149 381.196 108.478 381.196C112.884 381.196 116.664 380.291 119.804 378.487C120.343 378.142 120.838 377.776 121.301 377.394C122.491 376.473 123.331 375.455 123.827 374.34C124.215 375.186 124.403 376.015 124.403 376.823C124.403 377.701 124.215 378.568 123.827 379.413C123.251 380.447 122.411 381.427 121.301 382.348C120.838 382.693 120.343 383.016 119.804 383.323C118.538 384.018 117.122 384.61 115.55 385.111C113.444 385.644 111.085 385.914 108.478 385.914C105.947 385.914 103.588 385.644 101.402 385.111C99.9103 384.61 98.5262 384.018 97.266 383.323C95.2357 382.138 93.8894 380.83 93.2377 379.413C92.78 378.568 92.5484 377.701 92.5484 376.823C92.5484 375.934 92.7423 375.11 93.1246 374.34ZM92.78 365.018C93.3185 366.898 94.8103 368.551 97.266 369.967C100.411 371.696 104.149 372.563 108.478 372.563C112.884 372.563 116.664 371.696 119.804 369.967C120.343 369.66 120.838 369.316 121.301 368.933C122.793 367.813 123.751 366.553 124.172 365.131C124.328 365.594 124.403 366.149 124.403 366.801C124.403 367.646 124.215 368.508 123.827 369.396C123.251 370.387 122.411 371.33 121.301 372.213C120.838 372.595 120.343 372.945 119.804 373.247C116.664 375.094 112.884 376.015 108.478 376.015C104.149 376.015 100.411 375.094 97.266 373.247C95.3111 372.1 93.9701 370.813 93.2377 369.396C92.78 368.508 92.5484 367.646 92.5484 366.801C92.5484 366.149 92.6238 365.551 92.78 365.018ZM124.172 383.673C124.328 384.206 124.403 384.799 124.403 385.456C124.403 386.221 124.215 387.05 123.827 387.933C123.1 389.349 121.759 390.637 119.804 391.789C116.664 393.631 112.884 394.552 108.478 394.552C104.149 394.552 100.411 393.631 97.266 391.789C95.5427 390.793 94.3148 389.694 93.5878 388.504C93.4316 388.278 93.3185 388.084 93.2377 387.933C92.78 387.05 92.5484 386.221 92.5484 385.456C92.5484 384.799 92.6238 384.206 92.78 383.673C93.2377 385.014 94.1371 386.183 95.4834 387.185C96.0543 387.68 96.6521 388.084 97.266 388.396C100.411 390.195 104.149 391.1 108.478 391.1C112.884 391.1 116.664 390.195 119.804 388.396C120.569 387.933 121.28 387.416 121.931 386.84C123.003 385.914 123.751 384.858 124.172 383.673ZM154.938 406.007C154.938 406.701 154.782 407.488 154.481 408.371C153.748 409.792 152.37 411.112 150.334 412.34C147.194 414.187 143.419 415.108 139.014 415.108C134.679 415.108 130.941 414.187 127.801 412.34C127.031 411.882 126.363 411.424 125.787 410.961C124.791 410.078 124.037 409.216 123.541 408.371C123.466 408.101 123.385 407.811 123.31 407.504C123.159 406.965 123.084 406.432 123.084 405.893C123.084 405.242 123.197 404.644 123.428 404.111C123.579 404.951 123.983 405.78 124.635 406.583C125.475 407.353 126.53 408.139 127.801 408.947C128.221 409.098 128.588 409.292 128.889 409.523C131.803 410.945 135.174 411.656 139.014 411.656C143.419 411.656 147.194 410.751 150.334 408.947C152.138 407.913 153.366 406.76 154.018 405.49C154.325 405.032 154.556 404.569 154.707 404.111C154.858 404.644 154.938 405.242 154.938 405.893V406.007ZM302.197 449.305L288.911 441.653L295.525 437.791L304.842 443.144L327.094 455.87L320.427 459.726L302.197 449.305ZM279.713 439.003L256.082 425.41L262.749 421.5L286.386 435.082L279.713 439.003ZM253.524 418.334C254.795 417.537 255.743 416.653 256.373 415.684C256.674 415.221 256.922 414.704 257.116 414.128C257.272 414.704 257.348 415.259 257.348 415.797C257.348 415.9 257.348 416.007 257.348 416.115L253.524 418.334ZM225.606 405.608C226.22 407.45 227.749 409.082 230.21 410.503C233.269 412.307 237.012 413.207 241.423 413.207C241.956 413.207 242.414 413.207 242.802 413.207C246.674 412.975 249.948 412.071 252.635 410.503C255.123 409.082 256.62 407.504 257.116 405.78C257.272 406.243 257.348 406.701 257.348 407.159C257.348 408.118 257.132 408.979 256.712 409.749C256.023 411.247 254.666 412.555 252.635 413.67C252.059 414.052 251.424 414.397 250.734 414.704C248.93 415.431 246.884 415.91 244.584 416.142C243.545 416.293 242.489 416.373 241.423 416.373C240.152 416.373 238.929 416.293 237.739 416.142C234.901 415.76 232.391 414.93 230.21 413.67C228.25 412.555 226.871 411.247 226.069 409.749C225.687 408.979 225.493 408.118 225.493 407.159C225.493 406.701 225.525 406.184 225.606 405.608ZM226.182 401.289C225.875 400.788 225.644 400.233 225.493 399.619C225.493 399.232 225.493 398.871 225.493 398.526C225.493 396.027 227.022 393.916 230.092 392.193C233.237 390.351 237.012 389.43 241.423 389.43C241.956 389.43 242.451 389.489 242.915 389.597C244.541 389.667 246.07 389.872 247.487 390.206C249.388 390.637 251.1 391.294 252.635 392.193C252.786 392.193 252.937 392.268 253.093 392.425C254.509 393.286 255.576 394.229 256.281 395.246C256.992 396.264 257.348 397.358 257.348 398.526C257.348 399.56 257.1 400.519 256.599 401.402C255.985 402.705 254.816 403.879 253.093 404.913C252.937 404.913 252.786 404.951 252.635 405.032C249.566 406.836 245.828 407.735 241.423 407.735C237.012 407.735 233.269 406.836 230.21 405.032C228.326 403.917 226.99 402.673 226.182 401.289Z" fill="#FFDB59"/>
<path fill-rule="evenodd" clip-rule="evenodd" d="M171.38 131.205C173.572 128.248 176.06 126.288 178.855 125.329V176.055L154.992 162.354V136.843C161.439 139.267 166.899 137.387 171.38 131.205ZM72.7085 282.223L73.1124 286.655C71.3514 290.807 68.0501 293.236 63.2248 293.974C60.5805 294.48 57.9363 294.652 55.2921 294.491C54.5866 294.442 53.8757 294.378 53.1594 294.286C51.323 294.055 49.4866 293.661 47.6448 293.107C44.4243 292.035 42.0062 289.881 40.396 286.655L40.8538 282.169C43.3095 285.389 46.53 287.425 50.5206 288.265C52.497 288.696 54.5058 288.906 56.5523 288.901C57.3062 288.906 58.0602 288.874 58.8249 288.815C61.1891 288.648 63.591 288.201 66.0414 287.463C68.8795 286.542 71.1037 284.797 72.7085 282.223ZM40.396 295.584L40.8538 291.146C43.3095 294.448 46.53 296.462 50.5206 297.194C50.7629 297.243 51.0107 297.291 51.2638 297.334C51.9531 297.458 52.6424 297.55 53.3372 297.625C58.631 298.201 63.7149 297.35 68.5725 295.062C70.452 294.141 71.8307 292.837 72.7085 291.146L72.9993 292.008L73.344 295.293L73.1124 295.638C69.4719 301.395 64.0272 304.007 56.7838 303.474C54.5489 303.533 52.3409 303.274 50.1705 302.693C50.1167 302.666 50.0574 302.65 49.9982 302.633C48.3557 302.181 46.7239 301.535 45.1082 300.706C42.9648 299.628 41.3977 297.921 40.396 295.584ZM72.827 305.31C71.136 307.922 68.8364 309.688 65.9283 310.609C60.6344 312.451 55.5021 312.855 50.5206 311.821C50.3429 311.778 50.1705 311.74 49.9982 311.703C45.9645 310.76 42.8948 308.627 40.7999 305.31L40.8538 300.07C41.8124 301.147 42.8679 302.127 44.0204 303.005C45.9214 304.357 47.9194 305.385 49.9982 306.091C54.0696 307.443 58.4802 307.545 63.2248 306.403C67.2477 305.752 70.452 303.641 72.827 300.07V305.31ZM105.026 336.4C103.874 338.549 102.393 340.251 100.6 341.5C99.3771 341.899 98.2246 342.399 97.1475 343.024C96.9752 343.126 96.8136 343.234 96.6575 343.342C96.1297 343.487 95.5804 343.611 95.0257 343.713C90.1519 344.597 85.3265 344.424 80.5335 343.196C77.8839 342.351 75.762 340.972 74.1464 339.05L74.2057 339.454C74.0872 339.685 73.9795 339.933 73.861 340.202C71.9815 343.886 68.7825 346.078 64.2588 346.767C59.0834 347.72 53.908 347.435 48.738 345.9C45.8191 344.941 43.5788 343.116 42.0062 340.434C41.9308 340.321 41.8716 340.202 41.8339 340.084C41.6831 339.857 41.5646 339.642 41.4892 339.454L41.8932 335.307C40.2021 333.503 39.8575 331.219 40.8538 328.457C41.2038 328.914 41.5862 329.356 42.0062 329.781C41.8932 329.975 41.7962 330.142 41.7208 330.298C40.9561 332.102 41.0315 333.659 41.947 334.962C42.2917 335.425 42.6579 335.862 43.0456 336.287C43.4603 336.707 43.8858 337.111 44.3058 337.493C46.3361 339.26 48.7542 340.45 51.5546 341.064C53.0302 341.371 54.5273 341.559 56.0353 341.64C56.7515 341.678 57.4732 341.689 58.1894 341.667C58.5449 341.662 58.9003 341.64 59.2557 341.613C61.8246 341.473 64.4311 341.005 67.0754 340.202C68.8795 339.664 70.4305 338.78 71.7337 337.553C71.9653 337.321 72.1915 337.073 72.4231 336.804C72.4608 336.766 72.52 336.707 72.6008 336.632C73.0209 336.131 73.4032 335.598 73.7479 335.021C73.9364 334.521 74.0872 334.041 74.2057 333.583C75.5089 335.156 77.2915 336.325 79.5534 337.095C86.9906 339.626 93.9271 339.087 100.368 335.479C102.172 334.596 103.572 333.427 104.563 331.973L105.026 336.4ZM93.1246 374.34C92.7423 373.613 92.5484 372.827 92.5484 371.987C92.5484 371.023 92.78 370.161 93.2377 369.397C93.9701 370.813 95.3111 372.1 97.266 373.247C100.411 375.094 104.149 376.015 108.478 376.015C112.884 376.015 116.664 375.094 119.804 373.247C120.343 372.945 120.838 372.595 121.301 372.213C122.411 371.33 123.251 370.387 123.827 369.397C124.215 370.237 124.403 371.098 124.403 371.987C124.403 372.827 124.215 373.613 123.827 374.34C123.331 375.455 122.491 376.473 121.301 377.394C120.838 377.776 120.343 378.142 119.804 378.487C116.664 380.291 112.884 381.196 108.478 381.196C104.149 381.196 100.411 380.291 97.266 378.487C95.1603 377.297 93.7763 375.918 93.1246 374.34ZM124.172 383.673C123.751 384.858 123.003 385.914 121.931 386.84C121.28 387.416 120.569 387.933 119.804 388.396C116.664 390.195 112.884 391.1 108.478 391.1C104.149 391.1 100.411 390.195 97.266 388.396C96.6521 388.084 96.0543 387.68 95.4834 387.185C94.1371 386.183 93.2377 385.014 92.78 383.673C92.6238 383.054 92.5484 382.499 92.5484 382.004C92.5484 381.083 92.78 380.216 93.2377 379.413C93.8894 380.83 95.2357 382.138 97.266 383.323C98.5262 384.018 99.9102 384.61 101.402 385.111C103.588 385.644 105.947 385.914 108.478 385.914C111.085 385.914 113.444 385.644 115.55 385.111C117.122 384.61 118.538 384.018 119.804 383.323C120.343 383.016 120.838 382.693 121.301 382.348C122.411 381.428 123.251 380.447 123.827 379.413C124.215 380.216 124.403 381.083 124.403 382.004C124.403 382.58 124.328 383.129 124.172 383.673ZM124.172 356.493C123.676 358.297 122.222 359.95 119.804 361.448C116.664 363.171 112.884 364.038 108.478 364.038C104.149 364.038 100.411 363.171 97.266 361.448C96.889 361.216 96.5336 360.99 96.1997 360.758C94.374 359.444 93.2377 358.023 92.78 356.493C92.6238 356.956 92.5484 357.473 92.5484 358.049C92.5484 358.97 92.78 359.87 93.2377 360.758C93.3185 360.882 93.3993 361.006 93.4962 361.13C94.3094 362.336 95.5696 363.478 97.266 364.555C100.411 366.284 104.149 367.145 108.478 367.145C112.884 367.145 116.664 366.284 119.804 364.555C120.343 364.21 120.838 363.844 121.301 363.462C121.414 363.386 121.511 363.311 121.587 363.23C121.894 363.004 122.163 362.772 122.389 362.541C123.003 361.965 123.428 361.372 123.655 360.758C123.773 360.99 123.908 361.254 124.064 361.561C124.29 362.137 124.403 362.772 124.403 363.462C124.403 363.844 124.365 364.291 124.29 364.787C124.29 364.937 124.252 365.056 124.172 365.131C123.751 366.553 122.793 367.813 121.301 368.933C120.838 369.316 120.343 369.66 119.804 369.967C116.664 371.696 112.884 372.563 108.478 372.563C104.149 372.563 100.411 371.696 97.266 369.967C94.8103 368.551 93.3185 366.898 92.78 365.018C92.6238 364.555 92.5484 364.038 92.5484 363.462C92.5484 362.632 92.7153 361.873 93.0385 361.189C91.5467 361.329 90.0657 361.491 88.5793 361.674C83.2155 361.986 78.3847 360.371 74.0872 356.838C74.8196 360.871 73.3601 363.844 69.725 365.767C64.9697 367.953 59.9666 368.739 54.7158 368.126C49.7343 367.781 45.7599 365.799 42.8087 362.196C41.2038 360.279 40.8968 358.125 41.8932 355.75C44.4243 358.857 47.6609 360.834 51.6084 361.674C55.9383 362.632 60.1605 362.632 64.2588 361.674C69.8919 360.834 73.3278 357.899 74.5503 352.869C75.3204 353.1 76.1606 353.386 77.0815 353.73C79.4995 355.227 82.2946 356.132 85.4773 356.439C88.0031 356.795 90.4265 356.773 92.753 356.38C92.613 355.884 92.5484 355.421 92.5484 355.001C92.5484 354.102 92.7261 353.267 93.0654 352.497C89.6295 353.068 86.0859 352.939 82.4292 352.12C78.8263 351.506 76.0098 349.987 73.9795 347.569L74.2057 350.047C72.4069 354.193 69.0895 356.628 64.2588 357.36C59.0834 358.356 53.908 358.066 48.738 356.493C45.6683 355.497 43.3472 353.536 41.7747 350.623C41.6616 350.429 41.5646 350.235 41.4892 350.047L41.947 345.555C42.5609 346.363 43.2341 347.112 43.9612 347.806C46.0722 349.718 48.6034 351.005 51.5546 351.657C56.5738 352.734 61.7492 352.465 67.0754 350.855C68.9549 350.235 70.5867 349.277 71.9653 347.973C72.003 347.898 72.0407 347.839 72.0784 347.806C72.4608 347.419 72.827 346.993 73.1717 346.535C73.3601 346.223 73.554 345.921 73.7479 345.615C74.1303 344.581 74.3241 343.617 74.3241 342.733C74.5503 342.889 74.7819 343.056 75.0081 343.25C80.442 347.128 86.4036 348.566 92.8931 347.569C92.6669 348.2 92.5484 348.857 92.5484 349.53C92.5484 350.488 92.78 351.35 93.2377 352.12C93.297 352.222 93.3562 352.33 93.4101 352.438C94.1048 353.515 95.1065 354.5 96.4313 355.4C96.7005 355.578 96.9752 355.75 97.266 355.917C98.7093 356.752 100.282 357.392 101.978 357.85C103.971 358.367 106.141 358.626 108.478 358.626C112.884 358.626 116.664 357.721 119.804 355.917C121.683 354.807 122.965 353.58 123.655 352.233C124.155 353.041 124.403 353.962 124.403 355.001C124.403 355.534 124.328 356.035 124.172 356.493ZM40.8538 319.414C41.43 320.836 42.4855 321.973 44.0204 322.813C45.1675 323.54 46.3792 324.175 47.6448 324.714C45.9968 325.403 44.6128 326.383 43.5034 327.654C42.3509 326.615 41.3169 325.365 40.396 323.911V320.626L40.8538 319.414ZM73.1124 314.988C72.31 317.131 70.7967 318.784 68.5725 319.931C65.7721 321.434 62.8209 322.355 59.7135 322.7C58.184 322.581 56.6115 322.619 55.0013 322.813C54.5381 322.775 54.0642 322.716 53.5634 322.64C52.3139 322.565 51.1184 322.382 49.9982 322.091C45.9699 321.079 42.7656 318.704 40.396 314.988L40.8538 310.609C42.0439 312.413 43.4603 313.754 45.1082 314.638C46.7023 315.499 48.3287 316.167 49.9982 316.625C52.1955 317.244 54.4519 317.524 56.7838 317.46C63.3002 317.917 68.6479 315.639 72.827 310.609L73.1124 314.988ZM72.827 319.414L73.1124 323.911C72.7354 324.983 72.1754 325.942 71.4483 326.787C70.9098 326.362 70.2958 325.979 69.6065 325.64C69.2403 325.452 68.8902 325.285 68.5402 325.118C68.0609 324.891 67.5924 324.681 67.1346 324.488C68.2225 323.965 69.2188 323.319 70.1235 322.554C71.1467 321.671 72.0515 320.626 72.827 319.414ZM93.2377 396.566C94.0455 397.869 95.3865 399.119 97.266 400.309C100.411 402.113 104.149 403.018 108.478 403.018C112.884 403.018 116.664 402.113 119.804 400.309C121.301 399.463 122.389 398.564 123.084 397.605C123.234 398.295 123.488 399.006 123.827 399.733C123.983 399.964 124.139 400.233 124.29 400.54C125.06 401.499 126.148 402.398 127.564 403.244C127.645 403.325 127.721 403.416 127.801 403.535C130.941 405.339 134.679 406.244 139.014 406.244C139.391 406.244 139.8 406.244 140.215 406.244C144.13 406.007 147.501 405.107 150.334 403.535L150.452 403.362C152.257 402.285 153.522 401.117 154.249 399.851C154.707 400.616 154.938 401.477 154.938 402.441C154.938 403.055 154.858 403.61 154.707 404.111C154.556 404.569 154.325 405.032 154.018 405.49C153.366 406.761 152.138 407.913 150.334 408.947C147.194 410.751 143.419 411.656 139.014 411.656C135.174 411.656 131.803 410.945 128.889 409.523C128.588 409.292 128.221 409.098 127.801 408.947C126.53 408.139 125.475 407.353 124.635 406.583C123.983 405.78 123.579 404.951 123.428 404.111C123.278 403.799 123.159 403.438 123.084 403.018C122.314 404.052 121.22 404.973 119.804 405.78C116.664 407.584 112.884 408.489 108.478 408.489C104.149 408.489 100.411 407.584 97.266 405.78C94.1963 404.009 92.6238 401.881 92.5484 399.388C92.5484 398.354 92.78 397.411 93.2377 396.566ZM92.78 392.193C92.6238 391.617 92.5484 391.057 92.5484 390.523C92.5484 389.98 92.6238 389.463 92.78 388.967C92.8607 388.66 93.0115 388.315 93.2377 387.933C93.3185 388.084 93.4316 388.278 93.5878 388.504C94.3148 389.694 95.5427 390.793 97.266 391.789C100.411 393.631 104.149 394.552 108.478 394.552C112.884 394.552 116.664 393.631 119.804 391.789C121.759 390.637 123.1 389.349 123.827 387.933C124.215 388.698 124.403 389.565 124.403 390.523C124.403 391.057 124.328 391.617 124.172 392.193C123.676 393.916 122.222 395.494 119.804 396.916C116.664 398.715 112.884 399.619 108.478 399.619C104.149 399.619 100.411 398.715 97.266 396.916C94.891 395.494 93.3939 393.916 92.78 392.193ZM94.2125 422.653C94.9826 423.994 96.3451 425.2 98.3 426.277C101.364 428.119 105.064 429.04 109.399 429.04C113.88 429.04 117.661 428.119 120.725 426.277C122.524 425.276 123.789 424.182 124.522 422.992C124.597 422.917 124.635 422.841 124.635 422.766C125.173 421.883 125.443 420.903 125.443 419.826C125.443 419.556 125.399 419.271 125.324 418.964C126.051 419.616 126.88 420.208 127.801 420.746C130.941 422.551 134.679 423.455 139.014 423.455C143.419 423.455 147.194 422.551 150.334 420.746C152.37 419.556 153.748 418.253 154.481 416.837C154.782 417.639 154.938 418.425 154.938 419.195C154.938 421.727 153.404 423.897 150.334 425.701C147.194 427.43 143.419 428.291 139.014 428.291C134.679 428.291 130.941 427.43 127.801 425.701C126.8 425.006 125.9 424.339 125.092 423.687C125.324 424.263 125.443 424.856 125.443 425.469C125.443 428.006 123.87 430.171 120.725 431.975C117.661 433.779 113.88 434.684 109.399 434.684C105.064 434.684 101.364 433.779 98.3 431.975C95.1603 430.171 93.5878 428.006 93.5878 425.469C93.5878 424.511 93.7978 423.568 94.2125 422.653ZM154.707 412.577C154.098 414.338 152.639 415.873 150.334 417.181C147.194 418.942 143.419 419.826 139.014 419.826C134.679 419.826 130.941 418.942 127.801 417.181C125.459 415.873 124.005 414.338 123.428 412.577C123.197 411.957 123.084 411.344 123.084 410.73C123.084 409.846 123.234 409.06 123.541 408.371C124.037 409.216 124.791 410.078 125.787 410.961C126.363 411.424 127.031 411.882 127.801 412.34C130.941 414.187 134.679 415.108 139.014 415.108C143.419 415.108 147.194 414.187 150.334 412.34C152.37 411.112 153.748 409.793 154.481 408.371C154.782 409.141 154.938 409.927 154.938 410.73C154.938 411.344 154.858 411.957 154.707 412.577ZM242.08 425.006L234.492 429.417C232.973 428.97 231.508 428.361 230.092 427.597C228.137 426.412 226.715 424.872 225.837 422.992C225.606 422.303 225.493 421.63 225.493 420.978C225.493 420.063 225.687 419.195 226.069 418.388C226.602 419.427 227.502 420.445 228.773 421.441C228.999 421.517 229.246 421.689 229.516 421.958C229.747 422.034 229.973 422.147 230.21 422.303C233.269 424.107 237.012 425.006 241.423 425.006C241.644 425.006 241.859 425.006 242.08 425.006ZM257.116 414.128C256.922 414.704 256.674 415.221 256.373 415.684C255.743 416.654 254.795 417.537 253.524 418.334C253.244 418.506 252.948 418.678 252.635 418.851C252.571 418.883 252.511 418.921 252.458 418.964L252.258 419.077C250.19 420.213 247.788 420.962 245.042 421.323C243.889 421.479 242.683 421.554 241.423 421.554C237.702 421.554 234.481 420.94 231.756 419.712C231.185 419.443 230.668 419.158 230.21 418.851C227.83 417.504 226.338 415.932 225.719 414.128C225.568 413.508 225.493 412.959 225.493 412.458C225.493 411.462 225.687 410.563 226.069 409.749C226.871 411.247 228.25 412.555 230.21 413.67C232.392 414.93 234.901 415.76 237.739 416.142C238.929 416.293 240.152 416.373 241.423 416.373C242.489 416.373 243.545 416.293 244.584 416.142C246.884 415.91 248.93 415.431 250.734 414.704C251.424 414.397 252.059 414.052 252.635 413.67C254.666 412.555 256.023 411.247 256.712 409.749C257.132 410.633 257.348 411.537 257.348 412.458C257.348 413.035 257.272 413.589 257.116 414.128ZM257.116 405.78C256.62 407.504 255.123 409.082 252.635 410.503C249.948 412.071 246.674 412.975 242.802 413.207C242.414 413.207 241.956 413.207 241.423 413.207C237.012 413.207 233.269 412.308 230.21 410.503C227.749 409.082 226.22 407.45 225.606 405.608C225.525 405.145 225.493 404.644 225.493 404.111C225.493 403.147 225.719 402.21 226.182 401.289C226.99 402.673 228.326 403.917 230.21 405.032C233.269 406.836 237.012 407.735 241.423 407.735C245.828 407.735 249.566 406.836 252.635 405.032C252.786 404.951 252.937 404.913 253.093 404.913C254.816 403.879 255.985 402.705 256.599 401.402C257.1 402.248 257.348 403.147 257.348 404.111C257.348 404.644 257.272 405.204 257.116 405.78Z" fill="#FD9C3C"/>
<path fill-rule="evenodd" clip-rule="evenodd" d="M212.611 392.306C210.424 392.306 208.663 391.827 207.322 390.868C205.825 390.173 205.001 389.199 204.85 387.933C204.85 386.738 205.669 385.8 207.322 385.111C208.663 384.153 210.349 383.673 212.385 383.673C214.603 383.673 216.461 384.056 217.959 384.82C219.262 385.704 219.913 386.738 219.913 387.933C219.913 389.199 219.262 390.292 217.959 391.213C216.273 391.945 214.49 392.306 212.611 392.306ZM171.213 343.886L134.867 364.555L202.949 403.535L238.832 382.58L171.213 343.886ZM161.207 354.71C163.388 354.71 165.23 355.077 166.722 355.804C167.993 356.73 168.623 357.823 168.623 359.083C168.623 360.198 167.993 361.232 166.722 362.196C165.074 362.886 163.313 363.23 161.439 363.23C159.214 363.23 157.448 362.81 156.145 361.965C154.648 361.157 153.829 360.198 153.673 359.083C153.673 357.823 154.497 356.805 156.145 356.035C157.448 355.147 159.139 354.71 161.207 354.71ZM201.657 363.893C202.099 364.103 202.529 364.318 202.949 364.555C203.58 364.905 204.167 365.271 204.705 365.654C208.022 367.937 209.681 370.678 209.681 373.883C209.681 377.491 207.435 380.56 202.949 383.097C200.688 384.513 198.14 385.531 195.302 386.145C192.696 386.759 189.857 387.066 186.793 387.066C180.584 387.066 175.274 385.747 170.869 383.097C166.458 380.717 164.137 377.604 163.905 373.764C164.061 371.771 164.81 369.914 166.151 368.185C167.416 366.838 168.989 365.632 170.869 364.555C175.274 362.024 180.584 360.758 186.793 360.758C192.432 360.758 197.381 361.803 201.657 363.893ZM253.093 383.673L242.915 389.597C242.451 389.489 241.956 389.43 241.423 389.43C237.012 389.43 233.237 390.351 230.092 392.193C227.022 393.916 225.493 396.027 225.493 398.526C225.493 398.871 225.493 399.232 225.493 399.619L205.077 411.306L124.29 364.787C124.365 364.291 124.403 363.844 124.403 363.462C124.403 362.772 124.29 362.137 124.064 361.561L160.599 340.321L169.081 335.366L253.093 383.673Z" fill="#D9FDC7"/>
<path fill-rule="evenodd" clip-rule="evenodd" d="M212.611 392.306C214.49 392.306 216.273 391.945 217.959 391.213C219.262 390.292 219.914 389.199 219.914 387.933C219.914 386.738 219.262 385.704 217.959 384.82C216.461 384.056 214.603 383.673 212.385 383.673C210.349 383.673 208.663 384.153 207.322 385.111C205.669 385.8 204.85 386.738 204.85 387.933C205.001 389.199 205.825 390.173 207.322 390.868C208.663 391.827 210.424 392.306 212.611 392.306ZM171.213 343.886L238.832 382.58L202.949 403.535L134.867 364.555L171.213 343.886ZM201.657 363.893C197.381 361.803 192.432 360.758 186.793 360.758C180.584 360.758 175.274 362.024 170.869 364.555C168.989 365.632 167.416 366.838 166.151 368.185C164.81 369.913 164.061 371.771 163.905 373.764C164.137 377.604 166.458 380.717 170.869 383.097C175.274 385.747 180.584 387.066 186.793 387.066C189.857 387.066 192.696 386.759 195.302 386.145C198.14 385.531 200.688 384.513 202.949 383.097C207.435 380.56 209.681 377.491 209.681 373.883C209.681 370.678 208.023 367.937 204.705 365.654C204.167 365.271 203.58 364.905 202.949 364.555C202.529 364.318 202.099 364.103 201.657 363.893ZM161.207 354.71C159.139 354.71 157.448 355.147 156.145 356.035C154.497 356.805 153.673 357.823 153.673 359.083C153.829 360.198 154.648 361.157 156.145 361.965C157.448 362.81 159.214 363.23 161.439 363.23C163.313 363.23 165.074 362.886 166.722 362.196C167.993 361.232 168.623 360.198 168.623 359.083C168.623 357.823 167.993 356.73 166.722 355.804C165.23 355.077 163.388 354.71 161.207 354.71Z" fill="#7DBF5C"/>
<path fill-rule="evenodd" clip-rule="evenodd" d="M124.172 383.673C124.328 383.129 124.403 382.58 124.403 382.004C124.403 381.083 124.215 380.216 123.827 379.413C124.215 378.568 124.403 377.701 124.403 376.823C124.403 376.015 124.215 375.186 123.827 374.34C124.215 373.613 124.403 372.827 124.403 371.987C124.403 371.098 124.215 370.237 123.827 369.397C124.215 368.508 124.403 367.646 124.403 366.801C124.403 366.149 124.328 365.594 124.172 365.131C124.252 365.056 124.29 364.937 124.29 364.787L205.077 411.306V434.91L154.938 406.007V405.893C154.938 405.242 154.858 404.644 154.707 404.111C154.858 403.61 154.938 403.055 154.938 402.441C154.938 401.477 154.707 400.616 154.249 399.851C154.707 398.887 154.938 397.95 154.938 397.029C154.938 394.493 153.404 392.328 150.334 390.523C147.194 388.795 143.419 387.933 139.014 387.933C134.679 387.933 131.016 388.752 128.028 390.41L123.827 387.933C124.215 387.05 124.403 386.221 124.403 385.456C124.403 384.799 124.328 384.206 124.172 383.673ZM211.405 446.257C211.631 446.489 211.938 446.693 212.325 446.887L300.932 497.785C303.538 499.32 306.145 499.336 308.751 497.839L359.697 468.246C360.925 467.562 361.577 466.867 361.652 466.172C363.187 467.443 362.859 468.731 360.678 470.034L309.731 499.686C307.125 501.14 304.497 501.102 301.853 499.567L213.3 448.67C211.884 447.905 211.248 447.097 211.405 446.257Z" fill="#6D905C"/>
<path fill-rule="evenodd" clip-rule="evenodd" d="M128.028 390.41C127.952 390.48 127.834 390.523 127.683 390.523C126.261 391.369 125.136 392.306 124.29 393.34C124.29 392.882 124.252 392.495 124.172 392.193C124.328 391.617 124.403 391.057 124.403 390.523C124.403 389.565 124.215 388.698 123.827 387.933L128.028 390.41ZM123.428 412.577C123.197 413.072 123.084 413.67 123.084 414.359C123.084 414.591 123.084 414.876 123.084 415.221C122.47 414.569 121.683 413.977 120.725 413.438C119.729 412.862 118.673 412.383 117.564 412.001C118.328 412.146 119.152 412.264 120.036 412.34C120.8 412.609 121.549 412.938 122.276 413.32C122.658 413.013 123.046 412.765 123.428 412.577Z" fill="#CEDEFE"/>
<path fill-rule="evenodd" clip-rule="evenodd" d="M253.093 392.425C252.937 392.268 252.786 392.193 252.635 392.193C251.1 391.294 249.388 390.637 247.487 390.206C246.07 389.872 244.541 389.667 242.915 389.597L253.093 383.673V392.425ZM205.077 434.91V411.306L225.493 399.619C225.644 400.233 225.875 400.788 226.182 401.289C225.719 402.21 225.493 403.147 225.493 404.111C225.493 404.644 225.525 405.145 225.606 405.608C225.525 406.184 225.493 406.701 225.493 407.159C225.493 408.118 225.687 408.979 226.069 409.749C225.687 410.563 225.493 411.462 225.493 412.458C225.493 412.959 225.568 413.508 225.719 414.128C225.568 414.435 225.493 414.796 225.493 415.221C225.493 415.372 225.493 415.566 225.493 415.797C225.493 416.718 225.687 417.58 226.069 418.388C225.687 419.195 225.493 420.063 225.493 420.978C225.493 421.63 225.606 422.303 225.837 422.992L205.195 434.91H205.077Z" fill="#395C27"/>
<path fill-rule="evenodd" clip-rule="evenodd" d="M269.362 467.443C269.362 469.016 270.359 470.378 272.357 471.531C274.306 472.683 276.687 473.217 279.482 473.141C282.282 473.141 284.657 472.603 286.612 471.531C288.567 470.341 289.531 468.941 289.488 467.325C289.488 465.715 288.491 464.336 286.499 463.184C284.582 462.031 282.223 461.471 279.428 461.514C276.665 461.514 274.29 462.09 272.297 463.243C270.343 464.395 269.362 465.79 269.362 467.443ZM256.314 446.887L270.052 438.885C270.746 438.502 270.838 438.158 270.343 437.851L253.955 428.41C253.454 428.098 252.861 428.141 252.172 428.523L238.429 436.52C237.739 436.903 237.642 437.253 238.143 437.56L254.531 447.06C255.026 447.367 255.619 447.307 256.314 446.887ZM279.713 439.003L286.386 435.082L262.749 421.5L256.082 425.41L279.713 439.003ZM308.638 434.28L304.842 443.144L295.525 437.791L288.911 441.653L302.197 449.305L285.233 488.339L212.724 446.656C210.575 445.396 210.236 444.125 211.69 442.854C211.922 442.552 212.266 442.283 212.724 442.051L234.492 429.417L242.08 425.006L252.258 419.077L252.458 418.964C252.511 418.921 252.571 418.883 252.635 418.851C252.948 418.678 253.244 418.506 253.524 418.334L257.348 416.115L263.729 412.399C266.298 410.902 268.905 410.945 271.549 412.518L308.811 433.93L308.638 434.28Z" fill="#2B1F9B"/>
<path fill-rule="evenodd" clip-rule="evenodd" d="M269.362 467.443C269.362 465.79 270.343 464.395 272.297 463.243C274.29 462.09 276.665 461.514 279.428 461.514C282.223 461.471 284.582 462.031 286.499 463.184C288.491 464.336 289.488 465.715 289.488 467.325C289.531 468.941 288.567 470.341 286.612 471.531C284.657 472.603 282.282 473.141 279.482 473.141C276.687 473.217 274.306 472.683 272.357 471.531C270.359 470.378 269.362 469.016 269.362 467.443Z" fill="white"/>
<path fill-rule="evenodd" clip-rule="evenodd" d="M292.482 484.37C292.482 482.183 293.801 480.261 296.446 478.613C299.171 477.035 302.483 476.249 306.393 476.249C310.302 476.173 313.62 476.943 316.345 478.554C319.064 480.126 320.405 482.006 320.368 484.197C320.405 486.384 319.064 488.323 316.345 490.014C313.657 491.586 310.383 492.372 306.511 492.372C302.558 492.41 299.225 491.624 296.505 490.014C293.78 488.436 292.439 486.562 292.482 484.37Z" fill="#ED428B"/>
<path fill-rule="evenodd" clip-rule="evenodd" d="M200.418 131.84C201.797 132.874 203.084 134.043 204.274 135.346V190.676L180.411 176.976V124.872C185.932 123.644 192.599 125.965 200.418 131.84Z" fill="#2B54E6"/>
</svg>
