<?xml version="1.0" encoding="UTF-8"?>
<svg xmlns="http://www.w3.org/2000/svg" xmlns:xlink="http://www.w3.org/1999/xlink" width="375pt" height="374.999991pt" viewBox="0 0 375 374.999991" version="1.2">
<defs>
<clipPath id="clip1">
  <path d="M 29.082031 12.058594 L 365.289062 12.058594 L 365.289062 363.058594 L 29.082031 363.058594 Z M 29.082031 12.058594 "/>
</clipPath>
<clipPath id="clip2">
  <path d="M 71 12.058594 L 298 12.058594 L 298 295 L 71 295 Z M 71 12.058594 "/>
</clipPath>
<clipPath id="clip3">
  <path d="M 89.140625 264.296875 L 263.480469 264.296875 L 263.480469 363.058594 L 89.140625 363.058594 Z M 89.140625 264.296875 "/>
</clipPath>
</defs>
<g id="surface1">
<g clip-path="url(#clip1)" clip-rule="nonzero">
<path style=" stroke:none;fill-rule:evenodd;fill:rgb(79.60968%,12.548828%,41.178894%);fill-opacity:1;" d="M 112.539062 233.148438 L 112.539062 244.671875 L 116.402344 246.847656 L 89.941406 262.253906 C 89.828125 262.03125 89.753906 261.839844 89.671875 261.671875 C 90.03125 261.027344 90.222656 260.375 90.222656 259.707031 C 90.222656 259.289062 90.175781 258.914062 90.0625 258.578125 C 90.175781 258.246094 90.234375 257.882812 90.234375 257.496094 C 90.234375 256.742188 90.054688 256.074219 89.691406 255.488281 C 90.054688 254.875 90.234375 254.222656 90.234375 253.527344 C 90.234375 251.71875 89.121094 250.144531 86.898438 248.808594 C 84.621094 247.5 81.878906 246.847656 78.683594 246.847656 C 77.777344 246.847656 76.910156 246.902344 76.078125 247.011719 L 76.347656 245.464844 L 76.179688 244.003906 L 75.84375 240.792969 C 76.902344 237.753906 75.886719 235.445312 72.800781 233.859375 C 69.851562 232.445312 66.882812 231.671875 63.894531 231.71875 L 75.597656 212.871094 L 75.636719 212.871094 L 86.980469 194.757812 C 96.199219 200.519531 109.058594 208.351562 125.5625 218.148438 C 124.503906 221.21875 123.5 223.386719 122.71875 224.605469 C 120.578125 227.945312 117.542969 230.808594 112.539062 233.148438 Z M 355.34375 61.175781 L 353.042969 62.761719 L 304.199219 97.214844 L 307.261719 98.882812 L 318.238281 104.960938 L 298.027344 137.242188 C 297.882812 137.199219 297.726562 137.179688 297.566406 137.179688 L 84.605469 12.769531 C 83.605469 12.296875 82.839844 12.0625 82.3125 12.0625 C 82.03125 12.0625 81.558594 12.1875 80.890625 12.4375 L 79.976562 12.769531 L 71.175781 17.449219 C 71.066406 17.589844 70.578125 18.050781 70.105469 18.828125 C 69.691406 19.550781 69.996094 19.996094 69.160156 20.164062 L 69.160156 164.242188 L 48.523438 197.421875 C 43.90625 195.359375 39.269531 195.199219 34.417969 196.941406 C 32.167969 197.71875 30.546875 199.167969 29.460938 201.285156 C 28.90625 202.617188 28.96875 203.746094 29.613281 204.667969 L 29.289062 207.921875 L 29.628906 211.179688 L 29.300781 214.398438 L 29.632812 217.652344 L 29.59375 221.453125 L 29.632812 225.296875 L 29.300781 228.472656 L 29.542969 231.683594 L 29.121094 232.5625 L 29.121094 234.945312 L 29.546875 238.242188 C 28.824219 240.246094 29.117188 241.902344 30.339844 243.210938 L 30.070312 246.21875 C 30.125 246.355469 30.222656 246.511719 30.332031 246.675781 C 30.359375 246.761719 30.40625 246.847656 30.460938 246.929688 C 30.378906 247.039062 30.3125 247.148438 30.257812 247.265625 C 29.703125 248.597656 29.757812 249.726562 30.425781 250.644531 L 30.09375 253.902344 C 30.148438 254.039062 30.21875 254.179688 30.300781 254.320312 C 29.96875 255.125 29.898438 256.046875 30.09375 257.078125 C 30.203125 257.382812 30.300781 257.703125 30.386719 258.039062 C 29.664062 259.761719 29.886719 261.324219 31.050781 262.714844 C 33.191406 265.328125 36.074219 266.765625 39.6875 267.015625 C 43.496094 267.460938 47.125 266.890625 50.574219 265.304688 C 53.210938 263.910156 54.269531 261.753906 53.738281 258.828125 C 56.855469 261.390625 60.359375 262.5625 64.25 262.335938 C 65.328125 262.203125 66.402344 262.085938 67.484375 261.984375 C 67.25 262.480469 67.128906 263.03125 67.128906 263.632812 C 67.128906 264.050781 67.183594 264.425781 67.296875 264.761719 C 67.183594 265.148438 67.128906 265.582031 67.128906 266.054688 C 67.128906 266.667969 67.296875 267.292969 67.628906 267.9375 C 67.296875 268.492188 67.128906 269.117188 67.128906 269.816406 C 67.128906 270.425781 67.269531 270.996094 67.546875 271.523438 C 67.269531 272.082031 67.128906 272.679688 67.128906 273.324219 C 67.128906 273.960938 67.296875 274.589844 67.628906 275.203125 C 67.296875 275.785156 67.128906 276.414062 67.128906 277.082031 C 67.128906 277.441406 67.183594 277.84375 67.296875 278.292969 C 67.183594 278.679688 67.128906 279.109375 67.128906 279.585938 C 67.128906 280.140625 67.296875 280.742188 67.628906 281.382812 C 67.464844 281.660156 67.355469 281.910156 67.296875 282.132812 C 67.183594 282.492188 67.128906 282.867188 67.128906 283.261719 C 67.128906 283.648438 67.183594 284.054688 67.296875 284.472656 C 67.183594 284.863281 67.128906 285.28125 67.128906 285.722656 C 67.128906 286.363281 67.296875 287.003906 67.628906 287.644531 C 67.296875 288.257812 67.128906 288.941406 67.128906 289.691406 C 67.183594 291.5 68.324219 293.042969 70.550781 294.328125 C 72.832031 295.636719 75.542969 296.292969 78.683594 296.292969 C 81.878906 296.292969 84.621094 295.636719 86.898438 294.328125 C 87.925781 293.742188 88.71875 293.074219 89.277344 292.324219 C 89.332031 292.628906 89.417969 292.890625 89.527344 293.117188 C 89.359375 293.503906 89.277344 293.9375 89.277344 294.410156 C 89.277344 294.800781 89.332031 295.1875 89.441406 295.578125 C 89.496094 295.800781 89.554688 296.011719 89.609375 296.207031 C 89.386719 296.707031 89.277344 297.277344 89.277344 297.917969 C 89.277344 298.363281 89.359375 298.808594 89.527344 299.257812 C 89.25 299.394531 88.96875 299.574219 88.691406 299.796875 C 88.164062 299.519531 87.621094 299.28125 87.066406 299.085938 C 86.425781 299.03125 85.828125 298.945312 85.273438 298.839844 C 84.464844 298.503906 83.601562 298.28125 82.6875 298.171875 C 81.65625 298.003906 80.546875 297.917969 79.351562 297.917969 C 77.988281 297.917969 76.679688 298.054688 75.429688 298.335938 C 73.898438 298.613281 72.496094 299.128906 71.21875 299.882812 C 70.496094 300.328125 69.839844 300.84375 69.257812 301.425781 C 68.335938 302.347656 67.882812 303.375 67.882812 304.515625 C 67.882812 305.242188 68.035156 305.921875 68.335938 306.566406 C 68.035156 307.230469 67.882812 307.914062 67.882812 308.609375 C 67.882812 310.449219 69.023438 312.019531 71.300781 313.328125 C 73.523438 314.636719 76.207031 315.292969 79.351562 315.292969 C 82.601562 315.292969 85.34375 314.636719 87.566406 313.328125 C 89.847656 312.019531 90.988281 310.449219 90.988281 308.609375 C 90.988281 308.164062 90.902344 307.734375 90.734375 307.316406 C 91.320312 307.789062 91.972656 308.273438 92.699219 308.777344 C 94.976562 310.03125 97.6875 310.65625 100.832031 310.65625 C 104.027344 310.65625 106.765625 310.03125 109.042969 308.777344 C 111.269531 307.46875 112.382812 305.894531 112.382812 304.058594 C 112.382812 303.5 112.269531 302.929688 112.050781 302.347656 C 112.269531 301.734375 112.382812 301.136719 112.382812 300.550781 C 112.382812 300.105469 112.324219 299.675781 112.214844 299.257812 C 112.324219 298.808594 112.382812 298.363281 112.382812 297.917969 C 112.382812 297.335938 112.269531 296.765625 112.050781 296.207031 C 112.269531 295.566406 112.382812 295.066406 112.382812 294.570312 L 148.75 315.605469 L 148.835938 315.605469 L 163.808594 306.886719 C 164.445312 308.25 165.476562 309.328125 166.894531 310.191406 C 167.921875 310.746094 168.984375 311.164062 170.085938 311.488281 L 154.296875 320.644531 C 153.964844 320.8125 153.714844 321.003906 153.546875 321.226562 C 152.351562 322.03125 152.285156 322.851562 153.339844 323.6875 C 153.226562 324.300781 153.6875 324.882812 154.714844 325.4375 L 218.945312 362.355469 C 220.863281 363.472656 222.769531 363.496094 224.660156 362.441406 L 261.613281 340.933594 C 263.195312 339.988281 263.433594 339.054688 262.320312 338.132812 C 262.402344 337.519531 261.917969 336.910156 260.859375 336.296875 L 223.867188 315 L 223.992188 314.746094 L 196.964844 299.214844 C 195.046875 298.074219 193.210938 298.042969 191.347656 299.128906 L 186.777344 301.824219 C 186.777344 301.746094 186.777344 301.667969 186.777344 301.59375 C 186.777344 301.203125 186.664062 300.800781 186.550781 300.382812 C 186.664062 299.992188 186.691406 299.589844 186.691406 299.171875 C 186.691406 298.503906 186.523438 297.847656 186.21875 297.207031 C 186.523438 296.648438 186.667969 296.023438 186.667969 295.328125 C 186.667969 294.996094 186.609375 294.664062 186.5 294.328125 C 186.609375 293.910156 186.667969 293.503906 186.667969 293.117188 C 186.667969 292.417969 186.484375 291.765625 186.121094 291.152344 C 186.484375 290.511719 186.664062 289.816406 186.664062 289.066406 C 186.664062 288.21875 186.40625 287.425781 185.890625 286.6875 L 219.863281 306.1875 L 241.089844 294.453125 C 241.132812 290.871094 240.742188 287.617188 239.925781 284.679688 C 243.886719 286.925781 247.765625 289.125 251.558594 291.28125 C 274.359375 304.167969 286.175781 310.613281 287.011719 310.613281 C 287.34375 310.613281 287.789062 310.546875 288.347656 310.40625 C 288.789062 310.238281 289.140625 310.085938 289.390625 309.945312 C 295.476562 306.269531 298.789062 304.097656 299.316406 303.433594 C 299.621094 303.097656 299.730469 302.625 299.648438 302.011719 C 299.566406 301.09375 299.578125 300.300781 299.691406 299.632812 C 300.050781 297.347656 300.246094 276.394531 300.273438 236.78125 C 300.261719 218.828125 300.257812 203.09375 300.253906 189.589844 L 302.984375 188.042969 L 345.359375 119.992188 L 353.128906 124.191406 L 365.285156 117.175781 L 365.285156 55.453125 L 355.34375 61.175781 "/>
</g>
<path style=" stroke:none;fill-rule:evenodd;fill:rgb(34.509277%,34.509277%,77.249146%);fill-opacity:1;" d="M 233.417969 280.964844 C 235.609375 282.214844 237.777344 283.457031 239.925781 284.679688 C 240.742188 287.617188 241.132812 290.871094 241.089844 294.453125 L 219.863281 306.1875 L 219.863281 294.703125 C 224.449219 292.367188 227.84375 289.523438 230.039062 286.183594 C 230.78125 285.023438 231.90625 283.28125 233.417969 280.964844 "/>
<path style=" stroke:none;fill-rule:evenodd;fill:rgb(67.059326%,69.40918%,92.158508%);fill-opacity:1;" d="M 155.050781 109.617188 C 158.664062 116.128906 162.515625 121.964844 166.601562 127.117188 L 166.601562 148.875 L 149.292969 138.933594 L 149.292969 99.675781 C 150.40625 101.402344 152.324219 104.71875 155.050781 109.617188 Z M 100.871094 90.28125 C 104.652344 94.511719 108.128906 97.355469 111.296875 98.800781 L 111.296875 117.136719 L 93.988281 107.195312 L 93.988281 87.234375 C 96.351562 86.84375 98.648438 87.871094 100.871094 90.324219 Z M 230.039062 286.183594 L 122.808594 224.628906 C 123.585938 223.410156 124.503906 221.269531 125.5625 218.199219 C 139.945312 226.738281 157.097656 236.816406 177.027344 248.433594 C 197.308594 260.21875 216.101562 271.066406 233.417969 280.964844 C 231.90625 283.28125 230.78125 285.023438 230.039062 286.183594 Z M 186.664062 219.03125 L 186.664062 218.867188 L 219.445312 237.824219 C 220.808594 238.632812 221.972656 239.882812 222.949219 241.582031 C 223.949219 243.28125 224.449219 244.9375 224.449219 246.554688 C 224.449219 248.136719 223.949219 249.210938 222.949219 249.769531 C 222.507812 250.03125 222.03125 250.15625 221.507812 250.144531 C 220.878906 250.113281 220.191406 249.878906 219.445312 249.433594 L 186.664062 230.515625 Z M 293.121094 145.074219 L 289.390625 151.042969 L 289.390625 147.117188 Z M 112.71875 233.148438 L 219.863281 294.703125 L 219.863281 306.1875 L 185.890625 286.6875 C 185.378906 285.949219 184.605469 285.265625 183.578125 284.640625 L 183.578125 278.292969 L 122.640625 243.253906 L 116.488281 246.847656 L 112.71875 244.671875 Z M 289.390625 309.945312 L 289.390625 195.707031 L 300.253906 189.589844 C 300.257812 203.09375 300.261719 218.828125 300.273438 236.78125 C 300.246094 276.394531 300.050781 297.347656 299.691406 299.632812 C 299.578125 300.300781 299.566406 301.09375 299.648438 302.011719 C 299.730469 302.625 299.621094 303.097656 299.316406 303.433594 C 298.789062 304.097656 295.476562 306.269531 289.390625 309.945312 "/>
<g clip-path="url(#clip2)" clip-rule="nonzero">
<path style=" stroke:none;fill-rule:evenodd;fill:rgb(85.879517%,87.449646%,100%);fill-opacity:1;" d="M 219.863281 294.703125 L 112.71875 233.148438 C 117.304688 230.808594 120.667969 227.96875 122.808594 224.628906 L 230.039062 286.183594 C 227.84375 289.523438 224.449219 292.367188 219.863281 294.703125 Z M 287.136719 142.691406 L 71.175781 17.449219 L 79.976562 12.769531 L 80.890625 12.4375 C 81.558594 12.1875 82.03125 12.0625 82.308594 12.0625 C 82.839844 12.0625 83.601562 12.296875 84.605469 12.769531 L 297.5625 137.179688 L 287.136719 142.691406 "/>
</g>
<path style=" stroke:none;fill-rule:evenodd;fill:rgb(79.219055%,81.17981%,96.078491%);fill-opacity:1;" d="M 298.023438 137.242188 L 293.121094 145.074219 L 289.390625 147.117188 C 289.335938 146.339844 289.238281 145.753906 289.097656 145.363281 C 288.902344 144.777344 288.25 143.886719 287.136719 142.691406 L 297.5625 137.179688 C 297.722656 137.179688 297.875 137.199219 298.023438 137.242188 "/>
<path style=" stroke:none;fill-rule:evenodd;fill:rgb(36.079407%,36.079407%,77.648926%);fill-opacity:1;" d="M 212.148438 351.332031 C 212.117188 352.921875 213.089844 354.28125 215.066406 355.425781 C 217.039062 356.59375 219.457031 357.164062 222.324219 357.136719 C 225.132812 357.136719 227.507812 356.566406 229.457031 355.425781 C 231.429688 354.199219 232.402344 352.792969 232.375 351.207031 C 232.402344 349.617188 231.429688 348.253906 229.457031 347.113281 C 227.480469 345.945312 225.074219 345.386719 222.238281 345.441406 C 219.402344 345.441406 217 346.011719 215.023438 347.15625 C 213.105469 348.351562 212.148438 349.746094 212.148438 351.332031 Z M 207.117188 171.171875 L 208.265625 169.335938 L 208.265625 171.84375 Z M 155.050781 109.617188 C 152.324219 104.71875 150.40625 101.402344 149.292969 99.675781 L 149.292969 138.933594 L 166.601562 148.875 L 166.601562 127.117188 C 162.515625 121.964844 158.664062 116.128906 155.050781 109.617188 Z M 100.871094 90.28125 L 100.871094 90.324219 C 98.648438 87.871094 96.351562 86.84375 93.988281 87.234375 L 93.988281 107.195312 L 111.296875 117.136719 L 111.296875 98.800781 C 108.128906 97.355469 104.652344 94.511719 100.871094 90.28125 Z M 145.371094 95.628906 C 139.699219 91.367188 134.863281 89.683594 130.859375 90.574219 L 130.859375 128.367188 L 148.167969 138.304688 L 148.167969 98.171875 C 147.304688 97.226562 146.371094 96.378906 145.371094 95.628906 Z M 124.308594 95.167969 C 121.058594 99.652344 117.097656 101.015625 112.421875 99.257812 L 112.421875 117.761719 L 129.730469 127.699219 L 129.730469 90.90625 C 127.703125 91.601562 125.898438 93.023438 124.308594 95.167969 Z M 93.03125 55.285156 C 93.140625 55.230469 93.269531 55.242188 93.40625 55.328125 C 93.570312 55.410156 93.710938 55.539062 93.820312 55.703125 C 93.933594 55.925781 93.988281 56.121094 93.988281 56.289062 L 93.988281 85.773438 C 96.488281 85.519531 98.9375 86.730469 101.328125 89.402344 C 104.972656 93.414062 108.296875 96.101562 111.296875 97.464844 L 111.296875 66.226562 C 111.296875 66.058594 111.355469 65.933594 111.464844 65.851562 C 111.578125 65.792969 111.699219 65.808594 111.839844 65.894531 C 112.007812 66.003906 112.148438 66.144531 112.257812 66.308594 C 112.367188 66.507812 112.421875 66.6875 112.421875 66.851562 L 112.421875 97.925781 C 116.679688 99.398438 120.320312 98.074219 123.351562 93.957031 C 125.1875 91.476562 127.316406 89.90625 129.730469 89.238281 L 129.730469 76.835938 C 129.730469 76.664062 129.789062 76.542969 129.898438 76.457031 C 130.007812 76.402344 130.136719 76.417969 130.277344 76.5 C 130.414062 76.585938 130.539062 76.726562 130.652344 76.917969 C 130.789062 77.113281 130.859375 77.292969 130.859375 77.460938 L 130.859375 88.984375 C 134.945312 88.347656 139.839844 90.15625 145.539062 94.414062 C 146.457031 95.140625 147.335938 95.917969 148.167969 96.753906 L 148.167969 87.398438 C 148.167969 87.234375 148.222656 87.105469 148.335938 87.023438 C 148.445312 86.996094 148.570312 87.023438 148.710938 87.105469 C 148.847656 87.191406 148.972656 87.316406 149.082031 87.484375 C 149.222656 87.675781 149.292969 87.871094 149.292969 88.070312 L 149.292969 98.050781 C 150.296875 99.441406 152.476562 103.160156 155.839844 109.199219 C 159.234375 115.269531 162.820312 120.753906 166.601562 125.652344 L 166.601562 98.007812 C 166.601562 97.8125 166.65625 97.6875 166.769531 97.632812 C 166.882812 97.574219 167.003906 97.589844 167.144531 97.671875 C 167.28125 97.753906 167.410156 97.894531 167.519531 98.089844 C 167.660156 98.285156 167.726562 98.464844 167.726562 98.632812 L 167.726562 150.164062 C 167.726562 150.363281 167.660156 150.484375 167.519531 150.542969 C 167.410156 150.601562 167.28125 150.582031 167.144531 150.5 L 93.40625 108.15625 C 93.269531 108.070312 93.140625 107.929688 93.03125 107.738281 C 92.917969 107.542969 92.863281 107.359375 92.863281 107.195312 L 92.863281 55.617188 C 92.863281 55.453125 92.917969 55.339844 93.03125 55.285156 Z M 224.867188 181.449219 L 224.867188 172.925781 L 232.246094 177.1875 L 232.246094 185.707031 Z M 220.238281 170.085938 L 220.238281 178.734375 L 212.855469 174.472656 L 212.855469 165.828125 Z M 248.972656 195.394531 L 248.972656 186.914062 L 256.191406 191.09375 L 256.191406 199.570312 Z M 244.261719 192.679688 L 236.878906 188.378906 L 236.878906 179.859375 L 244.261719 184.160156 Z M 71.175781 17.449219 L 287.136719 142.691406 C 288.25 143.886719 288.902344 144.777344 289.097656 145.363281 C 289.238281 145.753906 289.335938 146.339844 289.390625 147.117188 L 289.390625 151.042969 L 283.839844 159.898438 L 281.257812 158.394531 L 281.257812 148.621094 L 79.476562 31.980469 L 79.476562 148.433594 L 69.550781 164.242188 L 69.550781 20.164062 C 69.632812 19.996094 69.882812 19.550781 70.300781 18.828125 C 70.773438 18.050781 71.066406 17.589844 71.175781 17.449219 Z M 236.042969 336.921875 L 248.472656 344.066406 L 253.3125 341.265625 L 240.839844 334.128906 Z M 221.113281 321.429688 L 223.867188 315 L 260.859375 336.296875 C 261.917969 336.910156 262.402344 337.519531 262.320312 338.132812 C 262.265625 338.636719 261.792969 339.140625 260.902344 339.636719 L 223.949219 361.101562 C 222.058594 362.1875 220.167969 362.175781 218.277344 361.0625 L 154.007812 324.144531 C 153.726562 324.003906 153.503906 323.855469 153.339844 323.6875 C 152.285156 322.851562 152.351562 322.03125 153.546875 321.21875 C 152.492188 322.140625 152.738281 323.0625 154.296875 323.976562 L 206.890625 354.210938 L 219.195312 325.898438 L 232.417969 333.457031 L 237.253906 330.660156 Z M 289.390625 195.707031 L 289.390625 309.945312 C 289.140625 310.085938 288.789062 310.238281 288.347656 310.40625 C 287.789062 310.546875 287.34375 310.613281 287.011719 310.613281 C 286.175781 310.613281 274.359375 304.167969 251.558594 291.28125 C 247.765625 289.125 243.886719 286.925781 239.925781 284.679688 C 237.777344 283.457031 235.609375 282.214844 233.417969 280.964844 C 216.101562 271.066406 197.308594 260.21875 177.027344 248.433594 C 157.097656 236.816406 139.945312 226.738281 125.5625 218.199219 C 109.058594 208.398438 96.199219 200.617188 86.980469 194.855469 L 94.367188 182.992188 L 281.257812 291.027344 L 281.257812 196.378906 L 284.675781 198.359375 L 289.390625 195.707031 "/>
<path style=" stroke:none;fill-rule:evenodd;fill:rgb(7.839966%,3.529358%,46.669006%);fill-opacity:1;" d="M 93.03125 55.285156 C 92.917969 55.339844 92.863281 55.453125 92.863281 55.617188 L 92.863281 107.195312 C 92.863281 107.359375 92.917969 107.542969 93.03125 107.738281 C 93.140625 107.929688 93.269531 108.070312 93.40625 108.15625 L 167.144531 150.5 C 167.28125 150.582031 167.410156 150.601562 167.519531 150.542969 C 167.660156 150.484375 167.726562 150.363281 167.726562 150.164062 L 167.726562 98.632812 C 167.726562 98.464844 167.660156 98.285156 167.519531 98.089844 C 167.410156 97.894531 167.28125 97.753906 167.144531 97.671875 C 167.003906 97.589844 166.882812 97.574219 166.769531 97.632812 C 166.65625 97.6875 166.601562 97.8125 166.601562 98.007812 L 166.601562 125.652344 C 162.820312 120.753906 159.234375 115.269531 155.839844 109.199219 C 152.476562 103.160156 150.296875 99.441406 149.292969 98.050781 L 149.292969 88.070312 C 149.292969 87.871094 149.222656 87.675781 149.082031 87.484375 C 148.972656 87.316406 148.847656 87.191406 148.710938 87.105469 C 148.570312 87.023438 148.445312 86.996094 148.335938 87.023438 C 148.222656 87.105469 148.167969 87.234375 148.167969 87.398438 L 148.167969 96.753906 C 147.335938 95.917969 146.457031 95.140625 145.539062 94.414062 C 139.839844 90.15625 134.945312 88.347656 130.859375 88.984375 L 130.859375 77.460938 C 130.859375 77.292969 130.789062 77.113281 130.652344 76.917969 C 130.539062 76.726562 130.414062 76.585938 130.277344 76.5 C 130.136719 76.417969 130.007812 76.402344 129.898438 76.457031 C 129.789062 76.542969 129.730469 76.664062 129.730469 76.835938 L 129.730469 89.238281 C 127.316406 89.90625 125.1875 91.476562 123.351562 93.957031 C 120.320312 98.074219 116.679688 99.398438 112.421875 97.925781 L 112.421875 66.851562 C 112.421875 66.6875 112.367188 66.507812 112.257812 66.308594 C 112.148438 66.144531 112.007812 66.003906 111.839844 65.894531 C 111.699219 65.808594 111.578125 65.792969 111.464844 65.851562 C 111.355469 65.933594 111.296875 66.058594 111.296875 66.226562 L 111.296875 97.464844 C 108.296875 96.101562 104.972656 93.414062 101.328125 89.402344 C 98.9375 86.730469 96.488281 85.519531 93.988281 85.773438 L 93.988281 56.289062 C 93.988281 56.121094 93.933594 55.925781 93.820312 55.703125 C 93.710938 55.539062 93.570312 55.410156 93.40625 55.328125 C 93.269531 55.242188 93.140625 55.230469 93.03125 55.285156 Z M 94.367188 182.992188 L 105.5 165.160156 L 174.234375 204.914062 L 192.628906 194.351562 L 207.117188 171.171875 L 208.265625 171.84375 L 208.265625 169.335938 L 215.230469 158.183594 L 281.257812 196.378906 L 281.257812 291.027344 Z M 221.507812 250.144531 C 222.03125 250.15625 222.507812 250.03125 222.949219 249.769531 C 223.949219 249.210938 224.449219 248.136719 224.449219 246.554688 C 224.449219 244.9375 223.949219 243.28125 222.949219 241.582031 C 221.972656 239.882812 220.808594 238.632812 219.445312 237.824219 L 186.664062 218.867188 L 186.664062 219.03125 L 108.628906 173.929688 C 107.238281 173.121094 106.058594 172.996094 105.082031 173.550781 C 104.082031 174.140625 103.582031 175.222656 103.582031 176.8125 C 103.582031 178.425781 104.082031 180.066406 105.082031 181.738281 C 106.058594 183.464844 107.238281 184.730469 108.628906 185.539062 L 219.195312 249.433594 C 220.046875 249.925781 220.816406 250.164062 221.507812 250.144531 Z M 244.261719 192.679688 L 244.261719 184.160156 L 236.878906 179.859375 L 236.878906 188.378906 Z M 248.972656 195.394531 L 256.191406 199.570312 L 256.191406 191.09375 L 248.972656 186.914062 Z M 220.238281 170.085938 L 212.855469 165.828125 L 212.855469 174.472656 L 220.238281 178.734375 Z M 224.867188 181.449219 L 232.246094 185.707031 L 232.246094 177.1875 L 224.867188 172.925781 Z M 281.257812 158.394531 L 211.601562 118.050781 L 201.636719 123.816406 L 199.425781 125.109375 L 173.316406 166.453125 L 101.871094 125.109375 L 91.902344 130.832031 L 89.734375 132.085938 L 79.476562 148.433594 L 79.476562 31.980469 L 281.257812 148.621094 L 281.257812 158.394531 "/>
<path style=" stroke:none;fill-rule:evenodd;fill:rgb(100%,83.139038%,90.19928%);fill-opacity:1;" d="M 49.925781 198.003906 C 49.847656 197.972656 49.769531 197.941406 49.695312 197.902344 C 49.367188 197.734375 49.039062 197.570312 48.714844 197.421875 L 69.550781 164.242188 L 79.476562 148.433594 L 89.734375 132.085938 L 91.902344 130.832031 L 92.03125 130.917969 L 168.0625 174.765625 L 173.316406 166.453125 L 199.425781 125.109375 L 201.636719 123.816406 L 201.71875 123.941406 L 274.875 166.121094 L 278.585938 168.25 L 279.964844 166.121094 L 281.257812 164.050781 L 283.839844 159.898438 L 289.390625 151.042969 L 293.121094 145.074219 L 298.023438 137.242188 L 318.230469 104.960938 L 319.316406 105.566406 L 299.125 137.867188 L 295.414062 143.820312 L 289.390625 153.445312 L 281.464844 166.121094 L 281.257812 166.453125 L 280.007812 168.460938 L 278.546875 170.085938 L 277.417969 170.085938 L 270.578125 166.121094 L 200.550781 125.613281 L 175.191406 166.121094 L 172.441406 170.546875 L 172.359375 170.546875 L 169.273438 175.472656 L 169.355469 175.472656 L 168.0625 177.269531 L 167.058594 176.769531 L 166.851562 176.644531 L 90.820312 132.710938 L 79.476562 150.816406 L 69.550781 166.660156 L 49.925781 198.003906 "/>
<path style=" stroke:none;fill-rule:evenodd;fill:rgb(100%,39.608765%,65.489197%);fill-opacity:1;" d="M 174.234375 204.914062 L 105.5 165.160156 L 96.785156 160.148438 L 85.6875 177.980469 L 78.535156 189.464844 L 72.46875 199.238281 L 63.875 213.058594 L 52.886719 230.703125 L 53.03125 228.472656 L 52.824219 225.296875 L 52.824219 217.652344 L 53.03125 214.4375 L 53.199219 214.1875 L 52.949219 211.804688 L 52.738281 211.179688 L 53.03125 207.921875 L 52.738281 204.707031 C 53.796875 201.800781 52.859375 199.566406 49.925781 198.003906 L 69.550781 166.660156 L 79.476562 150.816406 L 90.820312 132.710938 L 166.851562 176.644531 L 167.058594 176.769531 L 168.0625 177.269531 L 169.355469 175.472656 L 169.273438 175.472656 L 172.359375 170.546875 L 172.441406 170.546875 L 175.191406 166.121094 L 200.550781 125.613281 L 270.578125 166.121094 L 277.417969 170.085938 L 278.546875 170.085938 L 280.007812 168.460938 L 281.257812 166.453125 L 281.464844 166.121094 L 289.390625 153.445312 L 295.414062 143.820312 L 299.125 137.867188 L 319.316406 105.566406 L 318.230469 104.960938 L 307.238281 98.882812 L 352.953125 66.144531 L 352.953125 124.191406 L 345.359375 119.992188 L 336.558594 115.109375 L 300.253906 173.367188 L 289.390625 190.800781 L 284.675781 198.359375 L 281.257812 196.378906 L 215.230469 158.183594 L 215.191406 158.183594 L 206.515625 153.089844 L 206.429688 153.257812 L 202.304688 159.875 L 200.96875 162.003906 L 195.628906 170.546875 L 174.234375 204.914062 "/>
<path style=" stroke:none;fill-rule:evenodd;fill:rgb(90.19928%,16.859436%,48.239136%);fill-opacity:1;" d="M 215.230469 158.183594 L 208.265625 169.335938 L 207.117188 171.171875 L 192.628906 194.351562 L 174.234375 204.914062 L 195.628906 170.546875 L 200.96875 162.003906 L 202.304688 159.875 L 206.429688 153.257812 L 206.515625 153.089844 L 215.191406 158.183594 Z M 105.5 165.160156 L 94.367188 182.992188 L 86.980469 194.855469 L 75.636719 213.058594 L 75.597656 213.058594 L 63.894531 231.8125 C 61.289062 231.851562 58.671875 232.449219 56.035156 233.605469 L 53.199219 235.859375 L 53.03125 234.945312 L 52.824219 231.683594 L 52.886719 230.703125 L 63.875 213.058594 L 72.46875 199.238281 L 78.535156 189.464844 L 85.6875 177.980469 L 96.785156 160.148438 Z M 186.664062 219.03125 L 186.664062 230.515625 L 219.445312 249.433594 C 220.191406 249.878906 220.878906 250.113281 221.507812 250.144531 C 220.816406 250.164062 220.046875 249.925781 219.195312 249.433594 L 108.628906 185.539062 C 107.238281 184.730469 106.058594 183.464844 105.082031 181.738281 C 104.082031 180.066406 103.582031 178.425781 103.582031 176.8125 C 103.582031 175.222656 104.082031 174.140625 105.082031 173.550781 C 106.058594 172.996094 107.238281 173.121094 108.628906 173.929688 Z M 300.253906 189.589844 L 289.390625 195.707031 L 284.675781 198.359375 L 289.390625 190.800781 L 300.253906 173.367188 L 336.558594 115.109375 L 345.359375 119.992188 L 302.984375 188.042969 Z M 352.953125 124.191406 L 352.953125 62.761719 L 355.160156 61.175781 L 364.917969 55.453125 L 364.917969 117.175781 L 352.953125 124.191406 "/>
<path style=" stroke:none;fill-rule:evenodd;fill:rgb(99.21875%,66.668701%,80.389404%);fill-opacity:1;" d="M 173.316406 166.453125 L 168.0625 174.765625 L 92.03125 130.917969 L 91.902344 130.832031 L 101.871094 125.109375 Z M 283.839844 159.898438 L 281.257812 164.050781 L 279.964844 166.121094 L 278.585938 168.25 L 274.875 166.121094 L 201.71875 123.941406 L 201.636719 123.816406 L 211.601562 118.050781 L 281.257812 158.394531 L 283.839844 159.898438 "/>
<path style=" stroke:none;fill-rule:evenodd;fill:rgb(100%,69.018555%,82.348633%);fill-opacity:1;" d="M 352.953125 66.144531 L 307.238281 98.882812 L 304.152344 97.214844 L 352.953125 62.761719 L 352.953125 66.144531 "/>
<path style=" stroke:none;fill-rule:evenodd;fill:rgb(100%,85.879517%,34.899902%);fill-opacity:1;" d="M 236.042969 336.921875 L 240.839844 334.128906 L 253.3125 341.265625 L 248.472656 344.066406 Z M 185.914062 324.144531 C 185.410156 324.449219 184.980469 324.492188 184.621094 324.269531 L 172.734375 317.378906 C 172.371094 317.15625 172.441406 316.902344 172.941406 316.625 L 182.910156 310.824219 C 183.410156 310.546875 183.839844 310.515625 184.203125 310.742188 L 196.089844 317.589844 C 196.449219 317.8125 196.382812 318.0625 195.878906 318.339844 Z M 182.972656 303.972656 L 175.589844 308.273438 C 175.429688 308.273438 175.273438 308.273438 175.113281 308.273438 C 171.914062 308.273438 169.199219 307.621094 166.980469 306.3125 C 166.808594 306.199219 166.644531 306.117188 166.476562 306.0625 C 166.28125 305.867188 166.101562 305.742188 165.9375 305.6875 C 165.015625 304.964844 164.363281 304.226562 163.976562 303.472656 C 163.699219 302.886719 163.558594 302.261719 163.558594 301.59375 C 163.558594 301.425781 163.558594 301.285156 163.558594 301.175781 C 163.558594 300.867188 163.613281 300.605469 163.722656 300.382812 C 164.171875 301.691406 165.253906 302.832031 166.980469 303.808594 C 167.3125 304.03125 167.6875 304.238281 168.101562 304.433594 C 170.078125 305.324219 172.414062 305.769531 175.113281 305.769531 C 176.027344 305.769531 176.902344 305.714844 177.738281 305.601562 C 179.730469 305.339844 181.472656 304.796875 182.972656 303.972656 Z M 48.714844 197.421875 C 49.039062 197.570312 49.367188 197.734375 49.695312 197.902344 C 49.769531 197.941406 49.847656 197.972656 49.925781 198.003906 C 52.859375 199.566406 53.796875 201.800781 52.738281 204.707031 C 51.574219 206.574219 49.960938 207.839844 47.902344 208.507812 C 46.125 209.042969 44.382812 209.367188 42.667969 209.488281 C 42.113281 209.53125 41.566406 209.554688 41.019531 209.550781 C 39.535156 209.554688 38.078125 209.402344 36.644531 209.089844 C 33.75 208.480469 31.414062 207.003906 29.632812 204.667969 C 28.996094 203.746094 28.953125 202.617188 29.511719 201.285156 C 30.597656 199.167969 32.265625 197.71875 34.515625 196.941406 C 39.367188 195.199219 44.097656 195.359375 48.714844 197.421875 Z M 29.300781 214.398438 C 30.027344 216.09375 31.164062 217.332031 32.71875 218.113281 C 33.890625 218.714844 35.074219 219.183594 36.265625 219.511719 C 36.308594 219.523438 36.351562 219.535156 36.390625 219.554688 C 37.964844 219.976562 39.566406 220.164062 41.1875 220.121094 C 46.441406 220.507812 50.390625 218.613281 53.03125 214.4375 L 52.824219 217.652344 C 51.101562 220.242188 48.777344 221.773438 45.859375 222.246094 C 42.417969 223.074219 39.21875 223 36.265625 222.019531 C 34.757812 221.507812 33.308594 220.761719 31.929688 219.78125 C 31.09375 219.144531 30.328125 218.433594 29.632812 217.652344 Z M 29.632812 211.179688 L 29.300781 207.921875 C 30.46875 210.261719 32.222656 211.824219 34.558594 212.601562 C 35.894531 213.003906 37.226562 213.289062 38.558594 213.457031 C 39.078125 213.523438 39.59375 213.570312 40.105469 213.605469 C 42.023438 213.722656 43.941406 213.597656 45.859375 213.230469 C 49.359375 212.695312 51.753906 210.933594 53.03125 207.921875 L 52.738281 211.179688 C 52.101562 212.40625 51.101562 213.351562 49.738281 214.019531 C 46.214844 215.679688 42.527344 216.296875 38.6875 215.878906 C 38.183594 215.824219 37.683594 215.757812 37.183594 215.667969 C 37 215.636719 36.820312 215.601562 36.644531 215.566406 C 33.75 215.035156 31.414062 213.574219 29.632812 211.179688 Z M 52.824219 225.296875 C 49.792969 228.945312 45.914062 230.597656 41.1875 230.265625 C 39.496094 230.3125 37.859375 230.109375 36.265625 229.660156 C 35.054688 229.328125 33.875 228.84375 32.71875 228.21875 C 31.523438 227.578125 30.496094 226.605469 29.632812 225.296875 L 29.59375 221.453125 C 31.113281 223.859375 33.339844 225.40625 36.265625 226.089844 C 36.390625 226.117188 36.515625 226.144531 36.644531 226.175781 C 40.257812 226.925781 43.980469 226.632812 47.820312 225.296875 C 49.929688 224.628906 51.597656 223.347656 52.824219 221.453125 Z M 90.066406 258.578125 C 90.179688 258.914062 90.234375 259.289062 90.234375 259.707031 C 90.234375 260.375 90.054688 261.027344 89.691406 261.671875 C 89.527344 262.117188 89.21875 262.546875 88.773438 262.964844 C 88.609375 263.132812 88.414062 263.300781 88.191406 263.464844 C 88.136719 263.523438 88.066406 263.578125 87.984375 263.632812 C 87.648438 263.910156 87.289062 264.175781 86.898438 264.425781 C 84.621094 265.679688 81.878906 266.304688 78.683594 266.304688 C 75.542969 266.304688 72.832031 265.679688 70.550781 264.425781 C 69.320312 263.644531 68.40625 262.816406 67.816406 261.941406 C 67.746094 261.851562 67.6875 261.761719 67.628906 261.671875 C 67.296875 261.027344 67.128906 260.375 67.128906 259.707031 C 67.128906 259.289062 67.183594 258.914062 67.296875 258.578125 C 67.628906 259.6875 68.453125 260.71875 69.777344 261.671875 C 70.019531 261.839844 70.277344 262.003906 70.550781 262.171875 C 72.832031 263.421875 75.542969 264.050781 78.683594 264.050781 C 81.878906 264.050781 84.621094 263.421875 86.898438 262.171875 C 88.652344 261.085938 89.707031 259.886719 90.066406 258.578125 Z M 29.632812 231.683594 L 29.300781 228.472656 C 31.019531 231.167969 33.34375 232.890625 36.265625 233.625 C 37.078125 233.835938 37.945312 233.96875 38.851562 234.023438 C 39.214844 234.078125 39.558594 234.121094 39.894531 234.148438 C 41.0625 234.007812 42.203125 233.980469 43.3125 234.066406 C 45.566406 233.816406 47.707031 233.148438 49.738281 232.058594 C 51.351562 231.226562 52.449219 230.027344 53.03125 228.472656 L 52.886719 230.703125 L 52.824219 231.683594 C 52.261719 232.5625 51.605469 233.320312 50.863281 233.960938 C 50.207031 234.515625 49.484375 234.984375 48.695312 235.363281 C 49.027344 235.503906 49.367188 235.65625 49.714844 235.820312 C 49.96875 235.941406 50.222656 236.0625 50.488281 236.199219 C 50.988281 236.445312 51.433594 236.722656 51.824219 237.03125 C 52.351562 236.417969 52.757812 235.722656 53.03125 234.945312 L 53.199219 235.859375 L 56.035156 233.605469 C 58.671875 232.449219 61.289062 231.851562 63.894531 231.8125 C 66.882812 231.761719 69.851562 232.445312 72.800781 233.859375 C 75.886719 235.445312 76.902344 237.753906 75.84375 240.792969 C 75.125 241.847656 74.109375 242.695312 72.800781 243.335938 C 68.128906 245.953125 63.097656 246.34375 57.703125 244.507812 C 56.0625 243.949219 54.769531 243.101562 53.824219 241.960938 C 53.738281 242.292969 53.628906 242.640625 53.492188 243.003906 C 53.242188 243.421875 52.964844 243.808594 52.660156 244.171875 C 52.601562 244.226562 52.558594 244.269531 52.53125 244.296875 C 52.363281 244.492188 52.199219 244.671875 52.03125 244.839844 C 51.085938 245.730469 49.960938 246.371094 48.652344 246.761719 C 46.734375 247.34375 44.84375 247.683594 42.980469 247.785156 C 42.722656 247.804688 42.464844 247.820312 42.207031 247.824219 C 41.6875 247.839844 41.164062 247.832031 40.644531 247.804688 C 39.550781 247.746094 38.464844 247.609375 37.394531 247.386719 C 35.363281 246.941406 33.609375 246.078125 32.136719 244.796875 C 31.832031 244.519531 31.523438 244.226562 31.222656 243.921875 C 30.941406 243.613281 30.675781 243.296875 30.425781 242.960938 C 29.761719 242.015625 29.707031 240.886719 30.261719 239.578125 C 30.316406 239.464844 30.386719 239.34375 30.46875 239.203125 C 30.164062 238.894531 29.886719 238.574219 29.632812 238.242188 L 29.300781 234.945312 C 29.96875 236 30.71875 236.90625 31.554688 237.660156 C 32.359375 236.738281 33.363281 236.027344 34.558594 235.527344 C 33.640625 235.136719 32.761719 234.675781 31.929688 234.148438 C 30.816406 233.539062 30.050781 232.714844 29.632812 231.683594 Z M 30.300781 254.320312 C 31.441406 256.433594 33.125 257.855469 35.351562 258.578125 C 39.101562 259.71875 42.855469 259.929688 46.609375 259.207031 C 50.113281 258.675781 52.519531 256.910156 53.824219 253.902344 L 53.660156 252.105469 C 55.132812 253.859375 57.175781 254.960938 59.789062 255.40625 C 62.441406 256 65.011719 256.09375 67.503906 255.679688 C 67.257812 256.238281 67.128906 256.84375 67.128906 257.496094 C 67.128906 257.800781 67.175781 258.136719 67.277344 258.496094 C 65.589844 258.78125 63.832031 258.796875 62 258.539062 C 59.691406 258.316406 57.664062 257.660156 55.910156 256.574219 C 55.242188 256.324219 54.632812 256.117188 54.074219 255.949219 C 53.1875 259.597656 50.695312 261.726562 46.609375 262.335938 C 43.636719 263.03125 40.574219 263.03125 37.433594 262.335938 C 34.570312 261.726562 32.222656 260.292969 30.386719 258.039062 C 30.300781 257.703125 30.203125 257.382812 30.09375 257.078125 C 29.898438 256.046875 29.96875 255.125 30.300781 254.320312 Z M 30.425781 250.644531 C 29.761719 249.726562 29.707031 248.597656 30.261719 247.265625 C 30.316406 247.148438 30.386719 247.039062 30.46875 246.929688 C 31.609375 248.875 33.234375 250.199219 35.351562 250.894531 C 39.101562 252.007812 42.855469 252.214844 46.609375 251.523438 C 49.890625 251.023438 52.210938 249.433594 53.574219 246.761719 C 53.660156 246.566406 53.738281 246.386719 53.824219 246.21875 L 53.78125 245.925781 C 54.953125 247.320312 56.492188 248.320312 58.414062 248.933594 C 61.890625 249.824219 65.390625 249.949219 68.925781 249.308594 C 69.328125 249.234375 69.726562 249.144531 70.109375 249.039062 C 70.222656 248.960938 70.339844 248.882812 70.464844 248.808594 C 71.246094 248.355469 72.082031 247.992188 72.96875 247.703125 C 74.269531 246.796875 75.34375 245.5625 76.179688 244.003906 L 76.347656 245.464844 L 76.078125 247.011719 C 76.910156 246.902344 77.777344 246.847656 78.683594 246.847656 C 81.878906 246.847656 84.621094 247.5 86.898438 248.808594 C 89.121094 250.144531 90.234375 251.71875 90.234375 253.527344 C 90.234375 254.222656 90.054688 254.875 89.691406 255.488281 C 89.191406 256.464844 88.261719 257.355469 86.898438 258.160156 C 84.621094 259.46875 81.878906 260.125 78.683594 260.125 C 76.988281 260.125 75.414062 259.9375 73.96875 259.5625 C 72.738281 259.230469 71.597656 258.765625 70.550781 258.160156 C 70.339844 258.039062 70.140625 257.914062 69.945312 257.785156 C 68.984375 257.132812 68.257812 256.417969 67.753906 255.636719 C 67.714844 255.558594 67.671875 255.480469 67.628906 255.40625 C 67.296875 254.847656 67.128906 254.222656 67.128906 253.527344 C 67.128906 253.039062 67.214844 252.5625 67.378906 252.105469 C 62.671875 252.828125 58.347656 251.785156 54.40625 248.972656 C 54.242188 248.832031 54.074219 248.710938 53.910156 248.597656 C 53.910156 249.238281 53.769531 249.9375 53.492188 250.6875 C 53.351562 250.910156 53.210938 251.128906 53.074219 251.355469 C 52.824219 251.6875 52.558594 251.996094 52.28125 252.277344 C 52.253906 252.300781 52.226562 252.34375 52.199219 252.398438 C 51.199219 253.34375 50.015625 254.039062 48.652344 254.488281 C 44.789062 255.65625 41.035156 255.851562 37.394531 255.070312 C 35.253906 254.597656 33.417969 253.664062 31.886719 252.277344 C 31.359375 251.773438 30.871094 251.230469 30.425781 250.644531 Z M 67.628906 287.644531 C 67.296875 287.003906 67.128906 286.363281 67.128906 285.722656 C 67.128906 285.28125 67.183594 284.863281 67.296875 284.472656 C 67.742188 285.722656 68.828125 286.867188 70.550781 287.898438 C 72.832031 289.203125 75.542969 289.859375 78.683594 289.859375 C 81.878906 289.859375 84.621094 289.203125 86.898438 287.898438 C 88.652344 286.867188 89.707031 285.722656 90.066406 284.472656 C 90.125 284.691406 90.152344 284.972656 90.152344 285.304688 C 90.765625 284.554688 91.582031 283.875 92.613281 283.261719 C 92.722656 283.261719 92.808594 283.230469 92.863281 283.179688 C 95.03125 281.976562 97.6875 281.382812 100.832031 281.382812 C 104.027344 281.382812 106.765625 282.007812 109.042969 283.261719 C 111.269531 284.570312 112.382812 286.140625 112.382812 287.980469 C 112.382812 288.648438 112.214844 289.328125 111.882812 290.027344 C 111.355469 290.945312 110.4375 291.792969 109.128906 292.574219 L 109.042969 292.699219 C 106.988281 293.839844 104.542969 294.492188 101.703125 294.664062 C 101.402344 294.664062 101.105469 294.664062 100.832031 294.664062 C 97.6875 294.664062 94.976562 294.007812 92.699219 292.699219 C 92.640625 292.613281 92.585938 292.546875 92.527344 292.488281 C 91.5 291.875 90.710938 291.222656 90.152344 290.527344 C 90.042969 290.304688 89.929688 290.109375 89.816406 289.941406 C 89.570312 289.414062 89.386719 288.898438 89.277344 288.398438 C 88.773438 289.09375 87.984375 289.746094 86.898438 290.359375 C 84.621094 291.667969 81.878906 292.324219 78.683594 292.324219 C 75.542969 292.324219 72.832031 291.667969 70.550781 290.359375 C 69.1875 289.496094 68.214844 288.589844 67.628906 287.644531 Z M 89.527344 299.257812 C 89.945312 300.535156 91 301.648438 92.699219 302.597656 C 94.976562 303.875 97.6875 304.515625 100.832031 304.515625 C 104.027344 304.515625 106.765625 303.875 109.042969 302.597656 C 110.714844 301.648438 111.773438 300.535156 112.214844 299.257812 C 112.324219 299.675781 112.382812 300.105469 112.382812 300.550781 C 112.382812 301.136719 112.269531 301.734375 112.050781 302.347656 C 111.519531 303.375 110.519531 304.320312 109.042969 305.183594 C 106.765625 306.492188 104.027344 307.148438 100.832031 307.148438 C 97.6875 307.148438 94.976562 306.492188 92.699219 305.183594 C 92.03125 304.792969 91.429688 304.363281 90.902344 303.890625 C 90.957031 304.113281 90.988281 304.320312 90.988281 304.515625 C 90.988281 305.296875 90.792969 306.007812 90.402344 306.648438 C 90.402344 306.703125 90.375 306.757812 90.320312 306.8125 C 89.789062 307.675781 88.871094 308.46875 87.566406 309.195312 C 85.34375 310.53125 82.601562 311.199219 79.351562 311.199219 C 76.207031 311.199219 73.523438 310.53125 71.300781 309.195312 C 69.882812 308.414062 68.894531 307.539062 68.335938 306.566406 C 68.035156 305.921875 67.882812 305.242188 67.882812 304.515625 C 67.882812 303.375 68.335938 302.347656 69.257812 301.425781 C 69.839844 300.84375 70.496094 300.328125 71.21875 299.882812 C 72.496094 299.128906 73.898438 298.613281 75.429688 298.335938 C 76.679688 298.054688 77.988281 297.917969 79.351562 297.917969 C 80.546875 297.917969 81.65625 298.003906 82.6875 298.171875 C 83.601562 298.28125 84.464844 298.503906 85.273438 298.839844 C 86.078125 299.117188 86.84375 299.464844 87.566406 299.882812 C 88.261719 300.273438 88.832031 300.703125 89.277344 301.175781 C 89.277344 300.925781 89.277344 300.71875 89.277344 300.550781 C 89.277344 300.050781 89.359375 299.617188 89.527344 299.257812 Z M 67.546875 271.523438 C 68.019531 272.667969 69.023438 273.667969 70.550781 274.53125 C 72.832031 275.839844 75.542969 276.496094 78.683594 276.496094 C 81.878906 276.496094 84.621094 275.839844 86.898438 274.53125 C 87.289062 274.28125 87.648438 274.015625 87.984375 273.738281 C 88.847656 273.070312 89.457031 272.332031 89.816406 271.523438 C 90.097656 272.136719 90.234375 272.738281 90.234375 273.324219 C 90.234375 273.960938 90.097656 274.589844 89.816406 275.203125 C 89.398438 275.953125 88.789062 276.664062 87.984375 277.332031 C 87.648438 277.582031 87.289062 277.816406 86.898438 278.039062 C 85.980469 278.542969 84.953125 278.972656 83.8125 279.335938 C 82.285156 279.722656 80.574219 279.917969 78.683594 279.917969 C 76.847656 279.917969 75.136719 279.722656 73.550781 279.335938 C 72.46875 278.972656 71.464844 278.542969 70.550781 278.039062 C 69.078125 277.179688 68.101562 276.230469 67.628906 275.203125 C 67.296875 274.589844 67.128906 273.960938 67.128906 273.324219 C 67.128906 272.679688 67.269531 272.082031 67.546875 271.523438 Z M 67.296875 264.761719 C 67.6875 266.125 68.769531 267.324219 70.550781 268.351562 C 72.832031 269.605469 75.542969 270.234375 78.683594 270.234375 C 81.878906 270.234375 84.621094 269.605469 86.898438 268.351562 C 87.289062 268.128906 87.648438 267.878906 87.984375 267.601562 C 89.066406 266.789062 89.761719 265.875 90.066406 264.84375 C 90.179688 265.179688 90.234375 265.582031 90.234375 266.054688 C 90.234375 266.667969 90.097656 267.292969 89.816406 267.9375 C 89.398438 268.65625 88.789062 269.339844 87.984375 269.980469 C 87.648438 270.257812 87.289062 270.511719 86.898438 270.730469 C 84.621094 272.070312 81.878906 272.738281 78.683594 272.738281 C 75.542969 272.738281 72.832031 272.070312 70.550781 270.730469 C 69.132812 269.898438 68.160156 268.964844 67.628906 267.9375 C 67.296875 267.292969 67.128906 266.667969 67.128906 266.054688 C 67.128906 265.582031 67.183594 265.148438 67.296875 264.761719 Z M 90.066406 278.292969 C 90.179688 278.679688 90.234375 279.109375 90.234375 279.585938 C 90.234375 280.140625 90.097656 280.742188 89.816406 281.382812 C 89.289062 282.410156 88.316406 283.34375 86.898438 284.179688 C 84.621094 285.515625 81.878906 286.183594 78.683594 286.183594 C 75.542969 286.183594 72.832031 285.515625 70.550781 284.179688 C 69.300781 283.457031 68.410156 282.660156 67.882812 281.796875 C 67.769531 281.632812 67.6875 281.492188 67.628906 281.382812 C 67.296875 280.742188 67.128906 280.140625 67.128906 279.585938 C 67.128906 279.109375 67.183594 278.679688 67.296875 278.292969 C 67.628906 279.265625 68.28125 280.113281 69.257812 280.839844 C 69.671875 281.199219 70.105469 281.492188 70.550781 281.71875 C 72.832031 283.023438 75.542969 283.679688 78.683594 283.679688 C 81.878906 283.679688 84.621094 283.023438 86.898438 281.71875 C 87.453125 281.382812 87.96875 281.007812 88.441406 280.589844 C 89.21875 279.917969 89.761719 279.152344 90.066406 278.292969 Z M 112.382812 294.492188 C 112.382812 294.996094 112.269531 295.566406 112.050781 296.207031 C 111.519531 297.238281 110.519531 298.195312 109.042969 299.085938 C 106.765625 300.425781 104.027344 301.09375 100.832031 301.09375 C 97.6875 301.09375 94.976562 300.425781 92.699219 299.085938 C 92.140625 298.753906 91.65625 298.421875 91.238281 298.085938 C 90.515625 297.445312 89.96875 296.820312 89.609375 296.207031 C 89.554688 296.011719 89.496094 295.800781 89.441406 295.578125 C 89.332031 295.1875 89.277344 294.800781 89.277344 294.410156 C 89.277344 293.9375 89.359375 293.503906 89.527344 293.117188 C 89.636719 293.726562 89.929688 294.328125 90.402344 294.910156 C 91.011719 295.46875 91.777344 296.039062 92.699219 296.625 C 93.003906 296.734375 93.269531 296.875 93.488281 297.042969 C 95.601562 298.074219 98.046875 298.589844 100.832031 298.589844 C 104.027344 298.589844 106.765625 297.933594 109.042969 296.625 C 110.351562 295.875 111.242188 295.039062 111.714844 294.117188 C 111.9375 293.785156 112.105469 293.449219 112.214844 293.117188 C 112.324219 293.503906 112.382812 293.9375 112.382812 294.410156 Z M 219.195312 325.898438 L 209.558594 320.347656 L 214.355469 317.546875 L 221.113281 321.429688 L 237.253906 330.660156 L 232.417969 333.457031 Z M 202.886719 318.425781 L 185.746094 308.566406 L 190.582031 305.730469 L 207.726562 315.582031 Z M 183.890625 303.433594 C 184.8125 302.855469 185.5 302.214844 185.957031 301.511719 C 186.175781 301.175781 186.355469 300.800781 186.496094 300.382812 C 186.609375 300.800781 186.664062 301.203125 186.664062 301.59375 C 186.664062 301.667969 186.664062 301.746094 186.664062 301.824219 Z M 163.640625 294.203125 C 164.085938 295.539062 165.195312 296.722656 166.980469 297.753906 C 169.199219 299.0625 171.914062 299.714844 175.113281 299.714844 C 175.5 299.714844 175.832031 299.714844 176.113281 299.714844 C 178.921875 299.546875 181.296875 298.890625 183.246094 297.753906 C 185.050781 296.722656 186.136719 295.578125 186.496094 294.328125 C 186.609375 294.664062 186.664062 294.996094 186.664062 295.328125 C 186.664062 296.023438 186.507812 296.648438 186.203125 297.207031 C 185.703125 298.292969 184.71875 299.242188 183.246094 300.050781 C 182.828125 300.328125 182.367188 300.578125 181.867188 300.800781 C 180.558594 301.328125 179.074219 301.675781 177.40625 301.84375 C 176.652344 301.953125 175.886719 302.011719 175.113281 302.011719 C 174.191406 302.011719 173.304688 301.953125 172.441406 301.84375 C 170.382812 301.566406 168.5625 300.964844 166.980469 300.050781 C 165.558594 299.242188 164.558594 298.292969 163.976562 297.207031 C 163.699219 296.648438 163.558594 296.023438 163.558594 295.328125 C 163.558594 294.996094 163.582031 294.621094 163.640625 294.203125 Z M 164.058594 291.070312 C 163.835938 290.707031 163.667969 290.304688 163.558594 289.859375 C 163.558594 289.578125 163.558594 289.316406 163.558594 289.066406 C 163.558594 287.253906 164.667969 285.722656 166.894531 284.472656 C 169.175781 283.136719 171.914062 282.46875 175.113281 282.46875 C 175.5 282.46875 175.859375 282.511719 176.195312 282.589844 C 177.375 282.640625 178.484375 282.789062 179.511719 283.03125 C 180.890625 283.34375 182.132812 283.820312 183.246094 284.472656 C 183.355469 284.472656 183.464844 284.527344 183.578125 284.640625 C 184.605469 285.265625 185.378906 285.949219 185.890625 286.6875 C 186.40625 287.425781 186.664062 288.21875 186.664062 289.066406 C 186.664062 289.816406 186.484375 290.511719 186.121094 291.152344 C 185.675781 292.097656 184.828125 292.949219 183.578125 293.699219 C 183.464844 293.699219 183.355469 293.726562 183.246094 293.785156 C 181.019531 295.09375 178.308594 295.746094 175.113281 295.746094 C 171.914062 295.746094 169.199219 295.09375 166.980469 293.785156 C 165.613281 292.976562 164.644531 292.074219 164.058594 291.070312 "/>
<path style=" stroke:none;fill-rule:evenodd;fill:rgb(99.21875%,61.178589%,23.529053%);fill-opacity:1;" d="M 124.308594 95.167969 C 125.898438 93.023438 127.703125 91.601562 129.730469 90.90625 L 129.730469 127.699219 L 112.421875 117.761719 L 112.421875 99.257812 C 117.097656 101.015625 121.058594 99.652344 124.308594 95.167969 Z M 52.738281 204.707031 L 53.03125 207.921875 C 51.753906 210.933594 49.359375 212.695312 45.859375 213.230469 C 43.941406 213.597656 42.023438 213.722656 40.105469 213.605469 C 39.59375 213.570312 39.078125 213.523438 38.558594 213.457031 C 37.226562 213.289062 35.894531 213.003906 34.558594 212.601562 C 32.222656 211.824219 30.46875 210.261719 29.300781 207.921875 L 29.632812 204.667969 C 31.414062 207.003906 33.75 208.480469 36.644531 209.089844 C 38.078125 209.402344 39.535156 209.554688 41.019531 209.550781 C 41.566406 209.554688 42.113281 209.53125 42.667969 209.488281 C 44.382812 209.367188 46.125 209.042969 47.902344 208.507812 C 49.960938 207.839844 51.574219 206.574219 52.738281 204.707031 Z M 29.300781 214.398438 L 29.632812 211.179688 C 31.414062 213.574219 33.75 215.035156 36.644531 215.566406 C 36.820312 215.601562 37 215.636719 37.183594 215.667969 C 37.683594 215.757812 38.183594 215.824219 38.6875 215.878906 C 42.527344 216.296875 46.214844 215.679688 49.738281 214.019531 C 51.101562 213.351562 52.101562 212.40625 52.738281 211.179688 L 52.949219 211.804688 L 53.199219 214.1875 L 53.03125 214.4375 C 50.390625 218.613281 46.441406 220.507812 41.1875 220.121094 C 39.566406 220.164062 37.964844 219.976562 36.390625 219.554688 C 36.351562 219.535156 36.308594 219.523438 36.265625 219.511719 C 35.074219 219.183594 33.890625 218.714844 32.71875 218.113281 C 31.164062 217.332031 30.027344 216.09375 29.300781 214.398438 Z M 52.824219 221.453125 C 51.597656 223.347656 49.929688 224.628906 47.820312 225.296875 C 43.980469 226.632812 40.257812 226.925781 36.644531 226.175781 C 36.515625 226.144531 36.390625 226.117188 36.265625 226.089844 C 33.339844 225.40625 31.113281 223.859375 29.59375 221.453125 L 29.632812 217.652344 C 30.328125 218.433594 31.09375 219.144531 31.929688 219.78125 C 33.308594 220.761719 34.757812 221.507812 36.265625 222.019531 C 39.21875 223 42.417969 223.074219 45.859375 222.246094 C 48.777344 221.773438 51.101562 220.242188 52.824219 217.652344 Z M 76.179688 244.003906 C 75.34375 245.5625 74.269531 246.796875 72.96875 247.703125 C 72.082031 247.992188 71.246094 248.355469 70.464844 248.808594 C 70.339844 248.882812 70.222656 248.960938 70.109375 249.039062 C 69.726562 249.144531 69.328125 249.234375 68.925781 249.308594 C 65.390625 249.949219 61.890625 249.824219 58.414062 248.933594 C 56.492188 248.320312 54.953125 247.320312 53.78125 245.925781 L 53.824219 246.21875 C 53.738281 246.386719 53.660156 246.566406 53.574219 246.761719 C 52.210938 249.433594 49.890625 251.023438 46.609375 251.523438 C 42.855469 252.214844 39.101562 252.007812 35.351562 250.894531 C 33.234375 250.199219 31.609375 248.875 30.46875 246.929688 C 30.414062 246.847656 30.371094 246.761719 30.34375 246.675781 C 30.234375 246.511719 30.148438 246.355469 30.09375 246.21875 L 30.386719 243.210938 C 29.160156 241.902344 28.910156 240.246094 29.632812 238.242188 C 29.886719 238.574219 30.164062 238.894531 30.46875 239.203125 C 30.386719 239.34375 30.316406 239.464844 30.261719 239.578125 C 29.707031 240.886719 29.761719 242.015625 30.425781 242.960938 C 30.675781 243.296875 30.941406 243.613281 31.222656 243.921875 C 31.523438 244.226562 31.832031 244.519531 32.136719 244.796875 C 33.609375 246.078125 35.363281 246.941406 37.394531 247.386719 C 38.464844 247.609375 39.550781 247.746094 40.644531 247.804688 C 41.164062 247.832031 41.6875 247.839844 42.207031 247.824219 C 42.464844 247.820312 42.722656 247.804688 42.980469 247.785156 C 44.84375 247.683594 46.734375 247.34375 48.652344 246.761719 C 49.960938 246.371094 51.085938 245.730469 52.03125 244.839844 C 52.199219 244.671875 52.363281 244.492188 52.53125 244.296875 C 52.558594 244.269531 52.601562 244.226562 52.660156 244.171875 C 52.964844 243.808594 53.242188 243.421875 53.492188 243.003906 C 53.628906 242.640625 53.738281 242.292969 53.824219 241.960938 C 54.769531 243.101562 56.0625 243.949219 57.703125 244.507812 C 63.097656 246.34375 68.128906 245.953125 72.800781 243.335938 C 74.109375 242.695312 75.125 241.847656 75.84375 240.792969 Z M 67.546875 271.523438 C 67.269531 270.996094 67.128906 270.425781 67.128906 269.816406 C 67.128906 269.117188 67.296875 268.492188 67.628906 267.9375 C 68.160156 268.964844 69.132812 269.898438 70.550781 270.730469 C 72.832031 272.070312 75.542969 272.738281 78.683594 272.738281 C 81.878906 272.738281 84.621094 272.070312 86.898438 270.730469 C 87.289062 270.511719 87.648438 270.257812 87.984375 269.980469 C 88.789062 269.339844 89.398438 268.65625 89.816406 267.9375 C 90.097656 268.546875 90.234375 269.171875 90.234375 269.816406 C 90.234375 270.425781 90.097656 270.996094 89.816406 271.523438 C 89.457031 272.332031 88.847656 273.070312 87.984375 273.738281 C 87.648438 274.015625 87.289062 274.28125 86.898438 274.53125 C 84.621094 275.839844 81.878906 276.496094 78.683594 276.496094 C 75.542969 276.496094 72.832031 275.839844 70.550781 274.53125 C 69.023438 273.667969 68.019531 272.667969 67.546875 271.523438 Z M 90.066406 278.292969 C 89.761719 279.152344 89.21875 279.917969 88.441406 280.589844 C 87.96875 281.007812 87.453125 281.382812 86.898438 281.71875 C 84.621094 283.023438 81.878906 283.679688 78.683594 283.679688 C 75.542969 283.679688 72.832031 283.023438 70.550781 281.71875 C 70.105469 281.492188 69.671875 281.199219 69.257812 280.839844 C 68.28125 280.113281 67.628906 279.265625 67.296875 278.292969 C 67.183594 277.84375 67.128906 277.441406 67.128906 277.082031 C 67.128906 276.414062 67.296875 275.785156 67.628906 275.203125 C 68.101562 276.230469 69.078125 277.179688 70.550781 278.039062 C 71.464844 278.542969 72.46875 278.972656 73.550781 279.335938 C 75.136719 279.722656 76.847656 279.917969 78.683594 279.917969 C 80.574219 279.917969 82.285156 279.722656 83.8125 279.335938 C 84.953125 278.972656 85.980469 278.542969 86.898438 278.039062 C 87.289062 277.816406 87.648438 277.582031 87.984375 277.332031 C 88.789062 276.664062 89.398438 275.953125 89.816406 275.203125 C 90.097656 275.785156 90.234375 276.414062 90.234375 277.082031 C 90.234375 277.5 90.179688 277.898438 90.066406 278.292969 Z M 90.066406 258.578125 C 89.707031 259.886719 88.652344 261.085938 86.898438 262.171875 C 84.621094 263.421875 81.878906 264.050781 78.683594 264.050781 C 75.542969 264.050781 72.832031 263.421875 70.550781 262.171875 C 70.277344 262.003906 70.019531 261.839844 69.777344 261.671875 C 68.453125 260.71875 67.628906 259.6875 67.296875 258.578125 C 67.183594 258.914062 67.128906 259.289062 67.128906 259.707031 C 67.128906 260.375 67.296875 261.027344 67.628906 261.671875 C 67.6875 261.761719 67.746094 261.851562 67.816406 261.941406 C 68.40625 262.816406 69.320312 263.644531 70.550781 264.425781 C 72.832031 265.679688 75.542969 266.304688 78.683594 266.304688 C 81.878906 266.304688 84.621094 265.679688 86.898438 264.425781 C 87.289062 264.175781 87.648438 263.910156 87.984375 263.632812 C 88.066406 263.578125 88.136719 263.523438 88.191406 263.464844 C 88.414062 263.300781 88.609375 263.132812 88.773438 262.964844 C 89.21875 262.546875 89.527344 262.117188 89.691406 261.671875 C 89.777344 261.839844 89.875 262.03125 89.988281 262.253906 C 90.152344 262.671875 90.234375 263.132812 90.234375 263.632812 C 90.234375 263.910156 90.207031 264.234375 90.152344 264.59375 C 90.152344 264.703125 90.125 264.789062 90.066406 264.84375 C 89.761719 265.875 89.066406 266.789062 87.984375 267.601562 C 87.648438 267.878906 87.289062 268.128906 86.898438 268.351562 C 84.621094 269.605469 81.878906 270.234375 78.683594 270.234375 C 75.542969 270.234375 72.832031 269.605469 70.550781 268.351562 C 68.769531 267.324219 67.6875 266.125 67.296875 264.761719 C 67.183594 264.425781 67.128906 264.050781 67.128906 263.632812 C 67.128906 263.03125 67.25 262.480469 67.484375 261.984375 C 66.402344 262.085938 65.328125 262.203125 64.25 262.335938 C 60.359375 262.5625 56.855469 261.390625 53.738281 258.828125 C 54.269531 261.753906 53.210938 263.910156 50.574219 265.304688 C 47.125 266.890625 43.496094 267.460938 39.6875 267.015625 C 36.074219 266.765625 33.191406 265.328125 31.050781 262.714844 C 29.886719 261.324219 29.664062 259.761719 30.386719 258.039062 C 32.222656 260.292969 34.570312 261.726562 37.433594 262.335938 C 40.574219 263.03125 43.636719 263.03125 46.609375 262.335938 C 50.695312 261.726562 53.1875 259.597656 54.074219 255.949219 C 54.632812 256.117188 55.242188 256.324219 55.910156 256.574219 C 57.664062 257.660156 59.691406 258.316406 62 258.539062 C 63.832031 258.796875 65.589844 258.78125 67.277344 258.496094 C 67.175781 258.136719 67.128906 257.800781 67.128906 257.496094 C 67.128906 256.84375 67.257812 256.238281 67.503906 255.679688 C 65.011719 256.09375 62.441406 256 59.789062 255.40625 C 57.175781 254.960938 55.132812 253.859375 53.660156 252.105469 L 53.824219 253.902344 C 52.519531 256.910156 50.113281 258.675781 46.609375 259.207031 C 42.855469 259.929688 39.101562 259.71875 35.351562 258.578125 C 33.125 257.855469 31.441406 256.433594 30.300781 254.320312 C 30.21875 254.179688 30.148438 254.039062 30.09375 253.902344 L 30.425781 250.644531 C 30.871094 251.230469 31.359375 251.773438 31.886719 252.277344 C 33.417969 253.664062 35.253906 254.597656 37.394531 255.070312 C 41.035156 255.851562 44.789062 255.65625 48.652344 254.488281 C 50.015625 254.039062 51.199219 253.34375 52.199219 252.398438 C 52.226562 252.34375 52.253906 252.300781 52.28125 252.277344 C 52.558594 251.996094 52.824219 251.6875 53.074219 251.355469 C 53.210938 251.128906 53.351562 250.910156 53.492188 250.6875 C 53.769531 249.9375 53.910156 249.238281 53.910156 248.597656 C 54.074219 248.710938 54.242188 248.832031 54.40625 248.972656 C 58.347656 251.785156 62.671875 252.828125 67.378906 252.105469 C 67.214844 252.5625 67.128906 253.039062 67.128906 253.527344 C 67.128906 254.222656 67.296875 254.847656 67.628906 255.40625 C 67.671875 255.480469 67.714844 255.558594 67.753906 255.636719 C 68.257812 256.417969 68.984375 257.132812 69.945312 257.785156 C 70.140625 257.914062 70.339844 258.039062 70.550781 258.160156 C 71.597656 258.765625 72.738281 259.230469 73.96875 259.5625 C 75.414062 259.9375 76.988281 260.125 78.683594 260.125 C 81.878906 260.125 84.621094 259.46875 86.898438 258.160156 C 88.261719 257.355469 89.191406 256.464844 89.691406 255.488281 C 90.054688 256.074219 90.234375 256.742188 90.234375 257.496094 C 90.234375 257.882812 90.179688 258.246094 90.066406 258.578125 Z M 29.632812 231.683594 C 30.050781 232.714844 30.816406 233.539062 31.929688 234.148438 C 32.761719 234.675781 33.640625 235.136719 34.558594 235.527344 C 33.363281 236.027344 32.359375 236.738281 31.554688 237.660156 C 30.71875 236.90625 29.96875 236 29.300781 234.945312 L 29.300781 232.5625 Z M 53.03125 228.472656 C 52.449219 230.027344 51.351562 231.226562 49.738281 232.058594 C 47.707031 233.148438 45.566406 233.816406 43.3125 234.066406 C 42.203125 233.980469 41.0625 234.007812 39.894531 234.148438 C 39.558594 234.121094 39.214844 234.078125 38.851562 234.023438 C 37.945312 233.96875 37.078125 233.835938 36.265625 233.625 C 33.34375 232.890625 31.019531 231.167969 29.300781 228.472656 L 29.632812 225.296875 C 30.496094 226.605469 31.523438 227.578125 32.71875 228.21875 C 33.875 228.84375 35.054688 229.328125 36.265625 229.660156 C 37.859375 230.109375 39.496094 230.3125 41.1875 230.265625 C 45.914062 230.597656 49.792969 228.945312 52.824219 225.296875 Z M 52.824219 231.683594 L 53.03125 234.945312 C 52.757812 235.722656 52.351562 236.417969 51.824219 237.03125 C 51.433594 236.722656 50.988281 236.445312 50.488281 236.199219 C 50.222656 236.0625 49.96875 235.941406 49.714844 235.820312 C 49.367188 235.65625 49.027344 235.503906 48.695312 235.363281 C 49.484375 234.984375 50.207031 234.515625 50.863281 233.960938 C 51.605469 233.320312 52.261719 232.5625 52.824219 231.683594 Z M 67.628906 287.644531 C 68.214844 288.589844 69.1875 289.496094 70.550781 290.359375 C 72.832031 291.667969 75.542969 292.324219 78.683594 292.324219 C 81.878906 292.324219 84.621094 291.667969 86.898438 290.359375 C 87.984375 289.746094 88.773438 289.09375 89.277344 288.398438 C 89.386719 288.898438 89.570312 289.414062 89.816406 289.941406 C 89.929688 290.109375 90.042969 290.304688 90.152344 290.527344 C 90.710938 291.222656 91.5 291.875 92.527344 292.488281 C 92.585938 292.546875 92.640625 292.613281 92.699219 292.699219 C 94.976562 294.007812 97.6875 294.664062 100.832031 294.664062 C 101.105469 294.664062 101.402344 294.664062 101.703125 294.664062 C 104.542969 294.492188 106.988281 293.839844 109.042969 292.699219 L 109.128906 292.574219 C 110.4375 291.792969 111.355469 290.945312 111.882812 290.027344 C 112.214844 290.582031 112.382812 291.207031 112.382812 291.90625 C 112.382812 292.351562 112.324219 292.753906 112.214844 293.117188 C 112.105469 293.449219 111.9375 293.785156 111.714844 294.117188 C 111.242188 295.039062 110.351562 295.875 109.042969 296.625 C 106.765625 297.933594 104.027344 298.589844 100.832031 298.589844 C 98.046875 298.589844 95.601562 298.074219 93.488281 297.042969 C 93.269531 296.875 93.003906 296.734375 92.699219 296.625 C 91.777344 296.039062 91.011719 295.46875 90.402344 294.910156 C 89.929688 294.328125 89.636719 293.726562 89.527344 293.117188 C 89.417969 292.890625 89.332031 292.628906 89.277344 292.324219 C 88.71875 293.074219 87.925781 293.742188 86.898438 294.328125 C 84.621094 295.636719 81.878906 296.292969 78.683594 296.292969 C 75.542969 296.292969 72.832031 295.636719 70.550781 294.328125 C 68.324219 293.042969 67.183594 291.5 67.128906 289.691406 C 67.128906 288.941406 67.296875 288.257812 67.628906 287.644531 Z M 67.296875 284.472656 C 67.183594 284.054688 67.128906 283.648438 67.128906 283.261719 C 67.128906 282.867188 67.183594 282.492188 67.296875 282.132812 C 67.355469 281.910156 67.464844 281.660156 67.628906 281.382812 C 67.6875 281.492188 67.769531 281.632812 67.882812 281.796875 C 68.410156 282.660156 69.300781 283.457031 70.550781 284.179688 C 72.832031 285.515625 75.542969 286.183594 78.683594 286.183594 C 81.878906 286.183594 84.621094 285.515625 86.898438 284.179688 C 88.316406 283.34375 89.289062 282.410156 89.816406 281.382812 C 90.097656 281.9375 90.234375 282.566406 90.234375 283.261719 C 90.234375 283.648438 90.179688 284.054688 90.066406 284.472656 C 89.707031 285.722656 88.652344 286.867188 86.898438 287.898438 C 84.621094 289.203125 81.878906 289.859375 78.683594 289.859375 C 75.542969 289.859375 72.832031 289.203125 70.550781 287.898438 C 68.828125 286.867188 67.742188 285.722656 67.296875 284.472656 Z M 68.335938 306.566406 C 68.894531 307.539062 69.882812 308.414062 71.300781 309.195312 C 73.523438 310.53125 76.207031 311.199219 79.351562 311.199219 C 82.601562 311.199219 85.34375 310.53125 87.566406 309.195312 C 88.871094 308.46875 89.789062 307.675781 90.320312 306.8125 C 90.375 306.757812 90.402344 306.703125 90.402344 306.648438 C 90.792969 306.007812 90.988281 305.296875 90.988281 304.515625 C 90.988281 304.320312 90.957031 304.113281 90.902344 303.890625 C 91.429688 304.363281 92.03125 304.792969 92.699219 305.183594 C 94.976562 306.492188 97.6875 307.148438 100.832031 307.148438 C 104.027344 307.148438 106.765625 306.492188 109.042969 305.183594 C 110.519531 304.320312 111.519531 303.375 112.050781 302.347656 C 112.269531 302.929688 112.382812 303.5 112.382812 304.058594 C 112.382812 305.894531 111.269531 307.46875 109.042969 308.777344 C 106.765625 310.03125 104.027344 310.65625 100.832031 310.65625 C 97.6875 310.65625 94.976562 310.03125 92.699219 308.777344 C 91.972656 308.273438 91.320312 307.789062 90.734375 307.316406 C 90.902344 307.734375 90.988281 308.164062 90.988281 308.609375 C 90.988281 310.449219 89.847656 312.019531 87.566406 313.328125 C 85.34375 314.636719 82.601562 315.292969 79.351562 315.292969 C 76.207031 315.292969 73.523438 314.636719 71.300781 313.328125 C 69.023438 312.019531 67.882812 310.449219 67.882812 308.609375 C 67.882812 307.914062 68.035156 307.230469 68.335938 306.566406 Z M 112.214844 299.257812 C 111.773438 300.535156 110.714844 301.648438 109.042969 302.597656 C 106.765625 303.875 104.027344 304.515625 100.832031 304.515625 C 97.6875 304.515625 94.976562 303.875 92.699219 302.597656 C 91 301.648438 89.945312 300.535156 89.527344 299.257812 C 89.359375 298.808594 89.277344 298.363281 89.277344 297.917969 C 89.277344 297.277344 89.386719 296.707031 89.609375 296.207031 C 89.96875 296.820312 90.515625 297.445312 91.238281 298.085938 C 91.65625 298.421875 92.140625 298.753906 92.699219 299.085938 C 94.976562 300.425781 97.6875 301.09375 100.832031 301.09375 C 104.027344 301.09375 106.765625 300.425781 109.042969 299.085938 C 110.519531 298.195312 111.519531 297.238281 112.050781 296.207031 C 112.269531 296.765625 112.382812 297.335938 112.382812 297.917969 C 112.382812 298.363281 112.324219 298.808594 112.214844 299.257812 Z M 175.589844 308.273438 L 170.085938 311.472656 C 168.984375 311.148438 167.921875 310.707031 166.894531 310.152344 C 165.476562 309.292969 164.445312 308.175781 163.808594 306.8125 C 163.640625 306.3125 163.558594 305.824219 163.558594 305.351562 C 163.558594 304.6875 163.699219 304.058594 163.976562 303.472656 C 164.363281 304.226562 165.015625 304.964844 165.9375 305.6875 C 166.101562 305.742188 166.28125 305.867188 166.476562 306.0625 C 166.644531 306.117188 166.808594 306.199219 166.980469 306.3125 C 169.199219 307.621094 171.914062 308.273438 175.113281 308.273438 C 175.273438 308.273438 175.429688 308.273438 175.589844 308.273438 Z M 186.496094 300.382812 C 186.355469 300.800781 186.175781 301.175781 185.957031 301.511719 C 185.5 302.214844 184.8125 302.855469 183.890625 303.433594 C 183.6875 303.558594 183.472656 303.683594 183.246094 303.808594 C 183.199219 303.832031 183.15625 303.859375 183.117188 303.890625 L 182.972656 303.972656 C 181.472656 304.796875 179.730469 305.339844 177.738281 305.601562 C 176.902344 305.714844 176.027344 305.769531 175.113281 305.769531 C 172.414062 305.769531 170.078125 305.324219 168.101562 304.433594 C 167.6875 304.238281 167.3125 304.03125 166.980469 303.808594 C 165.253906 302.832031 164.171875 301.691406 163.722656 300.382812 C 163.613281 299.933594 163.558594 299.535156 163.558594 299.171875 C 163.558594 298.449219 163.699219 297.796875 163.976562 297.207031 C 164.558594 298.292969 165.558594 299.242188 166.980469 300.050781 C 168.5625 300.964844 170.382812 301.566406 172.441406 301.84375 C 173.304688 301.953125 174.191406 302.011719 175.113281 302.011719 C 175.886719 302.011719 176.652344 301.953125 177.40625 301.84375 C 179.074219 301.675781 180.558594 301.328125 181.867188 300.800781 C 182.367188 300.578125 182.828125 300.328125 183.246094 300.050781 C 184.71875 299.242188 185.703125 298.292969 186.203125 297.207031 C 186.507812 297.847656 186.664062 298.503906 186.664062 299.171875 C 186.664062 299.589844 186.609375 299.992188 186.496094 300.382812 Z M 186.496094 294.328125 C 186.136719 295.578125 185.050781 296.722656 183.246094 297.753906 C 181.296875 298.890625 178.921875 299.546875 176.113281 299.714844 C 175.832031 299.714844 175.5 299.714844 175.113281 299.714844 C 171.914062 299.714844 169.199219 299.0625 166.980469 297.753906 C 165.195312 296.722656 164.085938 295.539062 163.640625 294.203125 C 163.582031 293.867188 163.558594 293.503906 163.558594 293.117188 C 163.558594 292.417969 163.722656 291.738281 164.058594 291.070312 C 164.644531 292.074219 165.613281 292.976562 166.980469 293.785156 C 169.199219 295.09375 171.914062 295.746094 175.113281 295.746094 C 178.308594 295.746094 181.019531 295.09375 183.246094 293.785156 C 183.355469 293.726562 183.464844 293.699219 183.578125 293.699219 C 184.828125 292.949219 185.675781 292.097656 186.121094 291.152344 C 186.484375 291.765625 186.664062 292.417969 186.664062 293.117188 C 186.664062 293.503906 186.609375 293.910156 186.496094 294.328125 "/>
<path style=" stroke:none;fill-rule:evenodd;fill:rgb(85.099792%,99.21875%,78.039551%);fill-opacity:1;" d="M 154.214844 284.554688 C 152.628906 284.554688 151.351562 284.207031 150.378906 283.511719 C 149.292969 283.007812 148.695312 282.300781 148.585938 281.382812 C 148.585938 280.515625 149.179688 279.835938 150.378906 279.335938 C 151.351562 278.640625 152.574219 278.292969 154.050781 278.292969 C 155.660156 278.292969 157.007812 278.570312 158.09375 279.125 C 159.039062 279.765625 159.511719 280.515625 159.511719 281.382812 C 159.511719 282.300781 159.039062 283.09375 158.09375 283.761719 C 156.871094 284.292969 155.578125 284.554688 154.214844 284.554688 Z M 124.1875 249.433594 L 97.824219 264.425781 L 147.207031 292.699219 L 173.234375 277.5 Z M 116.929688 257.285156 C 118.511719 257.285156 119.847656 257.550781 120.929688 258.078125 C 121.851562 258.75 122.308594 259.542969 122.308594 260.457031 C 122.308594 261.265625 121.851562 262.015625 120.929688 262.714844 C 119.734375 263.214844 118.457031 263.464844 117.097656 263.464844 C 115.484375 263.464844 114.203125 263.160156 113.257812 262.546875 C 112.171875 261.960938 111.578125 261.265625 111.464844 260.457031 C 111.464844 259.542969 112.0625 258.804688 113.257812 258.246094 C 114.203125 257.601562 115.429688 257.285156 116.929688 257.285156 Z M 146.269531 263.945312 C 146.589844 264.097656 146.902344 264.253906 147.207031 264.425781 C 147.664062 264.679688 148.089844 264.945312 148.480469 265.222656 C 150.886719 266.878906 152.089844 268.867188 152.089844 271.191406 C 152.089844 273.808594 150.460938 276.035156 147.207031 277.875 C 145.566406 278.902344 143.71875 279.640625 141.660156 280.085938 C 139.769531 280.53125 137.710938 280.753906 135.488281 280.753906 C 130.984375 280.753906 127.132812 279.796875 123.9375 277.875 C 120.738281 276.148438 119.054688 273.890625 118.886719 271.105469 C 119 269.660156 119.542969 268.3125 120.515625 267.058594 C 121.433594 266.082031 122.574219 265.207031 123.9375 264.425781 C 127.132812 262.589844 130.984375 261.671875 135.488281 261.671875 C 139.578125 261.671875 143.167969 262.429688 146.269531 263.945312 Z M 183.578125 278.292969 L 176.195312 282.589844 C 175.859375 282.511719 175.5 282.46875 175.113281 282.46875 C 171.914062 282.46875 169.175781 283.136719 166.894531 284.472656 C 164.667969 285.722656 163.558594 287.253906 163.558594 289.066406 C 163.558594 289.316406 163.558594 289.578125 163.558594 289.859375 L 148.75 298.335938 L 90.152344 264.59375 C 90.207031 264.234375 90.234375 263.910156 90.234375 263.632812 C 90.234375 263.132812 90.152344 262.671875 89.988281 262.253906 L 116.488281 246.847656 L 122.640625 243.253906 L 183.578125 278.292969 "/>
<path style=" stroke:none;fill-rule:evenodd;fill:rgb(49.01886%,74.899292%,36.079407%);fill-opacity:1;" d="M 154.214844 284.554688 C 155.578125 284.554688 156.871094 284.292969 158.09375 283.761719 C 159.039062 283.09375 159.511719 282.300781 159.511719 281.382812 C 159.511719 280.515625 159.039062 279.765625 158.09375 279.125 C 157.007812 278.570312 155.660156 278.292969 154.050781 278.292969 C 152.574219 278.292969 151.351562 278.640625 150.378906 279.335938 C 149.179688 279.835938 148.585938 280.515625 148.585938 281.382812 C 148.695312 282.300781 149.292969 283.007812 150.378906 283.511719 C 151.351562 284.207031 152.628906 284.554688 154.214844 284.554688 Z M 124.1875 249.433594 L 173.234375 277.5 L 147.207031 292.699219 L 97.824219 264.425781 Z M 146.269531 263.945312 C 143.167969 262.429688 139.578125 261.671875 135.488281 261.671875 C 130.984375 261.671875 127.132812 262.589844 123.9375 264.425781 C 122.574219 265.207031 121.433594 266.082031 120.515625 267.058594 C 119.542969 268.3125 119 269.660156 118.886719 271.105469 C 119.054688 273.890625 120.738281 276.148438 123.9375 277.875 C 127.132812 279.796875 130.984375 280.753906 135.488281 280.753906 C 137.710938 280.753906 139.769531 280.53125 141.660156 280.085938 C 143.71875 279.640625 145.566406 278.902344 147.207031 277.875 C 150.460938 276.035156 152.089844 273.808594 152.089844 271.191406 C 152.089844 268.867188 150.886719 266.878906 148.480469 265.222656 C 148.089844 264.945312 147.664062 264.679688 147.207031 264.425781 C 146.902344 264.253906 146.589844 264.097656 146.269531 263.945312 Z M 116.929688 257.285156 C 115.429688 257.285156 114.203125 257.601562 113.257812 258.246094 C 112.0625 258.804688 111.464844 259.542969 111.464844 260.457031 C 111.578125 261.265625 112.171875 261.960938 113.257812 262.546875 C 114.203125 263.160156 115.484375 263.464844 117.097656 263.464844 C 118.457031 263.464844 119.734375 263.214844 120.929688 262.714844 C 121.851562 262.015625 122.308594 261.265625 122.308594 260.457031 C 122.308594 259.542969 121.851562 258.75 120.929688 258.078125 C 119.847656 257.550781 118.511719 257.285156 116.929688 257.285156 "/>
<g clip-path="url(#clip3)" clip-rule="nonzero">
<path style=" stroke:none;fill-rule:evenodd;fill:rgb(42.749023%,56.469727%,36.079407%);fill-opacity:1;" d="M 90.066406 278.292969 C 90.179688 277.898438 90.234375 277.5 90.234375 277.082031 C 90.234375 276.414062 90.097656 275.785156 89.816406 275.203125 C 90.097656 274.589844 90.234375 273.960938 90.234375 273.324219 C 90.234375 272.738281 90.097656 272.136719 89.816406 271.523438 C 90.097656 270.996094 90.234375 270.425781 90.234375 269.816406 C 90.234375 269.171875 90.097656 268.546875 89.816406 267.9375 C 90.097656 267.292969 90.234375 266.667969 90.234375 266.054688 C 90.234375 265.582031 90.179688 265.179688 90.066406 264.84375 C 90.125 264.789062 90.152344 264.703125 90.152344 264.59375 L 148.75 298.335938 L 148.75 315.457031 L 112.382812 294.492188 L 112.382812 294.410156 C 112.382812 293.9375 112.324219 293.503906 112.214844 293.117188 C 112.324219 292.753906 112.382812 292.351562 112.382812 291.90625 C 112.382812 291.207031 112.214844 290.582031 111.882812 290.027344 C 112.214844 289.328125 112.382812 288.648438 112.382812 287.980469 C 112.382812 286.140625 111.269531 284.570312 109.042969 283.261719 C 106.765625 282.007812 104.027344 281.382812 100.832031 281.382812 C 97.6875 281.382812 95.03125 281.976562 92.863281 283.179688 L 89.816406 281.382812 C 90.097656 280.742188 90.234375 280.140625 90.234375 279.585938 C 90.234375 279.109375 90.179688 278.679688 90.066406 278.292969 Z M 153.339844 323.6875 C 153.503906 323.855469 153.726562 324.003906 154.007812 324.144531 L 218.277344 361.0625 C 220.167969 362.175781 222.058594 362.1875 223.949219 361.101562 L 260.902344 339.636719 C 261.792969 339.140625 262.265625 338.636719 262.320312 338.132812 C 263.433594 339.054688 263.195312 339.988281 261.613281 340.933594 L 224.660156 362.441406 C 222.769531 363.496094 220.863281 363.46875 218.945312 362.355469 L 154.714844 325.4375 C 153.6875 324.882812 153.226562 324.296875 153.339844 323.6875 "/>
</g>
<path style=" stroke:none;fill-rule:evenodd;fill:rgb(80.778503%,87.059021%,99.609375%);fill-opacity:1;" d="M 92.863281 283.179688 C 92.808594 283.230469 92.722656 283.261719 92.613281 283.261719 C 91.582031 283.875 90.765625 284.554688 90.152344 285.304688 C 90.152344 284.972656 90.125 284.691406 90.066406 284.472656 C 90.179688 284.054688 90.234375 283.648438 90.234375 283.261719 C 90.234375 282.566406 90.097656 281.9375 89.816406 281.382812 Z M 89.527344 299.257812 C 89.359375 299.617188 89.277344 300.050781 89.277344 300.550781 C 89.277344 300.71875 89.277344 300.925781 89.277344 301.175781 C 88.832031 300.703125 88.261719 300.273438 87.566406 299.882812 C 86.84375 299.464844 86.078125 299.117188 85.273438 298.839844 C 85.828125 298.945312 86.425781 299.03125 87.066406 299.085938 C 87.621094 299.28125 88.164062 299.519531 88.691406 299.796875 C 88.96875 299.574219 89.25 299.394531 89.527344 299.257812 "/>
<path style=" stroke:none;fill-rule:evenodd;fill:rgb(22.349548%,36.079407%,15.289307%);fill-opacity:1;" d="M 183.578125 284.640625 C 183.464844 284.527344 183.355469 284.472656 183.246094 284.472656 C 182.132812 283.820312 180.890625 283.34375 179.511719 283.03125 C 178.484375 282.789062 177.375 282.640625 176.195312 282.589844 L 183.578125 278.292969 Z M 148.75 315.457031 L 148.75 298.335938 L 163.558594 289.859375 C 163.667969 290.304688 163.835938 290.707031 164.058594 291.070312 C 163.722656 291.738281 163.558594 292.417969 163.558594 293.117188 C 163.558594 293.503906 163.582031 293.867188 163.640625 294.203125 C 163.582031 294.621094 163.558594 294.996094 163.558594 295.328125 C 163.558594 296.023438 163.699219 296.648438 163.976562 297.207031 C 163.699219 297.796875 163.558594 298.449219 163.558594 299.171875 C 163.558594 299.535156 163.613281 299.933594 163.722656 300.382812 C 163.613281 300.605469 163.558594 300.867188 163.558594 301.175781 C 163.558594 301.285156 163.558594 301.425781 163.558594 301.59375 C 163.558594 302.261719 163.699219 302.886719 163.976562 303.472656 C 163.699219 304.058594 163.558594 304.6875 163.558594 305.351562 C 163.558594 305.824219 163.640625 306.3125 163.808594 306.8125 L 148.835938 315.457031 L 148.75 315.457031 "/>
<path style=" stroke:none;fill-rule:evenodd;fill:rgb(16.859436%,12.159729%,60.778809%);fill-opacity:1;" d="M 195.378906 339.054688 C 195.378906 340.195312 196.101562 341.183594 197.550781 342.019531 C 198.964844 342.855469 200.691406 343.242188 202.71875 343.1875 C 204.75 343.1875 206.472656 342.796875 207.890625 342.019531 C 209.308594 341.15625 210.007812 340.140625 209.976562 338.96875 C 209.976562 337.800781 209.253906 336.800781 207.808594 335.964844 C 206.417969 335.128906 204.707031 334.722656 202.679688 334.753906 C 200.675781 334.753906 198.953125 335.171875 197.507812 336.007812 C 196.089844 336.84375 195.378906 337.855469 195.378906 339.054688 Z M 185.914062 324.144531 L 195.878906 318.339844 C 196.382812 318.0625 196.449219 317.8125 196.089844 317.589844 L 184.203125 310.742188 C 183.839844 310.515625 183.410156 310.546875 182.910156 310.824219 L 172.941406 316.625 C 172.441406 316.902344 172.371094 317.15625 172.734375 317.378906 L 184.621094 324.269531 C 184.980469 324.492188 185.410156 324.449219 185.914062 324.144531 Z M 202.886719 318.425781 L 207.726562 315.582031 L 190.582031 305.730469 L 185.746094 308.566406 Z M 223.867188 315 L 221.113281 321.429688 L 214.355469 317.546875 L 209.558594 320.347656 L 219.195312 325.898438 L 206.890625 354.210938 L 154.296875 323.976562 C 152.738281 323.0625 152.492188 322.140625 153.546875 321.21875 C 153.714844 321 153.964844 320.804688 154.296875 320.636719 L 170.085938 311.472656 L 175.589844 308.273438 L 182.972656 303.972656 L 183.117188 303.890625 C 183.15625 303.859375 183.199219 303.832031 183.246094 303.808594 C 183.472656 303.683594 183.6875 303.558594 183.890625 303.433594 L 186.664062 301.824219 L 191.292969 299.128906 C 193.15625 298.042969 195.046875 298.074219 196.964844 299.214844 L 223.992188 314.746094 L 223.867188 315 "/>
<path style=" stroke:none;fill-rule:evenodd;fill:rgb(100%,100%,100%);fill-opacity:1;" d="M 195.378906 339.054688 C 195.378906 337.855469 196.089844 336.84375 197.507812 336.007812 C 198.953125 335.171875 200.675781 334.753906 202.679688 334.753906 C 204.707031 334.722656 206.417969 335.128906 207.808594 335.964844 C 209.253906 336.800781 209.976562 337.800781 209.976562 338.96875 C 210.007812 340.140625 209.308594 341.15625 207.890625 342.019531 C 206.472656 342.796875 204.75 343.1875 202.71875 343.1875 C 200.691406 343.242188 198.964844 342.855469 197.550781 342.019531 C 196.101562 341.183594 195.378906 340.195312 195.378906 339.054688 "/>
<path style=" stroke:none;fill-rule:evenodd;fill:rgb(92.939758%,25.878906%,54.508972%);fill-opacity:1;" d="M 212.148438 351.332031 C 212.148438 349.746094 213.105469 348.351562 215.023438 347.15625 C 217 346.011719 219.402344 345.441406 222.238281 345.441406 C 225.074219 345.386719 227.480469 345.945312 229.457031 347.113281 C 231.429688 348.253906 232.402344 349.617188 232.375 351.207031 C 232.402344 352.792969 231.429688 354.199219 229.457031 355.425781 C 227.507812 356.566406 225.132812 357.136719 222.324219 357.136719 C 219.457031 357.164062 217.039062 356.59375 215.066406 355.425781 C 213.089844 354.28125 212.117188 352.921875 212.148438 351.332031 "/>
<path style=" stroke:none;fill-rule:evenodd;fill:rgb(79.60968%,12.548828%,41.178894%);fill-opacity:1;" d="M 145.371094 95.628906 C 146.371094 96.378906 147.304688 97.226562 148.167969 98.171875 L 148.167969 138.304688 L 130.859375 128.367188 L 130.859375 90.574219 C 134.863281 89.683594 139.699219 91.367188 145.371094 95.628906 "/>
</g>
</svg>
