<?xml version="1.0" encoding="UTF-8"?>
<svg xmlns="http://www.w3.org/2000/svg" xmlns:xlink="http://www.w3.org/1999/xlink" width="260pt" height="260pt" viewBox="0 0 260 260" version="1.1">
<g id="surface1">
<path style=" stroke:none;fill-rule:evenodd;fill:rgb(16.862745%,32.941176%,90.196078%);fill-opacity:1;" d="M 78.027344 161.648438 L 78.027344 169.640625 L 80.707031 171.148438 L 62.359375 181.828125 C 62.28125 181.675781 62.230469 181.542969 62.171875 181.425781 C 62.421875 180.980469 62.554688 180.527344 62.554688 180.0625 C 62.554688 179.773438 62.523438 179.511719 62.441406 179.28125 C 62.523438 179.050781 62.5625 178.796875 62.5625 178.53125 C 62.5625 178.007812 62.4375 177.542969 62.1875 177.136719 C 62.4375 176.714844 62.5625 176.261719 62.5625 175.777344 C 62.5625 174.523438 61.789062 173.433594 60.25 172.507812 C 58.671875 171.601562 56.769531 171.148438 54.554688 171.148438 C 53.925781 171.148438 53.324219 171.1875 52.746094 171.261719 L 52.933594 170.1875 L 52.816406 169.175781 L 52.585938 166.949219 C 53.320312 164.84375 52.613281 163.242188 50.476562 162.140625 C 48.429688 161.164062 46.371094 160.625 44.300781 160.660156 L 52.414062 147.589844 L 52.441406 147.589844 L 60.304688 135.03125 C 66.699219 139.027344 75.613281 144.457031 87.058594 151.25 C 86.324219 153.378906 85.625 154.882812 85.085938 155.726562 C 83.601562 158.042969 81.496094 160.027344 78.027344 161.648438 Z M 246.371094 42.414062 L 244.777344 43.515625 L 210.910156 67.402344 L 213.035156 68.558594 L 220.644531 72.773438 L 206.632812 95.15625 C 206.53125 95.125 206.425781 95.109375 206.3125 95.109375 L 58.660156 8.855469 C 57.964844 8.527344 57.4375 8.363281 57.070312 8.363281 C 56.875 8.363281 56.546875 8.449219 56.085938 8.625 L 55.449219 8.855469 L 49.347656 12.097656 C 49.273438 12.195312 48.933594 12.515625 48.605469 13.054688 C 48.320312 13.554688 48.53125 13.863281 47.949219 13.980469 L 47.949219 113.875 L 33.644531 136.878906 C 30.441406 135.449219 27.226562 135.339844 23.863281 136.546875 C 22.304688 137.085938 21.179688 138.089844 20.425781 139.558594 C 20.042969 140.480469 20.085938 141.265625 20.53125 141.902344 L 20.308594 144.160156 L 20.542969 146.417969 L 20.316406 148.648438 L 20.546875 150.90625 L 20.519531 153.539062 L 20.546875 156.207031 L 20.316406 158.40625 L 20.484375 160.632812 L 20.191406 161.242188 L 20.191406 162.894531 L 20.484375 165.179688 C 19.984375 166.570312 20.1875 167.71875 21.035156 168.625 L 20.847656 170.710938 C 20.886719 170.804688 20.953125 170.914062 21.03125 171.027344 C 21.050781 171.089844 21.082031 171.148438 21.121094 171.203125 C 21.0625 171.28125 21.015625 171.355469 20.980469 171.4375 C 20.59375 172.359375 20.632812 173.144531 21.09375 173.78125 L 20.863281 176.039062 C 20.902344 176.132812 20.953125 176.230469 21.007812 176.328125 C 20.777344 176.886719 20.730469 177.527344 20.863281 178.242188 C 20.941406 178.453125 21.007812 178.675781 21.066406 178.90625 C 20.566406 180.101562 20.722656 181.183594 21.527344 182.148438 C 23.011719 183.960938 25.011719 184.957031 27.515625 185.132812 C 30.15625 185.4375 32.671875 185.042969 35.066406 183.945312 C 36.894531 182.976562 37.625 181.484375 37.257812 179.453125 C 39.417969 181.230469 41.847656 182.042969 44.546875 181.886719 C 45.292969 181.792969 46.039062 181.710938 46.789062 181.640625 C 46.625 181.988281 46.542969 182.367188 46.542969 182.785156 C 46.542969 183.074219 46.582031 183.335938 46.660156 183.566406 C 46.582031 183.835938 46.542969 184.136719 46.542969 184.464844 C 46.542969 184.890625 46.660156 185.324219 46.890625 185.769531 C 46.660156 186.15625 46.542969 186.589844 46.542969 187.074219 C 46.542969 187.496094 46.640625 187.890625 46.832031 188.257812 C 46.640625 188.644531 46.542969 189.058594 46.542969 189.503906 C 46.542969 189.945312 46.660156 190.382812 46.890625 190.808594 C 46.660156 191.210938 46.542969 191.648438 46.542969 192.109375 C 46.542969 192.359375 46.582031 192.636719 46.660156 192.949219 C 46.582031 193.21875 46.542969 193.515625 46.542969 193.847656 C 46.542969 194.230469 46.660156 194.648438 46.890625 195.09375 C 46.777344 195.285156 46.699219 195.457031 46.660156 195.613281 C 46.582031 195.863281 46.542969 196.121094 46.542969 196.394531 C 46.542969 196.664062 46.582031 196.945312 46.660156 197.234375 C 46.582031 197.503906 46.542969 197.796875 46.542969 198.101562 C 46.542969 198.546875 46.660156 198.988281 46.890625 199.433594 C 46.660156 199.859375 46.542969 200.332031 46.542969 200.851562 C 46.582031 202.105469 47.371094 203.175781 48.914062 204.066406 C 50.496094 204.972656 52.375 205.429688 54.554688 205.429688 C 56.769531 205.429688 58.671875 204.972656 60.25 204.066406 C 60.960938 203.660156 61.511719 203.199219 61.898438 202.679688 C 61.9375 202.890625 61.996094 203.070312 62.070312 203.226562 C 61.957031 203.496094 61.898438 203.796875 61.898438 204.125 C 61.898438 204.394531 61.9375 204.664062 62.011719 204.933594 C 62.050781 205.089844 62.089844 205.234375 62.128906 205.371094 C 61.972656 205.71875 61.898438 206.113281 61.898438 206.558594 C 61.898438 206.867188 61.957031 207.171875 62.070312 207.484375 C 61.878906 207.578125 61.683594 207.703125 61.492188 207.859375 C 61.128906 207.667969 60.75 207.5 60.367188 207.367188 C 59.921875 207.328125 59.507812 207.269531 59.125 207.195312 C 58.5625 206.960938 57.964844 206.808594 57.332031 206.734375 C 56.613281 206.617188 55.84375 206.558594 55.015625 206.558594 C 54.070312 206.558594 53.164062 206.652344 52.296875 206.847656 C 51.234375 207.039062 50.265625 207.394531 49.378906 207.917969 C 48.878906 208.226562 48.421875 208.585938 48.019531 208.988281 C 47.378906 209.628906 47.066406 210.339844 47.066406 211.132812 C 47.066406 211.632812 47.171875 212.105469 47.378906 212.554688 C 47.171875 213.011719 47.066406 213.488281 47.066406 213.96875 C 47.066406 215.246094 47.855469 216.332031 49.433594 217.242188 C 50.976562 218.148438 52.835938 218.601562 55.015625 218.601562 C 57.269531 218.601562 59.171875 218.148438 60.710938 217.242188 C 62.292969 216.332031 63.085938 215.246094 63.085938 213.96875 C 63.085938 213.660156 63.027344 213.363281 62.910156 213.074219 C 63.316406 213.402344 63.769531 213.734375 64.269531 214.085938 C 65.851562 214.957031 67.730469 215.386719 69.910156 215.386719 C 72.125 215.386719 74.023438 214.957031 75.601562 214.085938 C 77.148438 213.179688 77.917969 212.085938 77.917969 210.8125 C 77.917969 210.425781 77.839844 210.03125 77.6875 209.628906 C 77.839844 209.203125 77.917969 208.789062 77.917969 208.382812 C 77.917969 208.074219 77.878906 207.773438 77.800781 207.484375 C 77.878906 207.171875 77.917969 206.867188 77.917969 206.558594 C 77.917969 206.152344 77.839844 205.757812 77.6875 205.371094 C 77.839844 204.925781 77.917969 204.578125 77.917969 204.234375 L 103.132812 218.820312 L 103.191406 218.820312 L 113.574219 212.773438 C 114.015625 213.71875 114.730469 214.46875 115.714844 215.066406 C 116.425781 215.449219 117.164062 215.742188 117.925781 215.964844 L 106.980469 222.3125 C 106.75 222.429688 106.574219 222.5625 106.460938 222.71875 C 105.628906 223.273438 105.585938 223.84375 106.316406 224.421875 C 106.238281 224.847656 106.558594 225.253906 107.269531 225.636719 L 151.800781 251.234375 C 153.132812 252.007812 154.453125 252.023438 155.765625 251.292969 L 181.386719 236.378906 C 182.480469 235.726562 182.648438 235.078125 181.875 234.4375 C 181.933594 234.011719 181.597656 233.589844 180.863281 233.164062 L 155.214844 218.398438 L 155.300781 218.222656 L 136.5625 207.457031 C 135.234375 206.664062 133.960938 206.644531 132.667969 207.394531 L 129.5 209.265625 C 129.5 209.210938 129.5 209.15625 129.5 209.105469 C 129.5 208.835938 129.421875 208.554688 129.339844 208.265625 C 129.421875 207.996094 129.4375 207.714844 129.4375 207.425781 C 129.4375 206.960938 129.324219 206.507812 129.113281 206.0625 C 129.324219 205.675781 129.421875 205.242188 129.421875 204.761719 C 129.421875 204.53125 129.382812 204.300781 129.304688 204.066406 C 129.382812 203.777344 129.421875 203.496094 129.421875 203.226562 C 129.421875 202.742188 129.296875 202.292969 129.042969 201.867188 C 129.296875 201.421875 129.421875 200.9375 129.421875 200.417969 C 129.421875 199.832031 129.242188 199.28125 128.882812 198.769531 L 152.4375 212.289062 L 167.15625 204.15625 C 167.183594 201.671875 166.914062 199.414062 166.347656 197.378906 C 169.09375 198.933594 171.785156 200.460938 174.414062 201.957031 C 190.222656 210.890625 198.414062 215.359375 198.996094 215.359375 C 199.226562 215.359375 199.535156 215.3125 199.921875 215.214844 C 200.226562 215.097656 200.472656 214.992188 200.644531 214.894531 C 204.863281 212.347656 207.160156 210.839844 207.527344 210.378906 C 207.738281 210.148438 207.8125 209.820312 207.757812 209.394531 C 207.699219 208.757812 207.707031 208.207031 207.785156 207.746094 C 208.035156 206.160156 208.171875 191.632812 208.191406 164.167969 C 208.179688 151.722656 208.179688 140.8125 208.175781 131.449219 L 210.070312 130.375 L 239.449219 83.195312 L 244.835938 86.105469 L 253.265625 81.242188 L 253.265625 38.449219 Z M 246.371094 42.414062 "/>
<path style=" stroke:none;fill-rule:evenodd;fill:rgb(34.509804%,34.509804%,77.254902%);fill-opacity:1;" d="M 161.835938 194.800781 C 163.355469 195.667969 164.859375 196.53125 166.347656 197.378906 C 166.914062 199.414062 167.183594 201.671875 167.15625 204.15625 L 152.4375 212.289062 L 152.4375 204.328125 C 155.617188 202.707031 157.972656 200.734375 159.492188 198.421875 C 160.007812 197.617188 160.789062 196.40625 161.835938 194.800781 Z M 161.835938 194.800781 "/>
<path style=" stroke:none;fill-rule:evenodd;fill:rgb(67.058824%,69.411765%,92.156863%);fill-opacity:1;" d="M 107.5 76 C 110.007812 80.515625 112.675781 84.5625 115.511719 88.132812 L 115.511719 103.21875 L 103.507812 96.328125 L 103.507812 69.109375 C 104.28125 70.304688 105.609375 72.605469 107.5 76 Z M 69.9375 62.59375 C 72.558594 65.527344 74.96875 67.5 77.164062 68.5 L 77.164062 81.214844 L 65.164062 74.324219 L 65.164062 60.484375 C 66.804688 60.210938 68.394531 60.925781 69.9375 62.625 Z M 159.492188 198.421875 L 85.148438 155.742188 C 85.6875 154.898438 86.324219 153.414062 87.058594 151.285156 C 97.027344 157.207031 108.921875 164.191406 122.738281 172.246094 C 136.800781 180.417969 149.832031 187.9375 161.835938 194.800781 C 160.789062 196.40625 160.007812 197.617188 159.492188 198.421875 Z M 129.421875 151.863281 L 129.421875 151.746094 L 152.148438 164.890625 C 153.09375 165.453125 153.902344 166.320312 154.578125 167.496094 C 155.269531 168.675781 155.617188 169.824219 155.617188 170.945312 C 155.617188 172.042969 155.269531 172.785156 154.578125 173.171875 C 154.273438 173.355469 153.941406 173.441406 153.578125 173.433594 C 153.140625 173.410156 152.667969 173.25 152.148438 172.941406 L 129.421875 159.824219 Z M 203.230469 100.585938 L 200.644531 104.722656 L 200.644531 102 Z M 78.152344 161.648438 L 152.4375 204.328125 L 152.4375 212.289062 L 128.882812 198.769531 C 128.53125 198.257812 127.992188 197.785156 127.28125 197.351562 L 127.28125 192.949219 L 85.03125 168.65625 L 80.765625 171.148438 L 78.152344 169.640625 Z M 200.644531 214.894531 L 200.644531 135.691406 L 208.175781 131.449219 C 208.179688 140.8125 208.179688 151.722656 208.191406 164.167969 C 208.171875 191.632812 208.035156 206.160156 207.785156 207.746094 C 207.707031 208.207031 207.699219 208.757812 207.757812 209.394531 C 207.8125 209.820312 207.738281 210.148438 207.527344 210.378906 C 207.160156 210.839844 204.863281 212.347656 200.644531 214.894531 Z M 200.644531 214.894531 "/>
<path style=" stroke:none;fill-rule:evenodd;fill:rgb(85.882353%,87.45098%,100%);fill-opacity:1;" d="M 152.4375 204.328125 L 78.152344 161.648438 C 81.332031 160.027344 83.664062 158.058594 85.148438 155.742188 L 159.492188 198.421875 C 157.972656 200.734375 155.617188 202.707031 152.4375 204.328125 Z M 199.082031 98.933594 L 49.347656 12.097656 L 55.449219 8.855469 L 56.085938 8.625 C 56.546875 8.449219 56.875 8.363281 57.066406 8.363281 C 57.4375 8.363281 57.964844 8.527344 58.660156 8.855469 L 206.308594 95.109375 Z M 199.082031 98.933594 "/>
<path style=" stroke:none;fill-rule:evenodd;fill:rgb(79.215686%,81.176471%,96.078431%);fill-opacity:1;" d="M 206.628906 95.15625 L 203.230469 100.585938 L 200.644531 102 C 200.605469 101.460938 200.539062 101.054688 200.441406 100.785156 C 200.304688 100.378906 199.851562 99.761719 199.082031 98.933594 L 206.308594 95.109375 C 206.421875 95.109375 206.527344 95.125 206.628906 95.15625 Z M 206.628906 95.15625 "/>
<path style=" stroke:none;fill-rule:evenodd;fill:rgb(36.078431%,36.078431%,77.647059%);fill-opacity:1;" d="M 147.089844 243.589844 C 147.066406 244.691406 147.742188 245.636719 149.113281 246.429688 C 150.480469 247.238281 152.15625 247.632812 154.144531 247.613281 C 156.09375 247.613281 157.738281 247.21875 159.089844 246.429688 C 160.457031 245.578125 161.132812 244.601562 161.113281 243.503906 C 161.132812 242.402344 160.457031 241.457031 159.089844 240.664062 C 157.71875 239.855469 156.050781 239.46875 154.085938 239.507812 C 152.117188 239.507812 150.453125 239.902344 149.082031 240.695312 C 147.753906 241.523438 147.089844 242.492188 147.089844 243.589844 Z M 143.601562 118.679688 L 144.398438 117.40625 L 144.398438 119.144531 Z M 107.5 76 C 105.609375 72.605469 104.28125 70.304688 103.507812 69.109375 L 103.507812 96.328125 L 115.511719 103.21875 L 115.511719 88.132812 C 112.675781 84.5625 110.007812 80.515625 107.5 76 Z M 69.9375 62.59375 L 69.9375 62.625 C 68.394531 60.925781 66.804688 60.210938 65.164062 60.484375 L 65.164062 74.324219 L 77.164062 81.214844 L 77.164062 68.5 C 74.96875 67.5 72.558594 65.527344 69.9375 62.59375 Z M 100.789062 66.300781 C 96.859375 63.347656 93.503906 62.179688 90.730469 62.796875 L 90.730469 89 L 102.730469 95.890625 L 102.730469 68.066406 C 102.132812 67.410156 101.484375 66.824219 100.789062 66.300781 Z M 86.1875 65.984375 C 83.933594 69.09375 81.1875 70.039062 77.945312 68.820312 L 77.945312 81.648438 L 89.945312 88.539062 L 89.945312 63.027344 C 88.539062 63.511719 87.289062 64.496094 86.1875 65.984375 Z M 64.5 38.332031 C 64.578125 38.292969 64.667969 38.300781 64.761719 38.359375 C 64.875 38.417969 64.972656 38.507812 65.046875 38.621094 C 65.128906 38.773438 65.164062 38.910156 65.164062 39.027344 L 65.164062 59.46875 C 66.898438 59.292969 68.597656 60.132812 70.253906 61.984375 C 72.78125 64.765625 75.085938 66.628906 77.164062 67.574219 L 77.164062 45.917969 C 77.164062 45.800781 77.207031 45.714844 77.28125 45.65625 C 77.359375 45.617188 77.445312 45.628906 77.542969 45.6875 C 77.660156 45.761719 77.757812 45.859375 77.832031 45.972656 C 77.90625 46.113281 77.945312 46.238281 77.945312 46.351562 L 77.945312 67.894531 C 80.898438 68.917969 83.421875 68 85.523438 65.144531 C 86.796875 63.425781 88.273438 62.335938 89.945312 61.871094 L 89.945312 53.273438 C 89.945312 53.152344 89.988281 53.070312 90.0625 53.011719 C 90.136719 52.972656 90.226562 52.984375 90.324219 53.039062 C 90.421875 53.097656 90.507812 53.195312 90.585938 53.328125 C 90.679688 53.464844 90.730469 53.589844 90.730469 53.707031 L 90.730469 61.695312 C 93.5625 61.253906 96.957031 62.507812 100.90625 65.460938 C 101.542969 65.964844 102.152344 66.503906 102.730469 67.082031 L 102.730469 60.597656 C 102.730469 60.484375 102.769531 60.394531 102.847656 60.335938 C 102.921875 60.316406 103.007812 60.335938 103.105469 60.394531 C 103.199219 60.453125 103.289062 60.539062 103.363281 60.65625 C 103.460938 60.789062 103.507812 60.925781 103.507812 61.0625 L 103.507812 67.980469 C 104.207031 68.945312 105.71875 71.523438 108.050781 75.710938 C 110.402344 79.921875 112.890625 83.722656 115.511719 87.117188 L 115.511719 67.953125 C 115.511719 67.816406 115.546875 67.730469 115.628906 67.691406 C 115.707031 67.652344 115.789062 67.664062 115.886719 67.71875 C 115.980469 67.777344 116.070312 67.875 116.148438 68.007812 C 116.242188 68.144531 116.289062 68.269531 116.289062 68.386719 L 116.289062 104.113281 C 116.289062 104.253906 116.242188 104.335938 116.148438 104.375 C 116.070312 104.417969 115.980469 104.402344 115.886719 104.347656 L 64.761719 74.988281 C 64.667969 74.929688 64.578125 74.832031 64.5 74.699219 C 64.421875 74.5625 64.386719 74.4375 64.386719 74.324219 L 64.386719 38.5625 C 64.386719 38.449219 64.421875 38.367188 64.5 38.332031 Z M 155.90625 125.804688 L 155.90625 119.894531 L 161.023438 122.851562 L 161.023438 128.757812 Z M 152.699219 117.925781 L 152.699219 123.921875 L 147.578125 120.96875 L 147.578125 114.972656 Z M 172.621094 135.472656 L 172.621094 129.59375 L 177.625 132.492188 L 177.625 138.367188 Z M 169.355469 133.589844 L 164.234375 130.609375 L 164.234375 124.703125 L 169.355469 127.683594 Z M 49.347656 12.097656 L 199.082031 98.933594 C 199.851562 99.761719 200.304688 100.378906 200.441406 100.785156 C 200.539062 101.054688 200.605469 101.460938 200.644531 102 L 200.644531 104.722656 L 196.796875 110.863281 L 195.003906 109.820312 L 195.003906 103.042969 L 55.105469 22.171875 L 55.105469 102.914062 L 48.222656 113.875 L 48.222656 13.980469 C 48.277344 13.863281 48.453125 13.554688 48.742188 13.054688 C 49.070312 12.515625 49.273438 12.195312 49.347656 12.097656 Z M 163.65625 233.597656 L 172.273438 238.554688 L 175.628906 236.609375 L 166.980469 231.664062 Z M 153.304688 222.859375 L 155.214844 218.398438 L 180.863281 233.164062 C 181.597656 233.589844 181.933594 234.011719 181.875 234.4375 C 181.835938 234.789062 181.507812 235.136719 180.890625 235.480469 L 155.269531 250.363281 C 153.960938 251.117188 152.648438 251.109375 151.339844 250.335938 L 106.777344 224.738281 C 106.582031 224.640625 106.429688 224.539062 106.316406 224.421875 C 105.585938 223.84375 105.628906 223.273438 106.460938 222.710938 C 105.726562 223.351562 105.898438 223.988281 106.980469 224.625 L 143.445312 245.585938 L 151.976562 225.957031 L 161.144531 231.195312 L 164.496094 229.257812 Z M 200.644531 135.691406 L 200.644531 214.894531 C 200.472656 214.992188 200.226562 215.097656 199.921875 215.214844 C 199.535156 215.3125 199.226562 215.359375 198.996094 215.359375 C 198.414062 215.359375 190.222656 210.890625 174.414062 201.957031 C 171.785156 200.460938 169.09375 198.933594 166.347656 197.378906 C 164.859375 196.53125 163.355469 195.667969 161.835938 194.800781 C 149.832031 187.9375 136.800781 180.417969 122.738281 172.246094 C 108.921875 164.191406 97.027344 157.207031 87.058594 151.285156 C 75.613281 144.488281 66.699219 139.09375 60.304688 135.101562 L 65.429688 126.875 L 195.003906 201.777344 L 195.003906 136.15625 L 197.375 137.527344 Z M 200.644531 135.691406 "/>
<path style=" stroke:none;fill-rule:evenodd;fill:rgb(7.843137%,3.529412%,46.666667%);fill-opacity:1;" d="M 64.5 38.332031 C 64.421875 38.367188 64.386719 38.449219 64.386719 38.5625 L 64.386719 74.324219 C 64.386719 74.4375 64.421875 74.5625 64.5 74.699219 C 64.578125 74.832031 64.667969 74.929688 64.761719 74.988281 L 115.886719 104.347656 C 115.980469 104.402344 116.070312 104.417969 116.148438 104.375 C 116.242188 104.335938 116.289062 104.253906 116.289062 104.113281 L 116.289062 68.386719 C 116.289062 68.269531 116.242188 68.144531 116.148438 68.007812 C 116.070312 67.875 115.980469 67.777344 115.886719 67.71875 C 115.789062 67.664062 115.707031 67.652344 115.628906 67.691406 C 115.546875 67.730469 115.511719 67.816406 115.511719 67.953125 L 115.511719 87.117188 C 112.890625 83.722656 110.402344 79.921875 108.050781 75.710938 C 105.71875 71.523438 104.207031 68.945312 103.507812 67.980469 L 103.507812 61.0625 C 103.507812 60.925781 103.460938 60.789062 103.363281 60.65625 C 103.289062 60.539062 103.199219 60.453125 103.105469 60.394531 C 103.007812 60.335938 102.921875 60.316406 102.847656 60.335938 C 102.769531 60.394531 102.730469 60.484375 102.730469 60.597656 L 102.730469 67.082031 C 102.152344 66.503906 101.542969 65.964844 100.90625 65.460938 C 96.957031 62.507812 93.5625 61.253906 90.730469 61.695312 L 90.730469 53.707031 C 90.730469 53.589844 90.679688 53.464844 90.585938 53.328125 C 90.507812 53.195312 90.421875 53.097656 90.324219 53.039062 C 90.226562 52.984375 90.136719 52.972656 90.0625 53.011719 C 89.988281 53.070312 89.945312 53.152344 89.945312 53.273438 L 89.945312 61.871094 C 88.273438 62.335938 86.796875 63.425781 85.523438 65.144531 C 83.421875 68 80.898438 68.917969 77.945312 67.894531 L 77.945312 46.351562 C 77.945312 46.238281 77.90625 46.113281 77.832031 45.972656 C 77.757812 45.859375 77.660156 45.761719 77.542969 45.6875 C 77.445312 45.628906 77.359375 45.617188 77.28125 45.65625 C 77.207031 45.714844 77.164062 45.800781 77.164062 45.917969 L 77.164062 67.574219 C 75.085938 66.628906 72.78125 64.765625 70.253906 61.984375 C 68.597656 60.132812 66.898438 59.292969 65.164062 59.46875 L 65.164062 39.027344 C 65.164062 38.910156 65.128906 38.773438 65.046875 38.621094 C 64.972656 38.507812 64.875 38.417969 64.761719 38.359375 C 64.667969 38.300781 64.578125 38.292969 64.5 38.332031 Z M 65.429688 126.875 L 73.148438 114.511719 L 120.800781 142.074219 L 133.554688 134.75 L 143.601562 118.679688 L 144.398438 119.144531 L 144.398438 117.40625 L 149.226562 109.671875 L 195.003906 136.15625 L 195.003906 201.777344 Z M 153.578125 173.433594 C 153.941406 173.441406 154.273438 173.355469 154.578125 173.171875 C 155.269531 172.785156 155.617188 172.042969 155.617188 170.945312 C 155.617188 169.824219 155.269531 168.675781 154.578125 167.496094 C 153.902344 166.320312 153.09375 165.453125 152.148438 164.890625 L 129.421875 151.746094 L 129.421875 151.863281 L 75.316406 120.589844 C 74.351562 120.03125 73.535156 119.945312 72.855469 120.328125 C 72.164062 120.738281 71.816406 121.488281 71.816406 122.589844 C 71.816406 123.707031 72.164062 124.847656 72.855469 126.003906 C 73.535156 127.203125 74.351562 128.078125 75.316406 128.640625 L 151.976562 172.941406 C 152.566406 173.28125 153.097656 173.445312 153.578125 173.433594 Z M 169.355469 133.589844 L 169.355469 127.683594 L 164.234375 124.703125 L 164.234375 130.609375 Z M 172.621094 135.472656 L 177.625 138.367188 L 177.625 132.492188 L 172.621094 129.59375 Z M 152.699219 117.925781 L 147.578125 114.972656 L 147.578125 120.96875 L 152.699219 123.921875 Z M 155.90625 125.804688 L 161.023438 128.757812 L 161.023438 122.851562 L 155.90625 119.894531 Z M 195.003906 109.820312 L 146.710938 81.847656 L 139.800781 85.847656 L 138.269531 86.742188 L 120.167969 115.40625 L 70.628906 86.742188 L 63.71875 90.710938 L 62.214844 91.578125 L 55.105469 102.914062 L 55.105469 22.171875 L 195.003906 103.042969 Z M 195.003906 109.820312 "/>
<path style=" stroke:none;fill-rule:evenodd;fill:rgb(33.333333%,44.705882%,84.705882%);fill-opacity:1;" d="M 34.613281 137.28125 C 34.5625 137.261719 34.507812 137.238281 34.457031 137.210938 C 34.226562 137.097656 34 136.980469 33.777344 136.878906 L 48.222656 113.875 L 55.105469 102.914062 L 62.214844 91.578125 L 63.71875 90.710938 L 63.808594 90.769531 L 116.523438 121.171875 L 120.167969 115.40625 L 138.269531 86.742188 L 139.800781 85.847656 L 139.859375 85.933594 L 190.578125 115.175781 L 193.152344 116.652344 L 194.109375 115.175781 L 195.003906 113.742188 L 196.796875 110.863281 L 200.644531 104.722656 L 203.230469 100.585938 L 206.628906 95.15625 L 220.640625 72.773438 L 221.394531 73.191406 L 207.394531 95.589844 L 204.820312 99.714844 L 200.644531 106.390625 L 195.148438 115.175781 L 195.003906 115.40625 L 194.136719 116.800781 L 193.125 117.925781 L 192.34375 117.925781 L 187.601562 115.175781 L 139.046875 87.09375 L 121.464844 115.175781 L 119.558594 118.246094 L 119.503906 118.246094 L 117.363281 121.660156 L 117.421875 121.660156 L 116.523438 122.90625 L 115.828125 122.558594 L 115.683594 122.472656 L 62.96875 92.011719 L 55.105469 104.566406 L 48.222656 115.550781 Z M 34.613281 137.28125 "/>
<path style=" stroke:none;fill-rule:evenodd;fill:rgb(61.176471%,88.627451%,39.215686%);fill-opacity:1;" d="M 120.800781 142.074219 L 73.148438 114.511719 L 67.105469 111.035156 L 59.410156 123.398438 L 54.449219 131.363281 L 50.246094 138.136719 L 44.285156 147.722656 L 36.667969 159.953125 L 36.769531 158.40625 L 36.625 156.207031 L 36.625 150.90625 L 36.769531 148.675781 L 36.886719 148.503906 L 36.710938 146.851562 L 36.566406 146.417969 L 36.769531 144.160156 L 36.566406 141.929688 C 37.300781 139.914062 36.648438 138.367188 34.613281 137.28125 L 48.222656 115.550781 L 55.105469 104.566406 L 62.96875 92.011719 L 115.683594 122.472656 L 115.828125 122.558594 L 116.523438 122.90625 L 117.421875 121.660156 L 117.363281 121.660156 L 119.503906 118.246094 L 119.558594 118.246094 L 121.464844 115.175781 L 139.046875 87.09375 L 187.601562 115.175781 L 192.34375 117.925781 L 193.125 117.925781 L 194.136719 116.800781 L 195.003906 115.40625 L 195.148438 115.175781 L 200.644531 106.390625 L 204.820312 99.714844 L 207.394531 95.589844 L 221.394531 73.191406 L 220.640625 72.773438 L 213.019531 68.558594 L 244.714844 45.859375 L 244.714844 86.105469 L 239.449219 83.195312 L 233.347656 79.808594 L 208.175781 120.203125 L 200.644531 132.289062 L 197.375 137.527344 L 195.003906 136.15625 L 149.226562 109.671875 L 149.199219 109.671875 L 143.183594 106.140625 L 143.125 106.257812 L 140.265625 110.847656 L 139.339844 112.324219 L 135.636719 118.246094 Z M 120.800781 142.074219 "/>
<path style=" stroke:none;fill-rule:evenodd;fill:rgb(16.862745%,32.941176%,90.196078%);fill-opacity:1;" d="M 149.226562 109.671875 L 144.398438 117.40625 L 143.601562 118.679688 L 133.554688 134.75 L 120.800781 142.074219 L 135.636719 118.246094 L 139.339844 112.324219 L 140.265625 110.847656 L 143.125 106.257812 L 143.183594 106.140625 L 149.199219 109.671875 Z M 73.148438 114.511719 L 65.429688 126.875 L 60.304688 135.101562 L 52.441406 147.722656 L 52.414062 147.722656 L 44.300781 160.722656 C 42.492188 160.75 40.679688 161.164062 38.851562 161.964844 L 36.886719 163.527344 L 36.769531 162.894531 L 36.625 160.632812 L 36.667969 159.953125 L 44.285156 147.722656 L 50.246094 138.136719 L 54.449219 131.363281 L 59.410156 123.398438 L 67.105469 111.035156 Z M 129.421875 151.863281 L 129.421875 159.824219 L 152.148438 172.941406 C 152.667969 173.25 153.140625 173.410156 153.578125 173.433594 C 153.097656 173.445312 152.566406 173.28125 151.976562 172.941406 L 75.316406 128.640625 C 74.351562 128.078125 73.535156 127.203125 72.855469 126.003906 C 72.164062 124.847656 71.816406 123.707031 71.816406 122.589844 C 71.816406 121.488281 72.164062 120.738281 72.855469 120.328125 C 73.535156 119.945312 74.351562 120.03125 75.316406 120.589844 Z M 208.175781 131.449219 L 200.644531 135.691406 L 197.375 137.527344 L 200.644531 132.289062 L 208.175781 120.203125 L 233.347656 79.808594 L 239.449219 83.195312 L 210.070312 130.375 Z M 244.714844 86.105469 L 244.714844 43.515625 L 246.242188 42.414062 L 253.007812 38.449219 L 253.007812 81.242188 Z M 244.714844 86.105469 "/>
<path style=" stroke:none;fill-rule:evenodd;fill:rgb(16.862745%,32.941176%,90.196078%);fill-opacity:1;" d="M 120.167969 115.40625 L 116.523438 121.171875 L 63.808594 90.769531 L 63.71875 90.710938 L 70.628906 86.742188 Z M 196.796875 110.863281 L 195.003906 113.742188 L 194.109375 115.175781 L 193.152344 116.652344 L 190.578125 115.175781 L 139.859375 85.933594 L 139.800781 85.847656 L 146.710938 81.847656 L 195.003906 109.820312 Z M 196.796875 110.863281 "/>
<path style=" stroke:none;fill-rule:evenodd;fill:rgb(41.176471%,52.156863%,91.764706%);fill-opacity:1;" d="M 244.714844 45.859375 L 213.019531 68.558594 L 210.878906 67.402344 L 244.714844 43.515625 Z M 244.714844 45.859375 "/>
<path style=" stroke:none;fill-rule:evenodd;fill:rgb(100%,85.882353%,34.901961%);fill-opacity:1;" d="M 163.65625 233.597656 L 166.980469 231.664062 L 175.628906 236.609375 L 172.273438 238.554688 Z M 128.902344 224.738281 C 128.550781 224.953125 128.253906 224.980469 128.003906 224.828125 L 119.761719 220.050781 C 119.511719 219.894531 119.558594 219.71875 119.90625 219.527344 L 126.816406 215.503906 C 127.164062 215.3125 127.460938 215.292969 127.714844 215.449219 L 135.957031 220.195312 C 136.203125 220.351562 136.160156 220.523438 135.808594 220.714844 Z M 126.859375 210.753906 L 121.742188 213.734375 C 121.632812 213.734375 121.523438 213.734375 121.410156 213.734375 C 119.195312 213.734375 117.3125 213.285156 115.773438 212.375 C 115.652344 212.296875 115.539062 212.242188 115.425781 212.203125 C 115.289062 212.066406 115.164062 211.980469 115.050781 211.941406 C 114.410156 211.441406 113.957031 210.929688 113.691406 210.40625 C 113.5 210 113.402344 209.566406 113.402344 209.105469 C 113.402344 208.988281 113.402344 208.890625 113.402344 208.816406 C 113.402344 208.601562 113.4375 208.421875 113.515625 208.265625 C 113.824219 209.171875 114.574219 209.964844 115.773438 210.640625 C 116.003906 210.796875 116.261719 210.9375 116.550781 211.074219 C 117.921875 211.691406 119.539062 212 121.410156 212 C 122.046875 212 122.652344 211.960938 123.230469 211.882812 C 124.613281 211.703125 125.820312 211.324219 126.859375 210.753906 Z M 33.777344 136.878906 C 34 136.980469 34.226562 137.097656 34.457031 137.210938 C 34.507812 137.238281 34.5625 137.261719 34.613281 137.28125 C 36.648438 138.367188 37.300781 139.914062 36.566406 141.929688 C 35.757812 143.226562 34.640625 144.101562 33.210938 144.566406 C 31.980469 144.9375 30.773438 145.160156 29.582031 145.246094 C 29.199219 145.273438 28.820312 145.292969 28.441406 145.289062 C 27.410156 145.292969 26.402344 145.1875 25.40625 144.96875 C 23.398438 144.546875 21.78125 143.523438 20.546875 141.902344 C 20.105469 141.265625 20.074219 140.480469 20.460938 139.558594 C 21.214844 138.089844 22.371094 137.085938 23.929688 136.546875 C 27.292969 135.339844 30.574219 135.449219 33.777344 136.878906 Z M 20.316406 148.648438 C 20.820312 149.824219 21.605469 150.683594 22.683594 151.226562 C 23.496094 151.640625 24.316406 151.96875 25.144531 152.195312 C 25.175781 152.203125 25.203125 152.210938 25.230469 152.226562 C 26.324219 152.515625 27.433594 152.648438 28.558594 152.617188 C 32.199219 152.886719 34.9375 151.570312 36.769531 148.675781 L 36.625 150.90625 C 35.429688 152.703125 33.820312 153.761719 31.796875 154.089844 C 29.410156 154.664062 27.191406 154.613281 25.144531 153.933594 C 24.097656 153.578125 23.09375 153.0625 22.136719 152.382812 C 21.558594 151.941406 21.027344 151.445312 20.546875 150.90625 Z M 20.546875 146.417969 L 20.316406 144.160156 C 21.125 145.78125 22.339844 146.863281 23.960938 147.402344 C 24.886719 147.683594 25.808594 147.878906 26.734375 147.996094 C 27.09375 148.042969 27.453125 148.074219 27.804688 148.101562 C 29.136719 148.179688 30.464844 148.09375 31.796875 147.839844 C 34.222656 147.46875 35.882812 146.246094 36.769531 144.160156 L 36.566406 146.417969 C 36.125 147.269531 35.429688 147.925781 34.484375 148.386719 C 32.042969 149.539062 29.484375 149.964844 26.824219 149.675781 C 26.472656 149.636719 26.128906 149.59375 25.78125 149.53125 C 25.652344 149.507812 25.527344 149.484375 25.40625 149.460938 C 23.398438 149.089844 21.78125 148.078125 20.546875 146.417969 Z M 36.625 156.207031 C 34.523438 158.734375 31.832031 159.882812 28.558594 159.652344 C 27.382812 159.683594 26.25 159.542969 25.144531 159.230469 C 24.304688 159 23.488281 158.664062 22.683594 158.230469 C 21.855469 157.789062 21.144531 157.113281 20.546875 156.207031 L 20.519531 153.539062 C 21.570312 155.207031 23.117188 156.28125 25.144531 156.757812 C 25.230469 156.773438 25.316406 156.792969 25.40625 156.816406 C 27.910156 157.335938 30.492188 157.132812 33.15625 156.207031 C 34.617188 155.742188 35.773438 154.855469 36.625 153.539062 Z M 62.445312 179.28125 C 62.523438 179.511719 62.5625 179.773438 62.5625 180.0625 C 62.5625 180.527344 62.4375 180.980469 62.1875 181.425781 C 62.070312 181.734375 61.859375 182.03125 61.550781 182.324219 C 61.4375 182.4375 61.300781 182.554688 61.144531 182.667969 C 61.109375 182.710938 61.058594 182.746094 61.003906 182.785156 C 60.769531 182.976562 60.519531 183.160156 60.25 183.335938 C 58.671875 184.203125 56.769531 184.636719 54.554688 184.636719 C 52.375 184.636719 50.496094 184.203125 48.914062 183.335938 C 48.0625 182.792969 47.429688 182.21875 47.019531 181.613281 C 46.96875 181.550781 46.929688 181.488281 46.890625 181.425781 C 46.660156 180.980469 46.542969 180.527344 46.542969 180.0625 C 46.542969 179.773438 46.582031 179.511719 46.660156 179.28125 C 46.890625 180.050781 47.460938 180.765625 48.378906 181.425781 C 48.546875 181.542969 48.726562 181.65625 48.914062 181.773438 C 50.496094 182.640625 52.375 183.074219 54.554688 183.074219 C 56.769531 183.074219 58.671875 182.640625 60.25 181.773438 C 61.464844 181.019531 62.195312 180.1875 62.445312 179.28125 Z M 20.546875 160.632812 L 20.316406 158.40625 C 21.507812 160.277344 23.117188 161.472656 25.144531 161.980469 C 25.707031 162.125 26.308594 162.21875 26.9375 162.257812 C 27.1875 162.292969 27.425781 162.324219 27.660156 162.34375 C 28.46875 162.246094 29.261719 162.226562 30.03125 162.285156 C 31.59375 162.113281 33.078125 161.648438 34.484375 160.894531 C 35.605469 160.316406 36.363281 159.484375 36.769531 158.40625 L 36.667969 159.953125 L 36.625 160.632812 C 36.234375 161.242188 35.78125 161.769531 35.265625 162.210938 C 34.808594 162.597656 34.308594 162.921875 33.761719 163.183594 C 33.992188 163.28125 34.226562 163.386719 34.46875 163.503906 C 34.644531 163.585938 34.820312 163.667969 35.003906 163.765625 C 35.351562 163.933594 35.660156 164.128906 35.929688 164.339844 C 36.296875 163.917969 36.578125 163.433594 36.769531 162.894531 L 36.886719 163.527344 L 38.851562 161.964844 C 40.679688 161.164062 42.492188 160.75 44.300781 160.722656 C 46.371094 160.6875 48.429688 161.164062 50.476562 162.140625 C 52.613281 163.242188 53.320312 164.84375 52.585938 166.949219 C 52.085938 167.679688 51.382812 168.269531 50.476562 168.710938 C 47.234375 170.527344 43.746094 170.796875 40.007812 169.527344 C 38.871094 169.136719 37.972656 168.550781 37.316406 167.757812 C 37.257812 167.988281 37.183594 168.230469 37.089844 168.484375 C 36.914062 168.773438 36.722656 169.039062 36.511719 169.292969 C 36.46875 169.332031 36.441406 169.359375 36.421875 169.378906 C 36.304688 169.515625 36.191406 169.640625 36.074219 169.757812 C 35.417969 170.371094 34.640625 170.816406 33.730469 171.089844 C 32.402344 171.492188 31.089844 171.726562 29.800781 171.796875 C 29.621094 171.8125 29.441406 171.824219 29.261719 171.824219 C 28.902344 171.835938 28.539062 171.832031 28.179688 171.8125 C 27.421875 171.769531 26.667969 171.675781 25.925781 171.523438 C 24.519531 171.210938 23.300781 170.613281 22.28125 169.726562 C 22.070312 169.535156 21.855469 169.332031 21.648438 169.121094 C 21.453125 168.90625 21.269531 168.6875 21.09375 168.453125 C 20.636719 167.796875 20.597656 167.015625 20.980469 166.105469 C 21.019531 166.027344 21.066406 165.945312 21.125 165.847656 C 20.914062 165.632812 20.722656 165.410156 20.546875 165.179688 L 20.316406 162.894531 C 20.777344 163.625 21.296875 164.253906 21.878906 164.777344 C 22.4375 164.136719 23.132812 163.644531 23.960938 163.300781 C 23.324219 163.027344 22.714844 162.707031 22.136719 162.34375 C 21.367188 161.921875 20.835938 161.347656 20.546875 160.632812 Z M 21.007812 176.328125 C 21.800781 177.792969 22.964844 178.78125 24.511719 179.28125 C 27.109375 180.070312 29.714844 180.21875 32.316406 179.71875 C 34.746094 179.347656 36.414062 178.125 37.316406 176.039062 L 37.203125 174.792969 C 38.226562 176.007812 39.640625 176.773438 41.453125 177.082031 C 43.292969 177.492188 45.074219 177.558594 46.800781 177.269531 C 46.632812 177.660156 46.542969 178.078125 46.542969 178.53125 C 46.542969 178.742188 46.574219 178.972656 46.644531 179.222656 C 45.476562 179.421875 44.257812 179.433594 42.988281 179.253906 C 41.386719 179.097656 39.980469 178.644531 38.765625 177.890625 C 38.300781 177.71875 37.878906 177.574219 37.492188 177.457031 C 36.875 179.988281 35.148438 181.464844 32.316406 181.886719 C 30.253906 182.367188 28.132812 182.367188 25.953125 181.886719 C 23.96875 181.464844 22.339844 180.46875 21.066406 178.90625 C 21.007812 178.675781 20.941406 178.453125 20.863281 178.242188 C 20.730469 177.527344 20.777344 176.886719 21.007812 176.328125 Z M 21.09375 173.78125 C 20.636719 173.144531 20.597656 172.359375 20.980469 171.4375 C 21.019531 171.355469 21.066406 171.28125 21.125 171.203125 C 21.914062 172.554688 23.042969 173.472656 24.511719 173.953125 C 27.109375 174.726562 29.714844 174.867188 32.316406 174.390625 C 34.589844 174.042969 36.199219 172.941406 37.144531 171.089844 C 37.203125 170.953125 37.257812 170.828125 37.316406 170.710938 L 37.289062 170.507812 C 38.101562 171.476562 39.167969 172.167969 40.5 172.59375 C 42.910156 173.210938 45.335938 173.296875 47.789062 172.855469 C 48.066406 172.800781 48.34375 172.738281 48.609375 172.667969 C 48.6875 172.613281 48.769531 172.558594 48.855469 172.507812 C 49.398438 172.191406 49.976562 171.941406 50.59375 171.742188 C 51.492188 171.113281 52.238281 170.257812 52.816406 169.175781 L 52.933594 170.1875 L 52.746094 171.261719 C 53.324219 171.1875 53.925781 171.148438 54.554688 171.148438 C 56.769531 171.148438 58.671875 171.601562 60.25 172.507812 C 61.789062 173.433594 62.5625 174.523438 62.5625 175.777344 C 62.5625 176.261719 62.4375 176.714844 62.1875 177.136719 C 61.839844 177.816406 61.195312 178.433594 60.25 178.992188 C 58.671875 179.898438 56.769531 180.351562 54.554688 180.351562 C 53.378906 180.351562 52.289062 180.222656 51.285156 179.964844 C 50.433594 179.734375 49.640625 179.410156 48.914062 178.992188 C 48.769531 178.90625 48.628906 178.820312 48.496094 178.730469 C 47.828125 178.277344 47.324219 177.78125 46.976562 177.242188 C 46.949219 177.1875 46.917969 177.132812 46.890625 177.082031 C 46.660156 176.695312 46.542969 176.261719 46.542969 175.777344 C 46.542969 175.441406 46.601562 175.109375 46.714844 174.792969 C 43.453125 175.292969 40.453125 174.570312 37.722656 172.621094 C 37.609375 172.523438 37.492188 172.4375 37.378906 172.359375 C 37.378906 172.804688 37.28125 173.289062 37.089844 173.808594 C 36.992188 173.964844 36.894531 174.117188 36.796875 174.273438 C 36.625 174.503906 36.441406 174.71875 36.25 174.910156 C 36.230469 174.929688 36.210938 174.957031 36.191406 174.996094 C 35.5 175.652344 34.675781 176.132812 33.730469 176.445312 C 31.054688 177.253906 28.449219 177.390625 25.925781 176.847656 C 24.441406 176.519531 23.167969 175.875 22.109375 174.910156 C 21.742188 174.5625 21.402344 174.1875 21.09375 173.78125 Z M 46.890625 199.433594 C 46.660156 198.988281 46.542969 198.546875 46.542969 198.101562 C 46.542969 197.796875 46.582031 197.503906 46.660156 197.234375 C 46.96875 198.101562 47.722656 198.894531 48.914062 199.609375 C 50.496094 200.515625 52.375 200.96875 54.554688 200.96875 C 56.769531 200.96875 58.671875 200.515625 60.25 199.609375 C 61.464844 198.894531 62.195312 198.101562 62.445312 197.234375 C 62.488281 197.386719 62.503906 197.582031 62.503906 197.8125 C 62.929688 197.292969 63.496094 196.820312 64.210938 196.394531 C 64.289062 196.394531 64.347656 196.371094 64.386719 196.335938 C 65.886719 195.503906 67.730469 195.09375 69.910156 195.09375 C 72.125 195.09375 74.023438 195.527344 75.601562 196.394531 C 77.148438 197.300781 77.917969 198.390625 77.917969 199.667969 C 77.917969 200.128906 77.800781 200.601562 77.570312 201.085938 C 77.207031 201.722656 76.570312 202.308594 75.664062 202.851562 L 75.601562 202.9375 C 74.179688 203.730469 72.484375 204.179688 70.515625 204.300781 C 70.304688 204.300781 70.101562 204.300781 69.910156 204.300781 C 67.730469 204.300781 65.851562 203.84375 64.269531 202.9375 C 64.230469 202.878906 64.191406 202.832031 64.152344 202.792969 C 63.441406 202.367188 62.894531 201.914062 62.503906 201.433594 C 62.429688 201.277344 62.351562 201.140625 62.273438 201.027344 C 62.101562 200.660156 61.972656 200.304688 61.898438 199.957031 C 61.550781 200.4375 61.003906 200.890625 60.25 201.316406 C 58.671875 202.222656 56.769531 202.679688 54.554688 202.679688 C 52.375 202.679688 50.496094 202.222656 48.914062 201.316406 C 47.96875 200.71875 47.296875 200.089844 46.890625 199.433594 Z M 62.070312 207.484375 C 62.363281 208.371094 63.09375 209.144531 64.269531 209.800781 C 65.851562 210.6875 67.730469 211.132812 69.910156 211.132812 C 72.125 211.132812 74.023438 210.6875 75.601562 209.800781 C 76.761719 209.144531 77.496094 208.371094 77.800781 207.484375 C 77.878906 207.773438 77.917969 208.074219 77.917969 208.382812 C 77.917969 208.789062 77.839844 209.203125 77.6875 209.628906 C 77.320312 210.339844 76.628906 210.996094 75.601562 211.59375 C 74.023438 212.5 72.125 212.957031 69.910156 212.957031 C 67.730469 212.957031 65.851562 212.5 64.269531 211.59375 C 63.808594 211.324219 63.390625 211.023438 63.027344 210.699219 C 63.0625 210.851562 63.085938 210.996094 63.085938 211.132812 C 63.085938 211.671875 62.949219 212.164062 62.679688 212.609375 C 62.679688 212.648438 62.660156 212.683594 62.621094 212.722656 C 62.253906 213.320312 61.617188 213.871094 60.710938 214.375 C 59.171875 215.300781 57.269531 215.765625 55.015625 215.765625 C 52.835938 215.765625 50.976562 215.300781 49.433594 214.375 C 48.453125 213.832031 47.765625 213.226562 47.378906 212.554688 C 47.171875 212.105469 47.066406 211.632812 47.066406 211.132812 C 47.066406 210.339844 47.378906 209.628906 48.019531 208.988281 C 48.421875 208.585938 48.878906 208.226562 49.378906 207.917969 C 50.265625 207.394531 51.234375 207.039062 52.296875 206.847656 C 53.164062 206.652344 54.070312 206.558594 55.015625 206.558594 C 55.84375 206.558594 56.613281 206.617188 57.332031 206.734375 C 57.964844 206.808594 58.5625 206.960938 59.125 207.195312 C 59.679688 207.386719 60.210938 207.628906 60.710938 207.917969 C 61.195312 208.191406 61.589844 208.488281 61.898438 208.816406 C 61.898438 208.640625 61.898438 208.5 61.898438 208.382812 C 61.898438 208.035156 61.957031 207.734375 62.070312 207.484375 Z M 46.832031 188.257812 C 47.160156 189.050781 47.855469 189.742188 48.914062 190.339844 C 50.496094 191.25 52.375 191.703125 54.554688 191.703125 C 56.769531 191.703125 58.671875 191.25 60.25 190.339844 C 60.519531 190.167969 60.769531 189.984375 61.003906 189.792969 C 61.601562 189.328125 62.023438 188.816406 62.273438 188.257812 C 62.46875 188.679688 62.5625 189.097656 62.5625 189.503906 C 62.5625 189.945312 62.46875 190.382812 62.273438 190.808594 C 61.984375 191.328125 61.5625 191.820312 61.003906 192.285156 C 60.769531 192.457031 60.519531 192.621094 60.25 192.773438 C 59.613281 193.125 58.902344 193.421875 58.109375 193.671875 C 57.050781 193.941406 55.863281 194.078125 54.554688 194.078125 C 53.28125 194.078125 52.09375 193.941406 50.996094 193.671875 C 50.246094 193.421875 49.550781 193.125 48.914062 192.773438 C 47.894531 192.175781 47.21875 191.519531 46.890625 190.808594 C 46.660156 190.382812 46.542969 189.945312 46.542969 189.503906 C 46.542969 189.058594 46.640625 188.644531 46.832031 188.257812 Z M 46.660156 183.566406 C 46.929688 184.511719 47.679688 185.34375 48.914062 186.058594 C 50.496094 186.925781 52.375 187.363281 54.554688 187.363281 C 56.769531 187.363281 58.671875 186.925781 60.25 186.058594 C 60.519531 185.902344 60.769531 185.730469 61.003906 185.535156 C 61.753906 184.972656 62.234375 184.339844 62.445312 183.625 C 62.523438 183.859375 62.5625 184.136719 62.5625 184.464844 C 62.5625 184.890625 62.46875 185.324219 62.273438 185.769531 C 61.984375 186.269531 61.5625 186.742188 61.003906 187.1875 C 60.769531 187.378906 60.519531 187.554688 60.25 187.707031 C 58.671875 188.636719 56.769531 189.097656 54.554688 189.097656 C 52.375 189.097656 50.496094 188.636719 48.914062 187.707031 C 47.933594 187.128906 47.257812 186.480469 46.890625 185.769531 C 46.660156 185.324219 46.542969 184.890625 46.542969 184.464844 C 46.542969 184.136719 46.582031 183.835938 46.660156 183.566406 Z M 62.445312 192.949219 C 62.523438 193.21875 62.5625 193.515625 62.5625 193.847656 C 62.5625 194.230469 62.46875 194.648438 62.273438 195.09375 C 61.90625 195.804688 61.234375 196.453125 60.25 197.03125 C 58.671875 197.957031 56.769531 198.421875 54.554688 198.421875 C 52.375 198.421875 50.496094 197.957031 48.914062 197.03125 C 48.046875 196.53125 47.429688 195.976562 47.066406 195.378906 C 46.988281 195.265625 46.929688 195.167969 46.890625 195.09375 C 46.660156 194.648438 46.542969 194.230469 46.542969 193.847656 C 46.542969 193.515625 46.582031 193.21875 46.660156 192.949219 C 46.890625 193.625 47.339844 194.210938 48.019531 194.714844 C 48.304688 194.964844 48.605469 195.167969 48.914062 195.324219 C 50.496094 196.230469 52.375 196.683594 54.554688 196.683594 C 56.769531 196.683594 58.671875 196.230469 60.25 195.324219 C 60.632812 195.09375 60.992188 194.832031 61.320312 194.542969 C 61.859375 194.078125 62.234375 193.546875 62.445312 192.949219 Z M 77.917969 204.179688 C 77.917969 204.53125 77.839844 204.925781 77.6875 205.371094 C 77.320312 206.085938 76.628906 206.75 75.601562 207.367188 C 74.023438 208.296875 72.125 208.757812 69.910156 208.757812 C 67.730469 208.757812 65.851562 208.296875 64.269531 207.367188 C 63.882812 207.136719 63.546875 206.90625 63.257812 206.671875 C 62.757812 206.230469 62.378906 205.796875 62.128906 205.371094 C 62.089844 205.234375 62.050781 205.089844 62.011719 204.933594 C 61.9375 204.664062 61.898438 204.394531 61.898438 204.125 C 61.898438 203.796875 61.957031 203.496094 62.070312 203.226562 C 62.148438 203.652344 62.351562 204.066406 62.679688 204.472656 C 63.101562 204.859375 63.632812 205.253906 64.269531 205.660156 C 64.484375 205.734375 64.667969 205.832031 64.820312 205.949219 C 66.285156 206.664062 67.980469 207.023438 69.910156 207.023438 C 72.125 207.023438 74.023438 206.566406 75.601562 205.660156 C 76.511719 205.140625 77.128906 204.558594 77.457031 203.921875 C 77.609375 203.691406 77.726562 203.457031 77.800781 203.226562 C 77.878906 203.496094 77.917969 203.796875 77.917969 204.125 Z M 151.976562 225.957031 L 145.292969 222.109375 L 148.621094 220.164062 L 153.304688 222.859375 L 164.496094 229.257812 L 161.144531 231.195312 Z M 140.667969 220.773438 L 128.785156 213.9375 L 132.136719 211.972656 L 144.023438 218.804688 Z M 127.496094 210.378906 C 128.136719 209.980469 128.613281 209.535156 128.929688 209.046875 C 129.082031 208.816406 129.207031 208.554688 129.304688 208.265625 C 129.382812 208.554688 129.421875 208.835938 129.421875 209.105469 C 129.421875 209.15625 129.421875 209.210938 129.421875 209.265625 Z M 113.457031 203.980469 C 113.765625 204.90625 114.535156 205.726562 115.773438 206.441406 C 117.3125 207.351562 119.195312 207.800781 121.410156 207.800781 C 121.679688 207.800781 121.910156 207.800781 122.105469 207.800781 C 124.050781 207.6875 125.699219 207.230469 127.050781 206.441406 C 128.300781 205.726562 129.054688 204.933594 129.304688 204.066406 C 129.382812 204.300781 129.421875 204.53125 129.421875 204.761719 C 129.421875 205.242188 129.3125 205.675781 129.101562 206.0625 C 128.753906 206.816406 128.070312 207.472656 127.050781 208.035156 C 126.761719 208.226562 126.441406 208.402344 126.09375 208.554688 C 125.1875 208.921875 124.160156 209.160156 123 209.277344 C 122.480469 209.355469 121.949219 209.394531 121.410156 209.394531 C 120.773438 209.394531 120.15625 209.355469 119.558594 209.277344 C 118.132812 209.085938 116.871094 208.667969 115.773438 208.035156 C 114.789062 207.472656 114.09375 206.816406 113.691406 206.0625 C 113.5 205.675781 113.402344 205.242188 113.402344 204.761719 C 113.402344 204.53125 113.417969 204.269531 113.457031 203.980469 Z M 113.746094 201.808594 C 113.59375 201.558594 113.476562 201.277344 113.402344 200.96875 C 113.402344 200.773438 113.402344 200.59375 113.402344 200.417969 C 113.402344 199.164062 114.167969 198.101562 115.714844 197.234375 C 117.296875 196.308594 119.195312 195.84375 121.410156 195.84375 C 121.679688 195.84375 121.929688 195.875 122.164062 195.929688 C 122.980469 195.964844 123.75 196.066406 124.460938 196.234375 C 125.417969 196.453125 126.277344 196.78125 127.050781 197.234375 C 127.125 197.234375 127.203125 197.273438 127.28125 197.351562 C 127.992188 197.785156 128.53125 198.257812 128.882812 198.769531 C 129.242188 199.28125 129.421875 199.832031 129.421875 200.417969 C 129.421875 200.9375 129.296875 201.421875 129.042969 201.867188 C 128.734375 202.519531 128.148438 203.109375 127.28125 203.632812 C 127.203125 203.632812 127.125 203.652344 127.050781 203.691406 C 125.507812 204.597656 123.628906 205.050781 121.410156 205.050781 C 119.195312 205.050781 117.3125 204.597656 115.773438 203.691406 C 114.824219 203.128906 114.152344 202.503906 113.746094 201.808594 Z M 113.746094 201.808594 "/>
<path style=" stroke:none;fill-rule:evenodd;fill:rgb(99.215686%,61.176471%,23.529412%);fill-opacity:1;" d="M 86.1875 65.984375 C 87.289062 64.496094 88.539062 63.511719 89.945312 63.027344 L 89.945312 88.539062 L 77.945312 81.648438 L 77.945312 68.820312 C 81.1875 70.039062 83.933594 69.09375 86.1875 65.984375 Z M 36.566406 141.929688 L 36.769531 144.160156 C 35.882812 146.246094 34.222656 147.46875 31.796875 147.839844 C 30.464844 148.09375 29.136719 148.179688 27.804688 148.101562 C 27.453125 148.074219 27.09375 148.042969 26.734375 147.996094 C 25.808594 147.878906 24.886719 147.683594 23.960938 147.402344 C 22.339844 146.863281 21.125 145.78125 20.316406 144.160156 L 20.546875 141.902344 C 21.78125 143.523438 23.398438 144.546875 25.40625 144.96875 C 26.402344 145.1875 27.410156 145.292969 28.441406 145.289062 C 28.820312 145.292969 29.199219 145.273438 29.582031 145.246094 C 30.773438 145.160156 31.980469 144.9375 33.210938 144.566406 C 34.640625 144.101562 35.757812 143.226562 36.566406 141.929688 Z M 20.316406 148.648438 L 20.546875 146.417969 C 21.78125 148.078125 23.398438 149.089844 25.40625 149.460938 C 25.527344 149.484375 25.652344 149.507812 25.78125 149.53125 C 26.128906 149.59375 26.472656 149.636719 26.824219 149.675781 C 29.484375 149.964844 32.042969 149.539062 34.484375 148.386719 C 35.429688 147.925781 36.125 147.269531 36.566406 146.417969 L 36.710938 146.851562 L 36.886719 148.503906 L 36.769531 148.675781 C 34.9375 151.570312 32.199219 152.886719 28.558594 152.617188 C 27.433594 152.648438 26.324219 152.515625 25.230469 152.226562 C 25.203125 152.210938 25.175781 152.203125 25.144531 152.195312 C 24.316406 151.96875 23.496094 151.640625 22.683594 151.226562 C 21.605469 150.683594 20.820312 149.824219 20.316406 148.648438 Z M 36.625 153.539062 C 35.773438 154.855469 34.617188 155.742188 33.15625 156.207031 C 30.492188 157.132812 27.910156 157.335938 25.40625 156.816406 C 25.316406 156.792969 25.230469 156.773438 25.144531 156.757812 C 23.117188 156.28125 21.570312 155.207031 20.519531 153.539062 L 20.546875 150.90625 C 21.027344 151.445312 21.558594 151.941406 22.136719 152.382812 C 23.09375 153.0625 24.097656 153.578125 25.144531 153.933594 C 27.191406 154.613281 29.410156 154.664062 31.796875 154.089844 C 33.820312 153.761719 35.429688 152.703125 36.625 150.90625 Z M 52.816406 169.175781 C 52.238281 170.257812 51.492188 171.113281 50.59375 171.742188 C 49.976562 171.941406 49.398438 172.191406 48.855469 172.507812 C 48.769531 172.558594 48.6875 172.613281 48.609375 172.667969 C 48.34375 172.738281 48.066406 172.800781 47.789062 172.855469 C 45.335938 173.296875 42.910156 173.210938 40.5 172.59375 C 39.167969 172.167969 38.101562 171.476562 37.289062 170.507812 L 37.316406 170.710938 C 37.257812 170.828125 37.203125 170.953125 37.144531 171.089844 C 36.199219 172.941406 34.589844 174.042969 32.316406 174.390625 C 29.714844 174.867188 27.109375 174.726562 24.511719 173.953125 C 23.042969 173.472656 21.914062 172.554688 21.125 171.203125 C 21.085938 171.148438 21.058594 171.089844 21.039062 171.027344 C 20.960938 170.914062 20.902344 170.804688 20.863281 170.710938 L 21.066406 168.625 C 20.21875 167.71875 20.042969 166.570312 20.546875 165.179688 C 20.722656 165.410156 20.914062 165.632812 21.125 165.847656 C 21.066406 165.945312 21.019531 166.027344 20.980469 166.105469 C 20.597656 167.015625 20.636719 167.796875 21.09375 168.453125 C 21.269531 168.6875 21.453125 168.90625 21.648438 169.121094 C 21.855469 169.332031 22.070312 169.535156 22.28125 169.726562 C 23.300781 170.613281 24.519531 171.210938 25.925781 171.523438 C 26.667969 171.675781 27.421875 171.769531 28.179688 171.8125 C 28.539062 171.832031 28.902344 171.835938 29.261719 171.824219 C 29.441406 171.824219 29.621094 171.8125 29.800781 171.796875 C 31.089844 171.726562 32.402344 171.492188 33.730469 171.089844 C 34.640625 170.816406 35.417969 170.371094 36.074219 169.757812 C 36.191406 169.640625 36.304688 169.515625 36.421875 169.378906 C 36.441406 169.359375 36.46875 169.332031 36.511719 169.292969 C 36.722656 169.039062 36.914062 168.773438 37.089844 168.484375 C 37.183594 168.230469 37.257812 167.988281 37.316406 167.757812 C 37.972656 168.550781 38.871094 169.136719 40.007812 169.527344 C 43.746094 170.796875 47.234375 170.527344 50.476562 168.710938 C 51.382812 168.269531 52.085938 167.679688 52.585938 166.949219 Z M 46.832031 188.257812 C 46.640625 187.890625 46.542969 187.496094 46.542969 187.074219 C 46.542969 186.589844 46.660156 186.15625 46.890625 185.769531 C 47.257812 186.480469 47.933594 187.128906 48.914062 187.707031 C 50.496094 188.636719 52.375 189.097656 54.554688 189.097656 C 56.769531 189.097656 58.671875 188.636719 60.25 187.707031 C 60.519531 187.554688 60.769531 187.378906 61.003906 187.1875 C 61.5625 186.742188 61.984375 186.269531 62.273438 185.769531 C 62.46875 186.191406 62.5625 186.625 62.5625 187.074219 C 62.5625 187.496094 62.46875 187.890625 62.273438 188.257812 C 62.023438 188.816406 61.601562 189.328125 61.003906 189.792969 C 60.769531 189.984375 60.519531 190.167969 60.25 190.339844 C 58.671875 191.25 56.769531 191.703125 54.554688 191.703125 C 52.375 191.703125 50.496094 191.25 48.914062 190.339844 C 47.855469 189.742188 47.160156 189.050781 46.832031 188.257812 Z M 62.445312 192.949219 C 62.234375 193.546875 61.859375 194.078125 61.320312 194.542969 C 60.992188 194.832031 60.632812 195.09375 60.25 195.324219 C 58.671875 196.230469 56.769531 196.683594 54.554688 196.683594 C 52.375 196.683594 50.496094 196.230469 48.914062 195.324219 C 48.605469 195.167969 48.304688 194.964844 48.019531 194.714844 C 47.339844 194.210938 46.890625 193.625 46.660156 192.949219 C 46.582031 192.636719 46.542969 192.359375 46.542969 192.109375 C 46.542969 191.648438 46.660156 191.210938 46.890625 190.808594 C 47.21875 191.519531 47.894531 192.175781 48.914062 192.773438 C 49.550781 193.125 50.246094 193.421875 50.996094 193.671875 C 52.09375 193.941406 53.28125 194.078125 54.554688 194.078125 C 55.863281 194.078125 57.050781 193.941406 58.109375 193.671875 C 58.902344 193.421875 59.613281 193.125 60.25 192.773438 C 60.519531 192.621094 60.769531 192.457031 61.003906 192.285156 C 61.5625 191.820312 61.984375 191.328125 62.273438 190.808594 C 62.46875 191.210938 62.5625 191.648438 62.5625 192.109375 C 62.5625 192.398438 62.523438 192.675781 62.445312 192.949219 Z M 62.445312 179.28125 C 62.195312 180.1875 61.464844 181.019531 60.25 181.773438 C 58.671875 182.640625 56.769531 183.074219 54.554688 183.074219 C 52.375 183.074219 50.496094 182.640625 48.914062 181.773438 C 48.726562 181.65625 48.546875 181.542969 48.378906 181.425781 C 47.460938 180.765625 46.890625 180.050781 46.660156 179.28125 C 46.582031 179.511719 46.542969 179.773438 46.542969 180.0625 C 46.542969 180.527344 46.660156 180.980469 46.890625 181.425781 C 46.929688 181.488281 46.96875 181.550781 47.019531 181.613281 C 47.429688 182.21875 48.0625 182.792969 48.914062 183.335938 C 50.496094 184.203125 52.375 184.636719 54.554688 184.636719 C 56.769531 184.636719 58.671875 184.203125 60.25 183.335938 C 60.519531 183.160156 60.769531 182.976562 61.003906 182.785156 C 61.058594 182.746094 61.109375 182.710938 61.144531 182.667969 C 61.300781 182.554688 61.4375 182.4375 61.550781 182.324219 C 61.859375 182.03125 62.070312 181.734375 62.1875 181.425781 C 62.246094 181.542969 62.3125 181.675781 62.390625 181.828125 C 62.503906 182.121094 62.5625 182.4375 62.5625 182.785156 C 62.5625 182.976562 62.542969 183.203125 62.503906 183.453125 C 62.503906 183.527344 62.488281 183.585938 62.445312 183.625 C 62.234375 184.339844 61.753906 184.972656 61.003906 185.535156 C 60.769531 185.730469 60.519531 185.902344 60.25 186.058594 C 58.671875 186.925781 56.769531 187.363281 54.554688 187.363281 C 52.375 187.363281 50.496094 186.925781 48.914062 186.058594 C 47.679688 185.34375 46.929688 184.511719 46.660156 183.566406 C 46.582031 183.335938 46.542969 183.074219 46.542969 182.785156 C 46.542969 182.367188 46.625 181.988281 46.789062 181.640625 C 46.039062 181.710938 45.292969 181.792969 44.546875 181.886719 C 41.847656 182.042969 39.417969 181.230469 37.257812 179.453125 C 37.625 181.484375 36.894531 182.976562 35.066406 183.945312 C 32.671875 185.042969 30.15625 185.4375 27.515625 185.132812 C 25.011719 184.957031 23.011719 183.960938 21.527344 182.148438 C 20.722656 181.183594 20.566406 180.101562 21.066406 178.90625 C 22.339844 180.46875 23.96875 181.464844 25.953125 181.886719 C 28.132812 182.367188 30.253906 182.367188 32.316406 181.886719 C 35.148438 181.464844 36.875 179.988281 37.492188 177.457031 C 37.878906 177.574219 38.300781 177.71875 38.765625 177.890625 C 39.980469 178.644531 41.386719 179.097656 42.988281 179.253906 C 44.257812 179.433594 45.476562 179.421875 46.644531 179.222656 C 46.574219 178.972656 46.542969 178.742188 46.542969 178.53125 C 46.542969 178.078125 46.632812 177.660156 46.800781 177.269531 C 45.074219 177.558594 43.292969 177.492188 41.453125 177.082031 C 39.640625 176.773438 38.226562 176.007812 37.203125 174.792969 L 37.316406 176.039062 C 36.414062 178.125 34.746094 179.347656 32.316406 179.71875 C 29.714844 180.21875 27.109375 180.070312 24.511719 179.28125 C 22.964844 178.78125 21.800781 177.792969 21.007812 176.328125 C 20.953125 176.230469 20.902344 176.132812 20.863281 176.039062 L 21.09375 173.78125 C 21.402344 174.1875 21.742188 174.5625 22.109375 174.910156 C 23.167969 175.875 24.441406 176.519531 25.925781 176.847656 C 28.449219 177.390625 31.054688 177.253906 33.730469 176.445312 C 34.675781 176.132812 35.5 175.652344 36.191406 174.996094 C 36.210938 174.957031 36.230469 174.929688 36.25 174.910156 C 36.441406 174.71875 36.625 174.503906 36.796875 174.273438 C 36.894531 174.117188 36.992188 173.964844 37.089844 173.808594 C 37.28125 173.289062 37.378906 172.804688 37.378906 172.359375 C 37.492188 172.4375 37.609375 172.523438 37.722656 172.621094 C 40.453125 174.570312 43.453125 175.292969 46.714844 174.792969 C 46.601562 175.109375 46.542969 175.441406 46.542969 175.777344 C 46.542969 176.261719 46.660156 176.695312 46.890625 177.082031 C 46.917969 177.132812 46.949219 177.1875 46.976562 177.242188 C 47.324219 177.78125 47.828125 178.277344 48.496094 178.730469 C 48.628906 178.820312 48.769531 178.90625 48.914062 178.992188 C 49.640625 179.410156 50.433594 179.734375 51.285156 179.964844 C 52.289062 180.222656 53.378906 180.351562 54.554688 180.351562 C 56.769531 180.351562 58.671875 179.898438 60.25 178.992188 C 61.195312 178.433594 61.839844 177.816406 62.1875 177.136719 C 62.4375 177.542969 62.5625 178.007812 62.5625 178.53125 C 62.5625 178.796875 62.523438 179.050781 62.445312 179.28125 Z M 20.546875 160.632812 C 20.835938 161.347656 21.367188 161.921875 22.136719 162.34375 C 22.714844 162.707031 23.324219 163.027344 23.960938 163.300781 C 23.132812 163.644531 22.4375 164.136719 21.878906 164.777344 C 21.296875 164.253906 20.777344 163.625 20.316406 162.894531 L 20.316406 161.242188 Z M 36.769531 158.40625 C 36.363281 159.484375 35.605469 160.316406 34.484375 160.894531 C 33.078125 161.648438 31.59375 162.113281 30.03125 162.285156 C 29.261719 162.226562 28.46875 162.246094 27.660156 162.34375 C 27.425781 162.324219 27.1875 162.292969 26.9375 162.257812 C 26.308594 162.21875 25.707031 162.125 25.144531 161.980469 C 23.117188 161.472656 21.507812 160.277344 20.316406 158.40625 L 20.546875 156.207031 C 21.144531 157.113281 21.855469 157.789062 22.683594 158.230469 C 23.488281 158.664062 24.304688 159 25.144531 159.230469 C 26.25 159.542969 27.382812 159.683594 28.558594 159.652344 C 31.832031 159.882812 34.523438 158.734375 36.625 156.207031 Z M 36.625 160.632812 L 36.769531 162.894531 C 36.578125 163.433594 36.296875 163.917969 35.929688 164.339844 C 35.660156 164.128906 35.351562 163.933594 35.003906 163.765625 C 34.820312 163.671875 34.644531 163.585938 34.46875 163.503906 C 34.226562 163.386719 33.992188 163.28125 33.761719 163.183594 C 34.308594 162.921875 34.808594 162.597656 35.265625 162.210938 C 35.78125 161.769531 36.234375 161.242188 36.625 160.632812 Z M 46.890625 199.433594 C 47.296875 200.089844 47.96875 200.71875 48.914062 201.316406 C 50.496094 202.222656 52.375 202.679688 54.554688 202.679688 C 56.769531 202.679688 58.671875 202.222656 60.25 201.316406 C 61.003906 200.890625 61.550781 200.4375 61.898438 199.957031 C 61.972656 200.304688 62.101562 200.660156 62.273438 201.027344 C 62.351562 201.140625 62.429688 201.277344 62.503906 201.433594 C 62.894531 201.914062 63.441406 202.367188 64.152344 202.792969 C 64.191406 202.832031 64.230469 202.878906 64.269531 202.9375 C 65.851562 203.84375 67.730469 204.300781 69.910156 204.300781 C 70.101562 204.300781 70.304688 204.300781 70.515625 204.300781 C 72.484375 204.179688 74.179688 203.730469 75.601562 202.9375 L 75.664062 202.851562 C 76.570312 202.308594 77.207031 201.722656 77.570312 201.085938 C 77.800781 201.46875 77.917969 201.902344 77.917969 202.386719 C 77.917969 202.695312 77.878906 202.976562 77.800781 203.226562 C 77.726562 203.457031 77.609375 203.691406 77.457031 203.921875 C 77.128906 204.5625 76.511719 205.140625 75.601562 205.660156 C 74.023438 206.566406 72.125 207.023438 69.910156 207.023438 C 67.980469 207.023438 66.285156 206.664062 64.820312 205.949219 C 64.667969 205.832031 64.484375 205.734375 64.269531 205.660156 C 63.632812 205.253906 63.101562 204.859375 62.679688 204.472656 C 62.351562 204.066406 62.148438 203.652344 62.070312 203.226562 C 61.996094 203.070312 61.9375 202.890625 61.898438 202.679688 C 61.511719 203.199219 60.960938 203.660156 60.25 204.066406 C 58.671875 204.972656 56.769531 205.429688 54.554688 205.429688 C 52.375 205.429688 50.496094 204.972656 48.914062 204.066406 C 47.371094 203.175781 46.582031 202.105469 46.542969 200.851562 C 46.542969 200.332031 46.660156 199.859375 46.890625 199.433594 Z M 46.660156 197.234375 C 46.582031 196.945312 46.542969 196.664062 46.542969 196.394531 C 46.542969 196.121094 46.582031 195.863281 46.660156 195.613281 C 46.699219 195.457031 46.777344 195.285156 46.890625 195.09375 C 46.929688 195.167969 46.988281 195.265625 47.066406 195.378906 C 47.429688 195.976562 48.046875 196.53125 48.914062 197.03125 C 50.496094 197.957031 52.375 198.421875 54.554688 198.421875 C 56.769531 198.421875 58.671875 197.957031 60.25 197.03125 C 61.234375 196.453125 61.90625 195.804688 62.273438 195.09375 C 62.46875 195.476562 62.5625 195.914062 62.5625 196.394531 C 62.5625 196.664062 62.523438 196.945312 62.445312 197.234375 C 62.195312 198.101562 61.464844 198.894531 60.25 199.609375 C 58.671875 200.515625 56.769531 200.96875 54.554688 200.96875 C 52.375 200.96875 50.496094 200.515625 48.914062 199.609375 C 47.722656 198.894531 46.96875 198.101562 46.660156 197.234375 Z M 47.378906 212.554688 C 47.765625 213.226562 48.453125 213.832031 49.433594 214.375 C 50.976562 215.300781 52.835938 215.765625 55.015625 215.765625 C 57.269531 215.765625 59.171875 215.300781 60.710938 214.375 C 61.617188 213.871094 62.253906 213.320312 62.621094 212.722656 C 62.660156 212.683594 62.679688 212.648438 62.679688 212.609375 C 62.949219 212.164062 63.085938 211.671875 63.085938 211.132812 C 63.085938 210.996094 63.0625 210.851562 63.027344 210.699219 C 63.390625 211.027344 63.808594 211.324219 64.269531 211.59375 C 65.851562 212.5 67.730469 212.957031 69.910156 212.957031 C 72.125 212.957031 74.023438 212.5 75.601562 211.59375 C 76.628906 210.996094 77.320312 210.339844 77.6875 209.628906 C 77.839844 210.03125 77.917969 210.425781 77.917969 210.8125 C 77.917969 212.085938 77.148438 213.179688 75.601562 214.085938 C 74.023438 214.957031 72.125 215.386719 69.910156 215.386719 C 67.730469 215.386719 65.851562 214.957031 64.269531 214.085938 C 63.769531 213.734375 63.316406 213.402344 62.910156 213.074219 C 63.027344 213.363281 63.085938 213.660156 63.085938 213.96875 C 63.085938 215.246094 62.292969 216.332031 60.710938 217.242188 C 59.171875 218.148438 57.269531 218.601562 55.015625 218.601562 C 52.835938 218.601562 50.976562 218.148438 49.433594 217.242188 C 47.855469 216.332031 47.066406 215.246094 47.066406 213.96875 C 47.066406 213.488281 47.171875 213.011719 47.378906 212.554688 Z M 77.800781 207.484375 C 77.496094 208.371094 76.761719 209.144531 75.601562 209.800781 C 74.023438 210.6875 72.125 211.132812 69.910156 211.132812 C 67.730469 211.132812 65.851562 210.6875 64.269531 209.800781 C 63.09375 209.144531 62.363281 208.371094 62.070312 207.484375 C 61.957031 207.171875 61.898438 206.867188 61.898438 206.558594 C 61.898438 206.113281 61.972656 205.71875 62.128906 205.371094 C 62.378906 205.796875 62.757812 206.230469 63.257812 206.671875 C 63.546875 206.90625 63.882812 207.136719 64.269531 207.367188 C 65.851562 208.296875 67.730469 208.757812 69.910156 208.757812 C 72.125 208.757812 74.023438 208.296875 75.601562 207.367188 C 76.628906 206.75 77.320312 206.085938 77.6875 205.371094 C 77.839844 205.757812 77.917969 206.152344 77.917969 206.558594 C 77.917969 206.867188 77.878906 207.171875 77.800781 207.484375 Z M 121.742188 213.734375 L 117.925781 215.953125 C 117.164062 215.730469 116.425781 215.421875 115.714844 215.039062 C 114.730469 214.441406 114.015625 213.667969 113.574219 212.722656 C 113.457031 212.375 113.402344 212.039062 113.402344 211.710938 C 113.402344 211.25 113.5 210.8125 113.691406 210.40625 C 113.957031 210.929688 114.410156 211.441406 115.050781 211.941406 C 115.164062 211.980469 115.289062 212.066406 115.425781 212.203125 C 115.539062 212.242188 115.652344 212.296875 115.773438 212.375 C 117.3125 213.285156 119.195312 213.734375 121.410156 213.734375 C 121.523438 213.734375 121.632812 213.734375 121.742188 213.734375 Z M 129.304688 208.265625 C 129.207031 208.554688 129.082031 208.816406 128.929688 209.046875 C 128.613281 209.535156 128.136719 209.980469 127.496094 210.378906 C 127.355469 210.46875 127.207031 210.554688 127.050781 210.640625 C 127.019531 210.65625 126.988281 210.675781 126.960938 210.699219 L 126.859375 210.753906 C 125.820312 211.324219 124.613281 211.703125 123.230469 211.882812 C 122.652344 211.960938 122.046875 212 121.410156 212 C 119.539062 212 117.921875 211.691406 116.550781 211.074219 C 116.261719 210.9375 116.003906 210.796875 115.773438 210.640625 C 114.574219 209.964844 113.824219 209.171875 113.515625 208.265625 C 113.4375 207.953125 113.402344 207.675781 113.402344 207.425781 C 113.402344 206.925781 113.5 206.472656 113.691406 206.0625 C 114.09375 206.816406 114.789062 207.472656 115.773438 208.035156 C 116.871094 208.667969 118.132812 209.085938 119.558594 209.277344 C 120.15625 209.355469 120.773438 209.394531 121.410156 209.394531 C 121.949219 209.394531 122.480469 209.355469 123 209.277344 C 124.160156 209.160156 125.1875 208.921875 126.09375 208.554688 C 126.441406 208.402344 126.761719 208.226562 127.050781 208.035156 C 128.070312 207.472656 128.753906 206.816406 129.101562 206.0625 C 129.3125 206.507812 129.421875 206.960938 129.421875 207.425781 C 129.421875 207.714844 129.382812 207.996094 129.304688 208.265625 Z M 129.304688 204.066406 C 129.054688 204.933594 128.300781 205.726562 127.050781 206.441406 C 125.699219 207.230469 124.050781 207.6875 122.105469 207.800781 C 121.910156 207.800781 121.679688 207.800781 121.410156 207.800781 C 119.195312 207.800781 117.3125 207.351562 115.773438 206.441406 C 114.535156 205.726562 113.765625 204.90625 113.457031 203.980469 C 113.417969 203.746094 113.402344 203.496094 113.402344 203.226562 C 113.402344 202.742188 113.515625 202.273438 113.746094 201.808594 C 114.152344 202.503906 114.824219 203.128906 115.773438 203.691406 C 117.3125 204.597656 119.195312 205.050781 121.410156 205.050781 C 123.628906 205.050781 125.507812 204.597656 127.050781 203.691406 C 127.125 203.652344 127.203125 203.632812 127.28125 203.632812 C 128.148438 203.109375 128.734375 202.519531 129.042969 201.867188 C 129.296875 202.292969 129.421875 202.742188 129.421875 203.226562 C 129.421875 203.496094 129.382812 203.777344 129.304688 204.066406 Z M 129.304688 204.066406 "/>
<path style=" stroke:none;fill-rule:evenodd;fill:rgb(85.098039%,99.215686%,78.039216%);fill-opacity:1;" d="M 106.921875 197.292969 C 105.824219 197.292969 104.9375 197.050781 104.261719 196.566406 C 103.507812 196.21875 103.09375 195.730469 103.019531 195.09375 C 103.019531 194.492188 103.429688 194.019531 104.261719 193.671875 C 104.9375 193.191406 105.785156 192.949219 106.808594 192.949219 C 107.925781 192.949219 108.859375 193.140625 109.613281 193.527344 C 110.265625 193.972656 110.59375 194.492188 110.59375 195.09375 C 110.59375 195.730469 110.265625 196.277344 109.613281 196.742188 C 108.765625 197.109375 107.867188 197.292969 106.921875 197.292969 Z M 86.101562 172.941406 L 67.824219 183.335938 L 102.0625 202.9375 L 120.109375 192.398438 Z M 81.070312 178.382812 C 82.167969 178.382812 83.09375 178.570312 83.84375 178.933594 C 84.484375 179.398438 84.800781 179.949219 84.800781 180.582031 C 84.800781 181.144531 84.484375 181.664062 83.84375 182.148438 C 83.015625 182.496094 82.128906 182.667969 81.1875 182.667969 C 80.070312 182.667969 79.179688 182.457031 78.527344 182.03125 C 77.773438 181.625 77.359375 181.144531 77.28125 180.582031 C 77.28125 179.949219 77.695312 179.4375 78.527344 179.050781 C 79.179688 178.605469 80.03125 178.382812 81.070312 178.382812 Z M 101.414062 183.003906 C 101.636719 183.109375 101.851562 183.214844 102.0625 183.335938 C 102.378906 183.511719 102.675781 183.695312 102.945312 183.886719 C 104.613281 185.035156 105.449219 186.414062 105.449219 188.027344 C 105.449219 189.839844 104.320312 191.382812 102.0625 192.660156 C 100.925781 193.371094 99.644531 193.882812 98.21875 194.191406 C 96.90625 194.5 95.480469 194.65625 93.9375 194.65625 C 90.816406 194.65625 88.144531 193.992188 85.929688 192.660156 C 83.710938 191.464844 82.542969 189.898438 82.429688 187.964844 C 82.507812 186.964844 82.882812 186.03125 83.558594 185.160156 C 84.195312 184.484375 84.984375 183.875 85.929688 183.335938 C 88.144531 182.0625 90.816406 181.425781 93.9375 181.425781 C 96.773438 181.425781 99.261719 181.953125 101.414062 183.003906 Z M 127.28125 192.949219 L 122.164062 195.929688 C 121.929688 195.875 121.679688 195.84375 121.410156 195.84375 C 119.195312 195.84375 117.296875 196.308594 115.714844 197.234375 C 114.167969 198.101562 113.402344 199.164062 113.402344 200.417969 C 113.402344 200.59375 113.402344 200.773438 113.402344 200.96875 L 103.132812 206.847656 L 62.503906 183.453125 C 62.542969 183.203125 62.5625 182.976562 62.5625 182.785156 C 62.5625 182.4375 62.503906 182.121094 62.390625 181.828125 L 80.765625 171.148438 L 85.03125 168.65625 Z M 127.28125 192.949219 "/>
<path style=" stroke:none;fill-rule:evenodd;fill:rgb(49.019608%,74.901961%,36.078431%);fill-opacity:1;" d="M 106.921875 197.292969 C 107.867188 197.292969 108.765625 197.109375 109.613281 196.742188 C 110.265625 196.277344 110.59375 195.730469 110.59375 195.09375 C 110.59375 194.492188 110.265625 193.972656 109.613281 193.527344 C 108.859375 193.140625 107.925781 192.949219 106.808594 192.949219 C 105.785156 192.949219 104.9375 193.191406 104.261719 193.671875 C 103.429688 194.019531 103.019531 194.492188 103.019531 195.09375 C 103.09375 195.730469 103.507812 196.21875 104.261719 196.566406 C 104.9375 197.050781 105.824219 197.292969 106.921875 197.292969 Z M 86.101562 172.941406 L 120.109375 192.398438 L 102.0625 202.9375 L 67.824219 183.335938 Z M 101.414062 183.003906 C 99.261719 181.953125 96.773438 181.425781 93.9375 181.425781 C 90.816406 181.425781 88.144531 182.0625 85.929688 183.335938 C 84.984375 183.875 84.195312 184.484375 83.558594 185.160156 C 82.882812 186.03125 82.507812 186.964844 82.429688 187.964844 C 82.542969 189.898438 83.710938 191.464844 85.929688 192.660156 C 88.144531 193.992188 90.816406 194.65625 93.9375 194.65625 C 95.480469 194.65625 96.90625 194.5 98.21875 194.191406 C 99.644531 193.882812 100.925781 193.371094 102.0625 192.660156 C 104.320312 191.382812 105.449219 189.839844 105.449219 188.027344 C 105.449219 186.414062 104.613281 185.035156 102.945312 183.886719 C 102.675781 183.695312 102.378906 183.511719 102.0625 183.335938 C 101.851562 183.214844 101.636719 183.109375 101.414062 183.003906 Z M 81.070312 178.382812 C 80.03125 178.382812 79.179688 178.605469 78.527344 179.050781 C 77.695312 179.4375 77.28125 179.949219 77.28125 180.582031 C 77.359375 181.144531 77.773438 181.625 78.527344 182.03125 C 79.179688 182.457031 80.070312 182.667969 81.1875 182.667969 C 82.128906 182.667969 83.015625 182.496094 83.84375 182.148438 C 84.484375 181.664062 84.800781 181.144531 84.800781 180.582031 C 84.800781 179.949219 84.484375 179.398438 83.84375 178.933594 C 83.09375 178.570312 82.167969 178.382812 81.070312 178.382812 Z M 81.070312 178.382812 "/>
<path style=" stroke:none;fill-rule:evenodd;fill:rgb(42.745098%,56.470588%,36.078431%);fill-opacity:1;" d="M 62.445312 192.949219 C 62.523438 192.675781 62.5625 192.398438 62.5625 192.109375 C 62.5625 191.648438 62.46875 191.210938 62.273438 190.808594 C 62.46875 190.382812 62.5625 189.945312 62.5625 189.503906 C 62.5625 189.097656 62.46875 188.679688 62.273438 188.257812 C 62.46875 187.890625 62.5625 187.496094 62.5625 187.074219 C 62.5625 186.625 62.46875 186.191406 62.273438 185.769531 C 62.46875 185.324219 62.5625 184.890625 62.5625 184.464844 C 62.5625 184.136719 62.523438 183.859375 62.445312 183.625 C 62.488281 183.585938 62.503906 183.527344 62.503906 183.453125 L 103.132812 206.847656 L 103.132812 218.71875 L 77.917969 204.179688 L 77.917969 204.125 C 77.917969 203.796875 77.878906 203.496094 77.800781 203.226562 C 77.878906 202.976562 77.917969 202.695312 77.917969 202.386719 C 77.917969 201.902344 77.800781 201.46875 77.570312 201.085938 C 77.800781 200.601562 77.917969 200.128906 77.917969 199.667969 C 77.917969 198.390625 77.148438 197.300781 75.601562 196.394531 C 74.023438 195.527344 72.125 195.09375 69.910156 195.09375 C 67.730469 195.09375 65.886719 195.503906 64.386719 196.335938 L 62.273438 195.09375 C 62.46875 194.648438 62.5625 194.230469 62.5625 193.847656 C 62.5625 193.515625 62.523438 193.21875 62.445312 192.949219 Z M 106.316406 224.421875 C 106.429688 224.539062 106.582031 224.640625 106.777344 224.738281 L 151.339844 250.335938 C 152.648438 251.109375 153.960938 251.117188 155.269531 250.363281 L 180.890625 235.480469 C 181.507812 235.136719 181.835938 234.789062 181.875 234.4375 C 182.648438 235.078125 182.480469 235.726562 181.386719 236.378906 L 155.765625 251.292969 C 154.453125 252.023438 153.132812 252.003906 151.800781 251.234375 L 107.269531 225.636719 C 106.558594 225.253906 106.238281 224.84375 106.316406 224.421875 Z M 106.316406 224.421875 "/>
<path style=" stroke:none;fill-rule:evenodd;fill:rgb(80.784314%,87.058824%,99.607843%);fill-opacity:1;" d="M 64.386719 196.335938 C 64.347656 196.371094 64.289062 196.394531 64.210938 196.394531 C 63.496094 196.820312 62.929688 197.292969 62.503906 197.8125 C 62.503906 197.582031 62.488281 197.386719 62.445312 197.234375 C 62.523438 196.945312 62.5625 196.664062 62.5625 196.394531 C 62.5625 195.914062 62.46875 195.476562 62.273438 195.09375 Z M 62.070312 207.484375 C 61.957031 207.734375 61.898438 208.035156 61.898438 208.382812 C 61.898438 208.5 61.898438 208.640625 61.898438 208.816406 C 61.589844 208.488281 61.195312 208.191406 60.710938 207.917969 C 60.210938 207.628906 59.679688 207.386719 59.125 207.195312 C 59.507812 207.269531 59.921875 207.328125 60.367188 207.367188 C 60.75 207.5 61.128906 207.667969 61.492188 207.859375 C 61.683594 207.703125 61.878906 207.578125 62.070312 207.484375 Z M 62.070312 207.484375 "/>
<path style=" stroke:none;fill-rule:evenodd;fill:rgb(22.352941%,36.078431%,15.294118%);fill-opacity:1;" d="M 127.28125 197.351562 C 127.203125 197.273438 127.125 197.234375 127.050781 197.234375 C 126.277344 196.78125 125.417969 196.453125 124.460938 196.234375 C 123.75 196.066406 122.980469 195.964844 122.164062 195.929688 L 127.28125 192.949219 Z M 103.132812 218.71875 L 103.132812 206.847656 L 113.402344 200.96875 C 113.476562 201.277344 113.59375 201.558594 113.746094 201.808594 C 113.515625 202.273438 113.402344 202.742188 113.402344 203.226562 C 113.402344 203.496094 113.417969 203.746094 113.457031 203.980469 C 113.417969 204.269531 113.402344 204.53125 113.402344 204.761719 C 113.402344 205.242188 113.5 205.675781 113.691406 206.0625 C 113.5 206.472656 113.402344 206.925781 113.402344 207.425781 C 113.402344 207.675781 113.4375 207.953125 113.515625 208.265625 C 113.4375 208.421875 113.402344 208.601562 113.402344 208.816406 C 113.402344 208.890625 113.402344 208.988281 113.402344 209.105469 C 113.402344 209.566406 113.5 210 113.691406 210.40625 C 113.5 210.8125 113.402344 211.25 113.402344 211.710938 C 113.402344 212.039062 113.457031 212.375 113.574219 212.722656 L 103.191406 218.71875 Z M 103.132812 218.71875 "/>
<path style=" stroke:none;fill-rule:evenodd;fill:rgb(16.862745%,12.156863%,60.784314%);fill-opacity:1;" d="M 135.460938 235.078125 C 135.460938 235.867188 135.964844 236.554688 136.96875 237.132812 C 137.949219 237.714844 139.144531 237.980469 140.550781 237.941406 C 141.960938 237.941406 143.15625 237.671875 144.136719 237.132812 C 145.121094 236.535156 145.605469 235.832031 145.582031 235.019531 C 145.582031 234.207031 145.082031 233.515625 144.082031 232.9375 C 143.117188 232.355469 141.929688 232.074219 140.523438 232.097656 C 139.136719 232.097656 137.941406 232.386719 136.9375 232.964844 C 135.957031 233.542969 135.460938 234.246094 135.460938 235.078125 Z M 128.902344 224.738281 L 135.808594 220.714844 C 136.160156 220.523438 136.203125 220.351562 135.957031 220.195312 L 127.714844 215.449219 C 127.460938 215.292969 127.164062 215.3125 126.816406 215.503906 L 119.90625 219.527344 C 119.558594 219.71875 119.511719 219.894531 119.761719 220.050781 L 128.003906 224.828125 C 128.253906 224.980469 128.550781 224.953125 128.902344 224.738281 Z M 140.667969 220.773438 L 144.023438 218.804688 L 132.136719 211.972656 L 128.785156 213.9375 Z M 155.214844 218.398438 L 153.304688 222.859375 L 148.621094 220.164062 L 145.292969 222.109375 L 151.976562 225.957031 L 143.445312 245.585938 L 106.980469 224.625 C 105.898438 223.992188 105.726562 223.351562 106.460938 222.710938 C 106.574219 222.558594 106.75 222.425781 106.980469 222.308594 L 117.925781 215.953125 L 121.742188 213.734375 L 126.859375 210.753906 L 126.960938 210.699219 C 126.988281 210.675781 127.019531 210.65625 127.050781 210.640625 C 127.207031 210.554688 127.355469 210.46875 127.496094 210.378906 L 129.421875 209.265625 L 132.628906 207.394531 C 133.921875 206.644531 135.234375 206.664062 136.5625 207.457031 L 155.300781 218.222656 Z M 155.214844 218.398438 "/>
<path style=" stroke:none;fill-rule:evenodd;fill:rgb(100%,100%,100%);fill-opacity:1;" d="M 135.460938 235.078125 C 135.460938 234.246094 135.957031 233.542969 136.9375 232.964844 C 137.941406 232.386719 139.136719 232.097656 140.523438 232.097656 C 141.929688 232.074219 143.117188 232.355469 144.082031 232.9375 C 145.082031 233.515625 145.582031 234.207031 145.582031 235.019531 C 145.605469 235.832031 145.121094 236.535156 144.136719 237.132812 C 143.15625 237.671875 141.960938 237.941406 140.550781 237.941406 C 139.144531 237.980469 137.949219 237.714844 136.96875 237.132812 C 135.964844 236.554688 135.460938 235.867188 135.460938 235.078125 Z M 135.460938 235.078125 "/>
<path style=" stroke:none;fill-rule:evenodd;fill:rgb(92.941176%,25.882353%,54.509804%);fill-opacity:1;" d="M 147.089844 243.589844 C 147.089844 242.492188 147.753906 241.523438 149.082031 240.695312 C 150.453125 239.902344 152.117188 239.507812 154.085938 239.507812 C 156.050781 239.46875 157.71875 239.855469 159.089844 240.664062 C 160.457031 241.457031 161.132812 242.402344 161.113281 243.503906 C 161.132812 244.601562 160.457031 245.578125 159.089844 246.429688 C 157.738281 247.21875 156.09375 247.613281 154.144531 247.613281 C 152.15625 247.632812 150.480469 247.238281 149.113281 246.429688 C 147.742188 245.636719 147.066406 244.691406 147.089844 243.589844 Z M 147.089844 243.589844 "/>
<path style=" stroke:none;fill-rule:evenodd;fill:rgb(16.862745%,32.941176%,90.196078%);fill-opacity:1;" d="M 100.789062 66.300781 C 101.484375 66.824219 102.132812 67.410156 102.730469 68.066406 L 102.730469 95.890625 L 90.730469 89 L 90.730469 62.796875 C 93.503906 62.179688 96.859375 63.347656 100.789062 66.300781 Z M 100.789062 66.300781 "/>
</g>
</svg>
