<?xml version="1.0" encoding="UTF-8"?>
<svg xmlns="http://www.w3.org/2000/svg" xmlns:xlink="http://www.w3.org/1999/xlink" width="375pt" height="374.999991pt" viewBox="0 0 375 374.999991" version="1.2">
<defs>
<clipPath id="clip1">
  <path d="M 22.445312 45.761719 L 352.339844 45.761719 L 352.339844 82 L 22.445312 82 Z M 22.445312 45.761719 "/>
</clipPath>
<clipPath id="clip2">
  <path d="M 94 317 L 129 317 L 129 329.261719 L 94 329.261719 Z M 94 317 "/>
</clipPath>
<clipPath id="clip3">
  <path d="M 138 317 L 162 317 L 162 329.261719 L 138 329.261719 Z M 138 317 "/>
</clipPath>
<clipPath id="clip4">
  <path d="M 172 317 L 285 317 L 285 329.261719 L 172 329.261719 Z M 172 317 "/>
</clipPath>
</defs>
<g id="surface1">
<path style=" stroke:none;fill-rule:nonzero;fill:rgb(100%,100%,100%);fill-opacity:1;" d="M 45.800781 75.695312 L 329.066406 75.695312 L 329.066406 299.417969 L 45.800781 299.417969 Z M 45.800781 75.695312 "/>
<path style=" stroke:none;fill-rule:nonzero;fill:rgb(30.589294%,21.179199%,59.999084%);fill-opacity:1;" d="M 329.066406 305.488281 L 45.800781 305.488281 C 42.453125 305.488281 39.738281 302.769531 39.738281 299.417969 L 39.738281 75.695312 C 39.738281 72.34375 42.453125 69.628906 45.800781 69.628906 L 329.066406 69.628906 C 332.414062 69.628906 335.128906 72.34375 335.128906 75.695312 L 335.128906 299.417969 C 335.128906 302.769531 332.414062 305.488281 329.066406 305.488281 Z M 51.867188 293.351562 L 323 293.351562 L 323 81.765625 L 51.867188 81.765625 Z M 51.867188 293.351562 "/>
<path style=" stroke:none;fill-rule:nonzero;fill:rgb(100%,41.569519%,28.239441%);fill-opacity:1;" d="M 28.535156 51.800781 L 346.332031 51.800781 L 346.332031 75.425781 L 28.535156 75.425781 Z M 28.535156 51.800781 "/>
<g clip-path="url(#clip1)" clip-rule="nonzero">
<path style=" stroke:none;fill-rule:nonzero;fill:rgb(30.589294%,21.179199%,59.999084%);fill-opacity:1;" d="M 346.332031 81.496094 L 28.535156 81.496094 C 25.1875 81.496094 22.472656 78.777344 22.472656 75.425781 L 22.472656 51.800781 C 22.472656 48.449219 25.1875 45.734375 28.535156 45.734375 L 346.332031 45.734375 C 349.683594 45.734375 352.394531 48.449219 352.394531 51.800781 L 352.394531 75.425781 C 352.394531 78.777344 349.679688 81.496094 346.332031 81.496094 Z M 34.597656 69.359375 L 340.269531 69.359375 L 340.269531 57.871094 L 34.597656 57.871094 Z M 34.597656 69.359375 "/>
</g>
<path style=" stroke:none;fill-rule:nonzero;fill:rgb(30.589294%,21.179199%,59.999084%);fill-opacity:1;" d="M 300.816406 152.4375 C 299.605469 151.226562 297.863281 150.710938 296.183594 151.070312 L 268.304688 157.046875 C 266.492188 157.4375 265.039062 158.785156 264.515625 160.558594 C 263.992188 162.335938 264.480469 164.257812 265.789062 165.570312 L 272.558594 172.34375 L 249.175781 195.746094 L 229.980469 176.535156 C 227.613281 174.167969 223.769531 174.167969 221.40625 176.535156 L 179.136719 218.835938 C 176.769531 221.207031 176.769531 225.050781 179.136719 227.417969 C 180.320312 228.605469 181.875 229.195312 183.425781 229.195312 C 184.976562 229.195312 186.53125 228.605469 187.714844 227.417969 L 225.691406 189.410156 L 244.886719 208.617188 C 247.253906 210.988281 251.097656 210.988281 253.460938 208.617188 L 281.132812 180.925781 L 287.695312 187.492188 C 288.65625 188.453125 289.949219 188.976562 291.269531 188.976562 C 291.746094 188.976562 292.226562 188.90625 292.699219 188.769531 C 294.476562 188.242188 295.820312 186.789062 296.210938 184.976562 L 302.183594 157.074219 C 302.542969 155.398438 302.027344 153.652344 300.816406 152.4375 Z M 300.816406 152.4375 "/>
<path style=" stroke:none;fill-rule:nonzero;fill:rgb(50.19989%,78.819275%,100%);fill-opacity:1;" d="M 129.457031 125.433594 C 151.335938 125.433594 169.074219 143.183594 169.074219 165.082031 C 169.074219 186.980469 151.335938 204.730469 129.457031 204.730469 C 107.574219 204.730469 89.839844 186.980469 89.839844 165.082031 L 129.457031 165.082031 Z M 129.457031 125.433594 "/>
<path style=" stroke:none;fill-rule:nonzero;fill:rgb(30.589294%,21.179199%,59.999084%);fill-opacity:1;" d="M 129.457031 210.800781 C 104.265625 210.800781 83.773438 190.289062 83.773438 165.082031 C 83.773438 161.730469 86.488281 159.011719 89.839844 159.011719 L 123.390625 159.011719 L 123.390625 125.433594 C 123.390625 122.082031 126.105469 119.363281 129.457031 119.363281 C 154.644531 119.363281 175.136719 139.871094 175.136719 165.082031 C 175.136719 190.289062 154.644531 210.800781 129.457031 210.800781 Z M 96.453125 171.148438 C 99.3125 186.78125 113.023438 198.664062 129.457031 198.664062 C 147.957031 198.664062 163.011719 183.597656 163.011719 165.082031 C 163.011719 148.636719 151.136719 134.914062 135.519531 132.050781 L 135.519531 165.082031 C 135.519531 168.433594 132.804688 171.148438 129.457031 171.148438 Z M 96.453125 171.148438 "/>
<path style=" stroke:none;fill-rule:nonzero;fill:rgb(100%,72.158813%,16.079712%);fill-opacity:1;" d="M 109.523438 107.246094 L 109.523438 146.363281 L 70.28125 146.363281 C 70.28125 124.761719 87.78125 107.246094 109.367188 107.246094 Z M 109.523438 107.246094 "/>
<path style=" stroke:none;fill-rule:nonzero;fill:rgb(30.589294%,21.179199%,59.999084%);fill-opacity:1;" d="M 109.523438 152.433594 L 70.28125 152.433594 C 66.933594 152.433594 64.21875 149.714844 64.21875 146.363281 C 64.21875 121.449219 84.472656 101.179688 109.367188 101.179688 L 109.523438 101.179688 C 112.871094 101.179688 115.585938 103.894531 115.585938 107.246094 L 115.585938 146.363281 C 115.585938 149.714844 112.871094 152.433594 109.523438 152.433594 Z M 76.902344 140.296875 L 103.460938 140.296875 L 103.460938 113.84375 C 90.03125 116.28125 79.402344 126.875 76.902344 140.296875 Z M 76.902344 140.296875 "/>
<path style=" stroke:none;fill-rule:nonzero;fill:rgb(100%,72.158813%,16.079712%);fill-opacity:1;" d="M 227.496094 207.410156 C 224.144531 207.410156 221.429688 210.128906 221.429688 213.480469 L 221.429688 266.65625 C 221.429688 270.007812 224.148438 272.722656 227.496094 272.722656 C 230.84375 272.722656 233.558594 270.007812 233.558594 266.65625 L 233.558594 213.480469 C 233.558594 210.128906 230.84375 207.410156 227.496094 207.410156 Z M 227.496094 207.410156 "/>
<path style=" stroke:none;fill-rule:nonzero;fill:rgb(100%,72.158813%,16.079712%);fill-opacity:1;" d="M 264.636719 214.058594 C 261.289062 214.058594 258.574219 216.777344 258.574219 220.128906 L 258.574219 266.65625 C 258.574219 270.007812 261.289062 272.722656 264.636719 272.722656 C 267.984375 272.722656 270.699219 270.007812 270.699219 266.65625 L 270.699219 220.128906 C 270.699219 216.777344 267.984375 214.058594 264.636719 214.058594 Z M 264.636719 214.058594 "/>
<path style=" stroke:none;fill-rule:nonzero;fill:rgb(50.19989%,78.819275%,100%);fill-opacity:1;" d="M 208.921875 234 C 205.574219 234 202.859375 236.714844 202.859375 240.066406 L 202.859375 266.65625 C 202.859375 270.007812 205.574219 272.722656 208.921875 272.722656 C 212.269531 272.722656 214.988281 270.007812 214.988281 266.65625 L 214.988281 240.066406 C 214.988281 236.714844 212.273438 234 208.921875 234 Z M 208.921875 234 "/>
<path style=" stroke:none;fill-rule:nonzero;fill:rgb(50.19989%,78.819275%,100%);fill-opacity:1;" d="M 246.066406 227.351562 C 242.714844 227.351562 240 230.070312 240 233.421875 L 240 266.65625 C 240 270.007812 242.71875 272.722656 246.066406 272.722656 C 249.414062 272.722656 252.128906 270.007812 252.128906 266.65625 L 252.128906 233.421875 C 252.128906 230.070312 249.414062 227.351562 246.066406 227.351562 Z M 246.066406 227.351562 "/>
<path style=" stroke:none;fill-rule:nonzero;fill:rgb(50.19989%,78.819275%,100%);fill-opacity:1;" d="M 283.207031 240.648438 C 279.859375 240.648438 277.144531 243.363281 277.144531 246.714844 L 277.144531 266.65625 C 277.144531 270.007812 279.859375 272.722656 283.207031 272.722656 C 286.554688 272.722656 289.269531 270.007812 289.269531 266.65625 L 289.269531 246.714844 C 289.269531 243.363281 286.554688 240.648438 283.207031 240.648438 Z M 283.207031 240.648438 "/>
<path style=" stroke:none;fill-rule:nonzero;fill:rgb(30.589294%,21.179199%,59.999084%);fill-opacity:1;" d="M 300.863281 272.726562 L 190.394531 272.726562 C 187.046875 272.726562 184.332031 270.007812 184.332031 266.65625 C 184.332031 263.304688 187.046875 260.585938 190.394531 260.585938 L 300.863281 260.585938 C 304.210938 260.585938 306.925781 263.304688 306.925781 266.65625 C 306.925781 270.007812 304.210938 272.726562 300.863281 272.726562 Z M 300.863281 272.726562 "/>
<path style=" stroke:none;fill-rule:nonzero;fill:rgb(83.139038%,79.998779%,94.898987%);fill-opacity:1;" d="M 157.707031 245.988281 L 72.902344 245.988281 C 69.554688 245.988281 66.839844 243.273438 66.839844 239.921875 C 66.839844 236.570312 69.554688 233.851562 72.902344 233.851562 L 157.707031 233.851562 C 161.058594 233.851562 163.773438 236.570312 163.773438 239.921875 C 163.773438 243.273438 161.058594 245.988281 157.707031 245.988281 Z M 157.707031 245.988281 "/>
<path style=" stroke:none;fill-rule:nonzero;fill:rgb(83.139038%,79.998779%,94.898987%);fill-opacity:1;" d="M 157.707031 271.363281 L 72.902344 271.363281 C 69.554688 271.363281 66.839844 268.644531 66.839844 265.296875 C 66.839844 261.945312 69.554688 259.226562 72.902344 259.226562 L 157.707031 259.226562 C 161.058594 259.226562 163.773438 261.945312 163.773438 265.296875 C 163.773438 268.648438 161.058594 271.363281 157.707031 271.363281 Z M 157.707031 271.363281 "/>
<path style=" stroke:none;fill-rule:nonzero;fill:rgb(83.139038%,79.998779%,94.898987%);fill-opacity:1;" d="M 299.339844 113.867188 L 201.421875 113.867188 C 198.074219 113.867188 195.359375 111.152344 195.359375 107.800781 C 195.359375 104.449219 198.074219 101.730469 201.421875 101.730469 L 299.339844 101.730469 C 302.6875 101.730469 305.402344 104.449219 305.402344 107.800781 C 305.402344 111.152344 302.6875 113.867188 299.339844 113.867188 Z M 299.339844 113.867188 "/>
<path style=" stroke:none;fill-rule:nonzero;fill:rgb(83.139038%,79.998779%,94.898987%);fill-opacity:1;" d="M 299.339844 139.242188 L 201.421875 139.242188 C 198.074219 139.242188 195.359375 136.527344 195.359375 133.175781 C 195.359375 129.824219 198.074219 127.105469 201.421875 127.105469 L 299.339844 127.105469 C 302.6875 127.105469 305.402344 129.824219 305.402344 133.175781 C 305.402344 136.527344 302.6875 139.242188 299.339844 139.242188 Z M 299.339844 139.242188 "/>
<g clip-path="url(#clip2)" clip-rule="nonzero">
<path style=" stroke:none;fill-rule:nonzero;fill:rgb(30.589294%,21.179199%,59.999084%);fill-opacity:1;" d="M 122.9375 329.230469 L 100.789062 329.230469 C 97.441406 329.230469 94.722656 326.511719 94.722656 323.160156 C 94.722656 319.808594 97.441406 317.09375 100.789062 317.09375 L 122.9375 317.09375 C 126.285156 317.09375 129 319.8125 129 323.160156 C 129 326.511719 126.285156 329.230469 122.9375 329.230469 Z M 122.9375 329.230469 "/>
</g>
<g clip-path="url(#clip3)" clip-rule="nonzero">
<path style=" stroke:none;fill-rule:nonzero;fill:rgb(30.589294%,21.179199%,59.999084%);fill-opacity:1;" d="M 155.203125 329.230469 L 144.710938 329.230469 C 141.363281 329.230469 138.644531 326.511719 138.644531 323.160156 C 138.644531 319.808594 141.363281 317.09375 144.710938 317.09375 L 155.203125 317.09375 C 158.550781 317.09375 161.265625 319.8125 161.265625 323.160156 C 161.265625 326.511719 158.550781 329.230469 155.203125 329.230469 Z M 155.203125 329.230469 "/>
</g>
<g clip-path="url(#clip4)" clip-rule="nonzero">
<path style=" stroke:none;fill-rule:nonzero;fill:rgb(30.589294%,21.179199%,59.999084%);fill-opacity:1;" d="M 278.453125 329.230469 L 178.203125 329.230469 C 174.851562 329.230469 172.136719 326.511719 172.136719 323.160156 C 172.136719 319.808594 174.851562 317.09375 178.203125 317.09375 L 278.449219 317.09375 C 281.800781 317.09375 284.515625 319.8125 284.515625 323.160156 C 284.515625 326.511719 281.800781 329.230469 278.453125 329.230469 Z M 278.453125 329.230469 "/>
</g>
</g>
</svg>
