<svg width="2413" height="459" viewBox="0 0 2413 459" fill="none" xmlns="http://www.w3.org/2000/svg">
<path fill-rule="evenodd" clip-rule="evenodd" d="M2413 249.589C2413 61.2 1843.49 173.74 1731 234.37C1618.5 295 1504.33 298.289 1419.18 273.939C1334.03 249.589 1214.5 157.058 1214.5 157.058C1103.36 84.6167 862.775 295.57 775.359 234.37C687.943 173.17 611.912 91.8 524.496 61.2C437.081 30.6 349.664 61.2 262.248 61.2C174.832 61.2 87.416 30.6 43.708 15.3L0 0V459H43.708C87.416 459 174.832 459 262.248 459C349.664 459 437.081 459 524.496 459C611.912 459 699.328 459 786.744 459C874.16 459 961.576 459 1005.28 459H2413C2413 459 2413 437.978 2413 249.589Z" fill="white"/>
</svg>
