<svg width="2413" height="453" viewBox="0 0 2413 453" fill="none" xmlns="http://www.w3.org/2000/svg">
<path fill-rule="evenodd" clip-rule="evenodd" d="M0 360.896L100.542 284.142C201.083 207.389 402.167 53.882 603.25 7.82998C804.333 -38.2221 971 159.5 1206.5 38.5314C1442 -82.4374 1592 188.5 1809.75 69.2327C2027.5 -50.0346 2211.92 238.09 2312.46 299.493L2413 360.896V453H2312.46C2211.92 453 2010.83 453 1809.75 453C1608.67 453 1407.58 453 1206.5 453C1005.42 453 804.333 453 603.25 453C402.167 453 201.083 453 100.542 453H0V360.896Z" fill="white"/>
</svg>
