<svg width="2413" height="479" viewBox="0 0 2413 479" fill="none" xmlns="http://www.w3.org/2000/svg">
<path fill-rule="evenodd" clip-rule="evenodd" d="M0 385.967L61 323.945C161.542 246.417 86.4583 276.387 205.5 170.5C324.542 64.6127 526 -105.982 744 91.3628C962 288.707 1110.42 195.485 1227 135C1462.5 12.8114 1624.75 352.97 1842.5 232.5C2060.25 112.03 2211.92 261.923 2312.46 323.945L2413 385.967V479H2312.46C2211.92 479 2010.83 479 1809.75 479C1608.67 479 1407.58 479 1206.5 479C1005.42 479 804.333 479 603.25 479C402.167 479 201.083 479 100.542 479H0V385.967Z" fill="white"/>
</svg>
