<svg width="2413" height="462" viewBox="0 0 2413 462" fill="none" xmlns="http://www.w3.org/2000/svg">
<path fill-rule="evenodd" clip-rule="evenodd" d="M0 369.896L100.542 293.142C201.083 216.389 402.167 62.8823 603.25 16.8302C804.333 -29.2218 1005.42 32.1809 1206.5 47.5316C1407.58 62.8823 1608.67 32.1809 1809.75 78.2329C2010.83 124.285 2211.92 247.09 2312.46 308.493L2413 369.896V462H2312.46C2211.92 462 2010.83 462 1809.75 462C1608.67 462 1407.58 462 1206.5 462C1005.42 462 804.333 462 603.25 462C402.167 462 201.083 462 100.542 462H0V369.896Z" fill="white"/>
</svg>
